<mxfile host="Electron" modified="2024-04-04T15:10:09.280Z" agent="Mozilla/5.0 (Windows NT 10.0; Win64; x64) AppleWebKit/537.36 (KHTML, like Gecko) draw.io/21.2.1 Chrome/112.0.5615.87 Electron/24.1.2 Safari/537.36" etag="BfIxz-PNEhpY_jp4rxOo" version="21.2.1" type="device" pages="2">
  <diagram name="第 1 页" id="q9NyIN3uyb69h4GF0Fi9">
    <mxGraphModel dx="804" dy="539" grid="0" gridSize="10" guides="1" tooltips="1" connect="1" arrows="1" fold="1" page="1" pageScale="1" pageWidth="4681" pageHeight="3300" math="0" shadow="0">
      <root>
        <mxCell id="0" />
        <mxCell id="1" parent="0" />
        <mxCell id="Af6eF92gB9gsv9GVImaX-1" value="PC&lt;br&gt;32b" style="rounded=0;whiteSpace=wrap;html=1;fontStyle=1;fillColor=#d5e8d4;strokeColor=#82b366;" parent="1" vertex="1">
          <mxGeometry x="220" y="280" width="50" height="80" as="geometry" />
        </mxCell>
        <mxCell id="Af6eF92gB9gsv9GVImaX-3" value="IM" style="rounded=0;whiteSpace=wrap;html=1;fillColor=#e1d5e7;strokeColor=#9673a6;fontStyle=1" parent="1" vertex="1">
          <mxGeometry x="330" y="880" width="120" height="60" as="geometry" />
        </mxCell>
        <mxCell id="Af6eF92gB9gsv9GVImaX-5" value="" style="endArrow=classic;html=1;rounded=0;exitX=1;exitY=0.5;exitDx=0;exitDy=0;entryX=0;entryY=0.5;entryDx=0;entryDy=0;" parent="1" source="Af6eF92gB9gsv9GVImaX-1" target="Af6eF92gB9gsv9GVImaX-3" edge="1">
          <mxGeometry width="50" height="50" relative="1" as="geometry">
            <mxPoint x="350" y="330" as="sourcePoint" />
            <mxPoint x="340" y="320" as="targetPoint" />
            <Array as="points">
              <mxPoint x="310" y="320" />
              <mxPoint x="310" y="910" />
            </Array>
          </mxGeometry>
        </mxCell>
        <mxCell id="Af6eF92gB9gsv9GVImaX-7" value="" style="endArrow=classic;html=1;rounded=0;exitX=1;exitY=0.5;exitDx=0;exitDy=0;" parent="1" source="Af6eF92gB9gsv9GVImaX-3" edge="1">
          <mxGeometry width="50" height="50" relative="1" as="geometry">
            <mxPoint x="510" y="580" as="sourcePoint" />
            <mxPoint x="640" y="310" as="targetPoint" />
            <Array as="points">
              <mxPoint x="470" y="910" />
              <mxPoint x="470" y="310" />
            </Array>
          </mxGeometry>
        </mxCell>
        <mxCell id="Af6eF92gB9gsv9GVImaX-10" value="" style="endArrow=classic;html=1;rounded=0;exitX=1;exitY=0.5;exitDx=0;exitDy=0;entryX=0;entryY=0.5;entryDx=0;entryDy=0;" parent="1" target="Af6eF92gB9gsv9GVImaX-1" edge="1">
          <mxGeometry width="50" height="50" relative="1" as="geometry">
            <mxPoint x="159.99999999999977" y="320" as="sourcePoint" />
            <mxPoint x="230" y="200" as="targetPoint" />
          </mxGeometry>
        </mxCell>
        <mxCell id="Af6eF92gB9gsv9GVImaX-11" value="DECODER" style="rounded=0;whiteSpace=wrap;html=1;fillColor=#dae8fc;strokeColor=#6c8ebf;fontStyle=1" parent="1" vertex="1">
          <mxGeometry x="680" y="261" width="70" height="100" as="geometry" />
        </mxCell>
        <mxCell id="Af6eF92gB9gsv9GVImaX-12" value="" style="endArrow=classic;html=1;rounded=0;exitX=1;exitY=0.375;exitDx=0;exitDy=0;exitPerimeter=0;" parent="1" edge="1">
          <mxGeometry width="50" height="50" relative="1" as="geometry">
            <mxPoint x="640" y="310" as="sourcePoint" />
            <mxPoint x="680" y="310" as="targetPoint" />
          </mxGeometry>
        </mxCell>
        <mxCell id="Af6eF92gB9gsv9GVImaX-17" value="" style="shape=waypoint;sketch=0;size=6;pointerEvents=1;points=[];fillColor=none;resizable=0;rotatable=0;perimeter=centerPerimeter;snapToPoint=1;strokeWidth=0;" parent="1" vertex="1">
          <mxGeometry x="760" y="300" width="20" height="20" as="geometry" />
        </mxCell>
        <mxCell id="Af6eF92gB9gsv9GVImaX-18" value="GLOBAL&lt;br&gt;REGFILE&lt;br&gt;&lt;br&gt;32x32b" style="rounded=0;whiteSpace=wrap;html=1;fontStyle=1;fillColor=#d5e8d4;strokeColor=#82b366;" parent="1" vertex="1">
          <mxGeometry x="830" y="290" width="80" height="210" as="geometry" />
        </mxCell>
        <mxCell id="Af6eF92gB9gsv9GVImaX-19" value="" style="endArrow=classic;html=1;rounded=0;entryX=0.013;entryY=0.095;entryDx=0;entryDy=0;entryPerimeter=0;" parent="1" target="Af6eF92gB9gsv9GVImaX-18" edge="1">
          <mxGeometry width="50" height="50" relative="1" as="geometry">
            <mxPoint x="770" y="310" as="sourcePoint" />
            <mxPoint x="840" y="280" as="targetPoint" />
          </mxGeometry>
        </mxCell>
        <mxCell id="Af6eF92gB9gsv9GVImaX-20" value="" style="endArrow=classic;html=1;rounded=0;entryX=0.012;entryY=0.524;entryDx=0;entryDy=0;entryPerimeter=0;" parent="1" target="Af6eF92gB9gsv9GVImaX-18" edge="1">
          <mxGeometry width="50" height="50" relative="1" as="geometry">
            <mxPoint x="770" y="310" as="sourcePoint" />
            <mxPoint x="800" y="440" as="targetPoint" />
            <Array as="points">
              <mxPoint x="770" y="400" />
            </Array>
          </mxGeometry>
        </mxCell>
        <mxCell id="Af6eF92gB9gsv9GVImaX-21" value="" style="endArrow=classic;html=1;rounded=0;entryX=0;entryY=0.714;entryDx=0;entryDy=0;entryPerimeter=0;" parent="1" target="Af6eF92gB9gsv9GVImaX-18" edge="1">
          <mxGeometry width="50" height="50" relative="1" as="geometry">
            <mxPoint x="2340" y="700" as="sourcePoint" />
            <mxPoint x="800" y="480" as="targetPoint" />
            <Array as="points">
              <mxPoint x="790" y="700" />
              <mxPoint x="790" y="440" />
            </Array>
          </mxGeometry>
        </mxCell>
        <mxCell id="Af6eF92gB9gsv9GVImaX-26" value="" style="endArrow=classic;html=1;rounded=0;exitX=0.425;exitY=0.349;exitDx=0;exitDy=0;exitPerimeter=0;" parent="1" source="Af6eF92gB9gsv9GVImaX-99" edge="1">
          <mxGeometry width="50" height="50" relative="1" as="geometry">
            <mxPoint x="690" y="400" as="sourcePoint" />
            <mxPoint x="1080" y="560" as="targetPoint" />
            <Array as="points">
              <mxPoint x="770" y="560" />
            </Array>
          </mxGeometry>
        </mxCell>
        <mxCell id="Af6eF92gB9gsv9GVImaX-27" value="" style="endArrow=classic;html=1;rounded=0;exitX=1;exitY=0.095;exitDx=0;exitDy=0;exitPerimeter=0;" parent="1" source="Af6eF92gB9gsv9GVImaX-18" edge="1">
          <mxGeometry width="50" height="50" relative="1" as="geometry">
            <mxPoint x="930" y="310" as="sourcePoint" />
            <mxPoint x="1080" y="310" as="targetPoint" />
          </mxGeometry>
        </mxCell>
        <mxCell id="Af6eF92gB9gsv9GVImaX-28" value="" style="endArrow=classic;html=1;rounded=0;exitX=1;exitY=0.523;exitDx=0;exitDy=0;exitPerimeter=0;" parent="1" source="Af6eF92gB9gsv9GVImaX-18" edge="1">
          <mxGeometry width="50" height="50" relative="1" as="geometry">
            <mxPoint x="900.3999999999999" y="469.55999999999995" as="sourcePoint" />
            <mxPoint x="1080" y="400" as="targetPoint" />
          </mxGeometry>
        </mxCell>
        <mxCell id="Af6eF92gB9gsv9GVImaX-37" value="ALU_Src1" style="text;html=1;align=center;verticalAlign=middle;resizable=0;points=[];autosize=1;strokeColor=none;fillColor=none;" parent="1" vertex="1">
          <mxGeometry x="1290" y="461.5" width="80" height="30" as="geometry" />
        </mxCell>
        <mxCell id="Af6eF92gB9gsv9GVImaX-33" value="ALU_Src0" style="text;html=1;align=center;verticalAlign=middle;resizable=0;points=[];autosize=1;strokeColor=none;fillColor=none;" parent="1" vertex="1">
          <mxGeometry x="1290" y="295" width="80" height="30" as="geometry" />
        </mxCell>
        <mxCell id="Af6eF92gB9gsv9GVImaX-38" value="ALU" style="rounded=0;whiteSpace=wrap;html=1;fontStyle=1;fillColor=#dae8fc;strokeColor=#6c8ebf;" parent="1" vertex="1">
          <mxGeometry x="1420" y="260" width="100" height="80" as="geometry" />
        </mxCell>
        <mxCell id="Af6eF92gB9gsv9GVImaX-39" value="MUL&amp;nbsp;" style="rounded=0;whiteSpace=wrap;html=1;fontStyle=1;fillColor=#dae8fc;strokeColor=#6c8ebf;" parent="1" vertex="1">
          <mxGeometry x="1470" y="400" width="100" height="50" as="geometry" />
        </mxCell>
        <mxCell id="Af6eF92gB9gsv9GVImaX-40" value="DIV" style="rounded=0;whiteSpace=wrap;html=1;fontStyle=1;fillColor=#dae8fc;strokeColor=#6c8ebf;" parent="1" vertex="1">
          <mxGeometry x="1470" y="500" width="100" height="50" as="geometry" />
        </mxCell>
        <mxCell id="Af6eF92gB9gsv9GVImaX-43" value="" style="endArrow=classic;html=1;rounded=0;entryX=0;entryY=0.2;entryDx=0;entryDy=0;entryPerimeter=0;exitX=0.54;exitY=0.6;exitDx=0;exitDy=0;exitPerimeter=0;" parent="1" source="Af6eF92gB9gsv9GVImaX-44" target="Af6eF92gB9gsv9GVImaX-39" edge="1">
          <mxGeometry width="50" height="50" relative="1" as="geometry">
            <mxPoint x="1370" y="300" as="sourcePoint" />
            <mxPoint x="1400" y="420" as="targetPoint" />
            <Array as="points">
              <mxPoint x="1370" y="410" />
            </Array>
          </mxGeometry>
        </mxCell>
        <mxCell id="Af6eF92gB9gsv9GVImaX-44" value="" style="shape=waypoint;sketch=0;size=6;pointerEvents=1;points=[];fillColor=none;resizable=0;rotatable=0;perimeter=centerPerimeter;snapToPoint=1;strokeWidth=0;" parent="1" vertex="1">
          <mxGeometry x="1360" y="260" width="20" height="20" as="geometry" />
        </mxCell>
        <mxCell id="Af6eF92gB9gsv9GVImaX-45" value="" style="endArrow=classic;html=1;rounded=0;entryX=0;entryY=0.2;entryDx=0;entryDy=0;entryPerimeter=0;exitX=0.937;exitY=0.521;exitDx=0;exitDy=0;exitPerimeter=0;" parent="1" source="Af6eF92gB9gsv9GVImaX-48" target="Af6eF92gB9gsv9GVImaX-40" edge="1">
          <mxGeometry width="50" height="50" relative="1" as="geometry">
            <mxPoint x="1360" y="410" as="sourcePoint" />
            <mxPoint x="1420" y="510" as="targetPoint" />
            <Array as="points">
              <mxPoint x="1370" y="510" />
            </Array>
          </mxGeometry>
        </mxCell>
        <mxCell id="Af6eF92gB9gsv9GVImaX-46" value="" style="endArrow=classic;html=1;rounded=0;entryX=0;entryY=0.8;entryDx=0;entryDy=0;entryPerimeter=0;" parent="1" target="Af6eF92gB9gsv9GVImaX-40" edge="1">
          <mxGeometry width="50" height="50" relative="1" as="geometry">
            <mxPoint x="1390" y="440" as="sourcePoint" />
            <mxPoint x="1410" y="500" as="targetPoint" />
            <Array as="points">
              <mxPoint x="1390" y="540" />
            </Array>
          </mxGeometry>
        </mxCell>
        <mxCell id="Af6eF92gB9gsv9GVImaX-36" value="&lt;b&gt;MUX&lt;/b&gt;" style="rounded=0;whiteSpace=wrap;html=1;fillColor=#dae8fc;strokeColor=#6c8ebf;" parent="1" vertex="1">
          <mxGeometry x="1310" y="410" width="40" height="59" as="geometry" />
        </mxCell>
        <mxCell id="Af6eF92gB9gsv9GVImaX-31" value="MUX&lt;br&gt;" style="rounded=0;whiteSpace=wrap;html=1;fillColor=#dae8fc;strokeColor=#6c8ebf;fontStyle=1" parent="1" vertex="1">
          <mxGeometry x="1310" y="240" width="40" height="60" as="geometry" />
        </mxCell>
        <mxCell id="Af6eF92gB9gsv9GVImaX-47" value="" style="endArrow=classic;html=1;rounded=0;entryX=0;entryY=0.8;entryDx=0;entryDy=0;entryPerimeter=0;" parent="1" target="Af6eF92gB9gsv9GVImaX-39" edge="1">
          <mxGeometry width="50" height="50" relative="1" as="geometry">
            <mxPoint x="1380" y="440" as="sourcePoint" />
            <mxPoint x="1400" y="450" as="targetPoint" />
          </mxGeometry>
        </mxCell>
        <mxCell id="Af6eF92gB9gsv9GVImaX-48" value="" style="shape=waypoint;sketch=0;size=6;pointerEvents=1;points=[];fillColor=none;resizable=0;rotatable=0;perimeter=centerPerimeter;snapToPoint=1;strokeWidth=0;" parent="1" vertex="1">
          <mxGeometry x="1360" y="400" width="20" height="20" as="geometry" />
        </mxCell>
        <mxCell id="Af6eF92gB9gsv9GVImaX-50" value="" style="shape=waypoint;sketch=0;size=6;pointerEvents=1;points=[];fillColor=none;resizable=0;rotatable=0;perimeter=centerPerimeter;snapToPoint=1;strokeWidth=0;" parent="1" vertex="1">
          <mxGeometry x="1380" y="429.5" width="20" height="20" as="geometry" />
        </mxCell>
        <mxCell id="Af6eF92gB9gsv9GVImaX-57" value="" style="endArrow=classic;html=1;rounded=0;entryX=0;entryY=0.837;entryDx=0;entryDy=0;entryPerimeter=0;exitX=0.998;exitY=0.495;exitDx=0;exitDy=0;exitPerimeter=0;" parent="1" target="Af6eF92gB9gsv9GVImaX-31" edge="1">
          <mxGeometry width="50" height="50" relative="1" as="geometry">
            <mxPoint x="1219.92" y="290.2049999999999" as="sourcePoint" />
            <mxPoint x="1270" y="290" as="targetPoint" />
            <Array as="points" />
          </mxGeometry>
        </mxCell>
        <mxCell id="Af6eF92gB9gsv9GVImaX-59" value="" style="endArrow=classic;html=1;rounded=0;exitX=1.006;exitY=0.419;exitDx=0;exitDy=0;exitPerimeter=0;" parent="1" edge="1">
          <mxGeometry width="50" height="50" relative="1" as="geometry">
            <mxPoint x="1080.48" y="309.5000000000002" as="sourcePoint" />
            <mxPoint x="1220" y="290" as="targetPoint" />
            <Array as="points">
              <mxPoint x="1120" y="310" />
              <mxPoint x="1120" y="290" />
            </Array>
          </mxGeometry>
        </mxCell>
        <mxCell id="Af6eF92gB9gsv9GVImaX-65" value="" style="endArrow=classic;html=1;rounded=0;exitX=1.004;exitY=0.3;exitDx=0;exitDy=0;entryX=0;entryY=0.167;entryDx=0;entryDy=0;entryPerimeter=0;exitPerimeter=0;" parent="1" target="Af6eF92gB9gsv9GVImaX-31" edge="1">
          <mxGeometry width="50" height="50" relative="1" as="geometry">
            <mxPoint x="1080.3200000000002" y="250" as="sourcePoint" />
            <mxPoint x="1220" y="180" as="targetPoint" />
            <Array as="points">
              <mxPoint x="1240" y="250" />
            </Array>
          </mxGeometry>
        </mxCell>
        <mxCell id="Af6eF92gB9gsv9GVImaX-75" value="" style="endArrow=classic;html=1;rounded=0;exitX=1;exitY=0.286;exitDx=0;exitDy=0;exitPerimeter=0;" parent="1" edge="1">
          <mxGeometry width="50" height="50" relative="1" as="geometry">
            <mxPoint x="1570" y="425.76" as="sourcePoint" />
            <mxPoint x="1810" y="426" as="targetPoint" />
          </mxGeometry>
        </mxCell>
        <mxCell id="Af6eF92gB9gsv9GVImaX-76" value="" style="endArrow=classic;html=1;rounded=0;exitX=1;exitY=0.286;exitDx=0;exitDy=0;exitPerimeter=0;" parent="1" edge="1">
          <mxGeometry width="50" height="50" relative="1" as="geometry">
            <mxPoint x="1570" y="524.76" as="sourcePoint" />
            <mxPoint x="1810" y="525" as="targetPoint" />
          </mxGeometry>
        </mxCell>
        <mxCell id="Af6eF92gB9gsv9GVImaX-82" value="" style="endArrow=classic;html=1;rounded=0;" parent="1" edge="1">
          <mxGeometry width="50" height="50" relative="1" as="geometry">
            <mxPoint x="1520" y="300" as="sourcePoint" />
            <mxPoint x="1680" y="300" as="targetPoint" />
          </mxGeometry>
        </mxCell>
        <mxCell id="Af6eF92gB9gsv9GVImaX-84" value="" style="endArrow=classic;html=1;rounded=0;exitX=1;exitY=0.5;exitDx=0;exitDy=0;entryX=0;entryY=0.125;entryDx=0;entryDy=0;entryPerimeter=0;" parent="1" source="Af6eF92gB9gsv9GVImaX-31" target="Af6eF92gB9gsv9GVImaX-38" edge="1">
          <mxGeometry width="50" height="50" relative="1" as="geometry">
            <mxPoint x="1330" y="290" as="sourcePoint" />
            <mxPoint x="1420" y="272" as="targetPoint" />
            <Array as="points" />
          </mxGeometry>
        </mxCell>
        <mxCell id="Af6eF92gB9gsv9GVImaX-85" value="" style="endArrow=classic;html=1;rounded=0;exitX=1.002;exitY=0.508;exitDx=0;exitDy=0;exitPerimeter=0;" parent="1" source="Af6eF92gB9gsv9GVImaX-36" edge="1">
          <mxGeometry width="50" height="50" relative="1" as="geometry">
            <mxPoint x="1360" y="440" as="sourcePoint" />
            <mxPoint x="1420" y="330" as="targetPoint" />
            <Array as="points">
              <mxPoint x="1390" y="440" />
              <mxPoint x="1390" y="330" />
            </Array>
          </mxGeometry>
        </mxCell>
        <mxCell id="Af6eF92gB9gsv9GVImaX-89" value="ADD 4" style="rounded=0;whiteSpace=wrap;html=1;fontStyle=1;fillColor=#dae8fc;strokeColor=#6c8ebf;" parent="1" vertex="1">
          <mxGeometry x="360" y="170" width="40" height="40" as="geometry" />
        </mxCell>
        <mxCell id="Af6eF92gB9gsv9GVImaX-91" value="" style="endArrow=classic;html=1;rounded=0;entryX=0;entryY=0.5;entryDx=0;entryDy=0;" parent="1" target="Af6eF92gB9gsv9GVImaX-89" edge="1">
          <mxGeometry width="50" height="50" relative="1" as="geometry">
            <mxPoint x="310" y="320" as="sourcePoint" />
            <mxPoint x="310" y="290" as="targetPoint" />
            <Array as="points">
              <mxPoint x="310" y="260" />
              <mxPoint x="310" y="190" />
            </Array>
          </mxGeometry>
        </mxCell>
        <mxCell id="Af6eF92gB9gsv9GVImaX-92" value="" style="endArrow=classic;html=1;rounded=0;" parent="1" edge="1">
          <mxGeometry width="50" height="50" relative="1" as="geometry">
            <mxPoint x="310" y="250" as="sourcePoint" />
            <mxPoint x="640" y="250" as="targetPoint" />
          </mxGeometry>
        </mxCell>
        <mxCell id="Af6eF92gB9gsv9GVImaX-93" value="" style="endArrow=classic;html=1;rounded=0;exitX=1;exitY=0.5;exitDx=0;exitDy=0;" parent="1" source="Af6eF92gB9gsv9GVImaX-89" edge="1">
          <mxGeometry width="50" height="50" relative="1" as="geometry">
            <mxPoint x="420" y="270" as="sourcePoint" />
            <mxPoint x="640" y="190" as="targetPoint" />
          </mxGeometry>
        </mxCell>
        <mxCell id="Af6eF92gB9gsv9GVImaX-94" value="" style="shape=waypoint;sketch=0;size=6;pointerEvents=1;points=[];fillColor=none;resizable=0;rotatable=0;perimeter=centerPerimeter;snapToPoint=1;strokeWidth=0;" parent="1" vertex="1">
          <mxGeometry x="300" y="240" width="20" height="20" as="geometry" />
        </mxCell>
        <mxCell id="Af6eF92gB9gsv9GVImaX-95" value="" style="shape=waypoint;sketch=0;size=6;pointerEvents=1;points=[];fillColor=none;resizable=0;rotatable=0;perimeter=centerPerimeter;snapToPoint=1;strokeWidth=0;" parent="1" vertex="1">
          <mxGeometry x="300" y="310" width="20" height="20" as="geometry" />
        </mxCell>
        <mxCell id="Af6eF92gB9gsv9GVImaX-96" value="" style="endArrow=classic;html=1;rounded=0;" parent="1" edge="1">
          <mxGeometry width="50" height="50" relative="1" as="geometry">
            <mxPoint x="440" y="190" as="sourcePoint" />
            <mxPoint x="160" y="320" as="targetPoint" />
            <Array as="points">
              <mxPoint x="440" y="150" />
              <mxPoint x="80" y="150" />
              <mxPoint x="80" y="320" />
            </Array>
          </mxGeometry>
        </mxCell>
        <mxCell id="Af6eF92gB9gsv9GVImaX-97" value="" style="shape=waypoint;sketch=0;size=6;pointerEvents=1;points=[];fillColor=none;resizable=0;rotatable=0;perimeter=centerPerimeter;snapToPoint=1;strokeWidth=0;" parent="1" vertex="1">
          <mxGeometry x="430" y="180" width="20" height="20" as="geometry" />
        </mxCell>
        <mxCell id="Af6eF92gB9gsv9GVImaX-98" value="" style="shape=waypoint;sketch=0;size=6;pointerEvents=1;points=[];fillColor=none;resizable=0;rotatable=0;perimeter=centerPerimeter;snapToPoint=1;strokeWidth=0;" parent="1" vertex="1">
          <mxGeometry x="1550" y="290" width="20" height="20" as="geometry" />
        </mxCell>
        <mxCell id="Af6eF92gB9gsv9GVImaX-99" value="" style="shape=waypoint;sketch=0;size=6;pointerEvents=1;points=[];fillColor=none;resizable=0;rotatable=0;perimeter=centerPerimeter;snapToPoint=1;strokeWidth=0;" parent="1" vertex="1">
          <mxGeometry x="760" y="390" width="20" height="20" as="geometry" />
        </mxCell>
        <mxCell id="Af6eF92gB9gsv9GVImaX-100" value="" style="endArrow=classic;html=1;rounded=0;exitX=1;exitY=0.224;exitDx=0;exitDy=0;exitPerimeter=0;" parent="1" edge="1">
          <mxGeometry width="50" height="50" relative="1" as="geometry">
            <mxPoint x="640" y="249.60000000000014" as="sourcePoint" />
            <mxPoint x="1080" y="250" as="targetPoint" />
          </mxGeometry>
        </mxCell>
        <mxCell id="Af6eF92gB9gsv9GVImaX-101" value="" style="endArrow=classic;html=1;rounded=0;exitX=1;exitY=0.224;exitDx=0;exitDy=0;exitPerimeter=0;" parent="1" edge="1">
          <mxGeometry width="50" height="50" relative="1" as="geometry">
            <mxPoint x="640" y="190.62" as="sourcePoint" />
            <mxPoint x="1080" y="191" as="targetPoint" />
          </mxGeometry>
        </mxCell>
        <mxCell id="Af6eF92gB9gsv9GVImaX-102" value="" style="endArrow=classic;html=1;rounded=0;" parent="1" edge="1">
          <mxGeometry width="50" height="50" relative="1" as="geometry">
            <mxPoint x="1080" y="190" as="sourcePoint" />
            <mxPoint x="1680" y="190" as="targetPoint" />
            <Array as="points">
              <mxPoint x="1230" y="190" />
            </Array>
          </mxGeometry>
        </mxCell>
        <mxCell id="Af6eF92gB9gsv9GVImaX-112" value="" style="endArrow=classic;html=1;rounded=0;entryX=0;entryY=0.4;entryDx=0;entryDy=0;entryPerimeter=0;exitX=1;exitY=0.714;exitDx=0;exitDy=0;exitPerimeter=0;" parent="1" edge="1">
          <mxGeometry width="50" height="50" relative="1" as="geometry">
            <mxPoint x="1680" y="299.91999999999996" as="sourcePoint" />
            <mxPoint x="2040" y="300" as="targetPoint" />
          </mxGeometry>
        </mxCell>
        <mxCell id="Af6eF92gB9gsv9GVImaX-114" value="" style="endArrow=classic;html=1;rounded=0;entryX=0;entryY=0.18;entryDx=0;entryDy=0;entryPerimeter=0;exitX=1;exitY=0.321;exitDx=0;exitDy=0;exitPerimeter=0;" parent="1" edge="1">
          <mxGeometry width="50" height="50" relative="1" as="geometry">
            <mxPoint x="1680" y="189.88" as="sourcePoint" />
            <mxPoint x="2040" y="190" as="targetPoint" />
          </mxGeometry>
        </mxCell>
        <mxCell id="Af6eF92gB9gsv9GVImaX-117" value="" style="shape=waypoint;sketch=0;size=6;pointerEvents=1;points=[];fillColor=none;resizable=0;rotatable=0;perimeter=centerPerimeter;snapToPoint=1;strokeWidth=0;" parent="1" vertex="1">
          <mxGeometry x="1830" y="290" width="20" height="20" as="geometry" />
        </mxCell>
        <mxCell id="Af6eF92gB9gsv9GVImaX-124" value="" style="endArrow=classic;html=1;rounded=0;exitX=1;exitY=0.5;exitDx=0;exitDy=0;entryX=0;entryY=0.85;entryDx=0;entryDy=0;entryPerimeter=0;" parent="1" edge="1">
          <mxGeometry width="50" height="50" relative="1" as="geometry">
            <mxPoint x="1810" y="525" as="sourcePoint" />
            <mxPoint x="2040" y="525" as="targetPoint" />
          </mxGeometry>
        </mxCell>
        <mxCell id="Af6eF92gB9gsv9GVImaX-125" value="" style="endArrow=classic;html=1;rounded=0;exitX=1.008;exitY=0.424;exitDx=0;exitDy=0;exitPerimeter=0;" parent="1" edge="1">
          <mxGeometry width="50" height="50" relative="1" as="geometry">
            <mxPoint x="1811" y="424.74" as="sourcePoint" />
            <mxPoint x="2040" y="424.74" as="targetPoint" />
          </mxGeometry>
        </mxCell>
        <mxCell id="Af6eF92gB9gsv9GVImaX-126" value="&lt;b&gt;MUX&lt;/b&gt;" style="rounded=0;whiteSpace=wrap;html=1;fillColor=#dae8fc;strokeColor=#6c8ebf;" parent="1" vertex="1">
          <mxGeometry x="2240" y="280" width="40" height="160" as="geometry" />
        </mxCell>
        <mxCell id="Af6eF92gB9gsv9GVImaX-127" value="WB_Sel" style="text;html=1;align=center;verticalAlign=middle;resizable=0;points=[];autosize=1;strokeColor=none;fillColor=none;" parent="1" vertex="1">
          <mxGeometry x="2225" y="440" width="70" height="30" as="geometry" />
        </mxCell>
        <mxCell id="Af6eF92gB9gsv9GVImaX-128" value="" style="endArrow=classic;html=1;rounded=0;entryX=0;entryY=0.25;entryDx=0;entryDy=0;" parent="1" target="Af6eF92gB9gsv9GVImaX-126" edge="1">
          <mxGeometry width="50" height="50" relative="1" as="geometry">
            <mxPoint x="2030" y="190" as="sourcePoint" />
            <mxPoint x="2240" y="300" as="targetPoint" />
            <Array as="points">
              <mxPoint x="2200" y="190" />
              <mxPoint x="2200" y="320" />
            </Array>
          </mxGeometry>
        </mxCell>
        <mxCell id="Af6eF92gB9gsv9GVImaX-129" value="" style="endArrow=classic;html=1;rounded=0;entryX=0;entryY=0.375;entryDx=0;entryDy=0;entryPerimeter=0;" parent="1" target="Af6eF92gB9gsv9GVImaX-126" edge="1">
          <mxGeometry width="50" height="50" relative="1" as="geometry">
            <mxPoint x="2040" y="300" as="sourcePoint" />
            <mxPoint x="2380" y="100" as="targetPoint" />
            <Array as="points">
              <mxPoint x="2180" y="300" />
              <mxPoint x="2180" y="340" />
            </Array>
          </mxGeometry>
        </mxCell>
        <mxCell id="Af6eF92gB9gsv9GVImaX-130" value="" style="endArrow=classic;html=1;rounded=0;" parent="1" edge="1">
          <mxGeometry width="50" height="50" relative="1" as="geometry">
            <mxPoint x="2040" y="170" as="sourcePoint" />
            <mxPoint x="2340" y="700" as="targetPoint" />
            <Array as="points">
              <mxPoint x="2160" y="170" />
              <mxPoint x="2340" y="170" />
            </Array>
          </mxGeometry>
        </mxCell>
        <mxCell id="Af6eF92gB9gsv9GVImaX-131" value="" style="endArrow=classic;html=1;rounded=0;entryX=0;entryY=0.625;entryDx=0;entryDy=0;entryPerimeter=0;" parent="1" target="Af6eF92gB9gsv9GVImaX-126" edge="1">
          <mxGeometry width="50" height="50" relative="1" as="geometry">
            <mxPoint x="2030" y="425" as="sourcePoint" />
            <mxPoint x="2237.92" y="385.15999999999997" as="targetPoint" />
            <Array as="points">
              <mxPoint x="2180" y="425" />
              <mxPoint x="2180" y="380" />
            </Array>
          </mxGeometry>
        </mxCell>
        <mxCell id="Af6eF92gB9gsv9GVImaX-132" value="" style="endArrow=classic;html=1;rounded=0;entryX=0;entryY=0.75;entryDx=0;entryDy=0;" parent="1" target="Af6eF92gB9gsv9GVImaX-126" edge="1">
          <mxGeometry width="50" height="50" relative="1" as="geometry">
            <mxPoint x="2030" y="525" as="sourcePoint" />
            <mxPoint x="2240" y="480" as="targetPoint" />
            <Array as="points">
              <mxPoint x="2200" y="525" />
              <mxPoint x="2200" y="400" />
            </Array>
          </mxGeometry>
        </mxCell>
        <mxCell id="Af6eF92gB9gsv9GVImaX-134" value="" style="endArrow=classic;html=1;rounded=0;exitX=1;exitY=0.5;exitDx=0;exitDy=0;" parent="1" source="Af6eF92gB9gsv9GVImaX-126" edge="1">
          <mxGeometry width="50" height="50" relative="1" as="geometry">
            <mxPoint x="2240" y="660" as="sourcePoint" />
            <mxPoint x="2320" y="680" as="targetPoint" />
            <Array as="points">
              <mxPoint x="2320" y="360" />
            </Array>
          </mxGeometry>
        </mxCell>
        <mxCell id="Af6eF92gB9gsv9GVImaX-137" value="" style="endArrow=classic;html=1;rounded=0;entryX=0;entryY=0.857;entryDx=0;entryDy=0;entryPerimeter=0;" parent="1" target="Af6eF92gB9gsv9GVImaX-18" edge="1">
          <mxGeometry width="50" height="50" relative="1" as="geometry">
            <mxPoint x="2320.459826239224" y="680" as="sourcePoint" />
            <mxPoint x="670" y="630" as="targetPoint" />
            <Array as="points">
              <mxPoint x="810" y="680" />
              <mxPoint x="810" y="470" />
            </Array>
          </mxGeometry>
        </mxCell>
        <mxCell id="Af6eF92gB9gsv9GVImaX-141" value="GR[rj]" style="text;html=1;strokeColor=none;fillColor=none;align=center;verticalAlign=middle;whiteSpace=wrap;rounded=0;fontStyle=1" parent="1" vertex="1">
          <mxGeometry x="939.5" y="293" width="30" height="20" as="geometry" />
        </mxCell>
        <mxCell id="Af6eF92gB9gsv9GVImaX-142" value="GR[rk]/GR[rd]" style="text;html=1;strokeColor=none;fillColor=none;align=center;verticalAlign=middle;whiteSpace=wrap;rounded=0;fontStyle=1" parent="1" vertex="1">
          <mxGeometry x="930" y="380" width="49" height="20" as="geometry" />
        </mxCell>
        <mxCell id="Af6eF92gB9gsv9GVImaX-143" value="" style="endArrow=classic;html=1;rounded=0;strokeColor=#000000;" parent="1" edge="1">
          <mxGeometry width="50" height="50" relative="1" as="geometry">
            <mxPoint x="750" y="310" as="sourcePoint" />
            <mxPoint x="1080" y="170" as="targetPoint" />
            <Array as="points">
              <mxPoint x="770" y="310" />
              <mxPoint x="770" y="170" />
            </Array>
          </mxGeometry>
        </mxCell>
        <mxCell id="Af6eF92gB9gsv9GVImaX-145" value="" style="endArrow=classic;html=1;rounded=0;exitX=0.997;exitY=0.14;exitDx=0;exitDy=0;exitPerimeter=0;strokeColor=#000000;" parent="1" edge="1">
          <mxGeometry width="50" height="50" relative="1" as="geometry">
            <mxPoint x="1079.7600000000002" y="170" as="sourcePoint" />
            <mxPoint x="1680" y="170" as="targetPoint" />
          </mxGeometry>
        </mxCell>
        <mxCell id="Af6eF92gB9gsv9GVImaX-146" value="" style="endArrow=classic;html=1;rounded=0;exitX=1.002;exitY=0.668;exitDx=0;exitDy=0;exitPerimeter=0;strokeColor=#000000;" parent="1" edge="1">
          <mxGeometry width="50" height="50" relative="1" as="geometry">
            <mxPoint x="1680" y="170" as="sourcePoint" />
            <mxPoint x="2040" y="170" as="targetPoint" />
          </mxGeometry>
        </mxCell>
        <mxCell id="Af6eF92gB9gsv9GVImaX-154" value="" style="shape=waypoint;sketch=0;size=6;pointerEvents=1;points=[];fillColor=none;resizable=0;rotatable=0;perimeter=centerPerimeter;snapToPoint=1;strokeWidth=0;strokeColor=#3399FF;" parent="1" vertex="1">
          <mxGeometry x="1090" y="160" width="20" height="20" as="geometry" />
        </mxCell>
        <mxCell id="Af6eF92gB9gsv9GVImaX-156" value="" style="shape=waypoint;sketch=0;size=6;pointerEvents=1;points=[];fillColor=none;resizable=0;rotatable=0;perimeter=centerPerimeter;snapToPoint=1;strokeWidth=0;strokeColor=#3399FF;" parent="1" vertex="1">
          <mxGeometry x="760" y="160" width="20" height="20" as="geometry" />
        </mxCell>
        <mxCell id="Af6eF92gB9gsv9GVImaX-158" value="GR[rj]&lt;br style=&quot;font-size: 7px;&quot;&gt;/PC" style="text;html=1;strokeColor=none;fillColor=none;align=center;verticalAlign=middle;whiteSpace=wrap;rounded=0;fontStyle=1;fontSize=7;" parent="1" vertex="1">
          <mxGeometry x="1315" y="280.5" width="30" height="20" as="geometry" />
        </mxCell>
        <mxCell id="Af6eF92gB9gsv9GVImaX-159" value="GR[rk]/GR[rd]&lt;br style=&quot;font-size: 5px;&quot;&gt;/imm" style="text;html=1;strokeColor=none;fillColor=none;align=center;verticalAlign=middle;whiteSpace=wrap;rounded=0;fontStyle=1;fontSize=5;" parent="1" vertex="1">
          <mxGeometry x="1317.5" y="453" width="25" height="9" as="geometry" />
        </mxCell>
        <mxCell id="Af6eF92gB9gsv9GVImaX-160" value="RF_waddr" style="text;html=1;strokeColor=none;fillColor=none;align=center;verticalAlign=middle;whiteSpace=wrap;rounded=0;fontStyle=1" parent="1" vertex="1">
          <mxGeometry x="2101.5" y="698" width="40" height="20" as="geometry" />
        </mxCell>
        <mxCell id="Af6eF92gB9gsv9GVImaX-172" value="RF_din" style="text;html=1;strokeColor=none;fillColor=none;align=center;verticalAlign=middle;whiteSpace=wrap;rounded=0;fontStyle=1" parent="1" vertex="1">
          <mxGeometry x="2107" y="660" width="29" height="20" as="geometry" />
        </mxCell>
        <mxCell id="Af6eF92gB9gsv9GVImaX-190" value="" style="shape=waypoint;sketch=0;size=6;pointerEvents=1;points=[];fillColor=none;resizable=0;rotatable=0;perimeter=centerPerimeter;snapToPoint=1;strokeWidth=0;" parent="1" vertex="1">
          <mxGeometry x="1250" y="280" width="20" height="20" as="geometry" />
        </mxCell>
        <mxCell id="Af6eF92gB9gsv9GVImaX-192" value="" style="shape=waypoint;sketch=0;size=6;pointerEvents=1;points=[];fillColor=none;resizable=0;rotatable=0;perimeter=centerPerimeter;snapToPoint=1;strokeWidth=0;" parent="1" vertex="1">
          <mxGeometry x="1270" y="410.5" width="20" height="20" as="geometry" />
        </mxCell>
        <mxCell id="E-aEBJzv57lBiL56rMNJ-2" value="" style="endArrow=classic;html=1;rounded=0;exitX=1.005;exitY=0.488;exitDx=0;exitDy=0;entryX=0;entryY=0.169;entryDx=0;entryDy=0;entryPerimeter=0;exitPerimeter=0;" parent="1" target="Af6eF92gB9gsv9GVImaX-36" edge="1">
          <mxGeometry width="50" height="50" relative="1" as="geometry">
            <mxPoint x="1220.1999999999998" y="419.7919999999999" as="sourcePoint" />
            <mxPoint x="1340" y="350" as="targetPoint" />
          </mxGeometry>
        </mxCell>
        <mxCell id="E-aEBJzv57lBiL56rMNJ-5" value="" style="shape=waypoint;sketch=0;size=6;pointerEvents=1;points=[];fillColor=none;resizable=0;rotatable=0;perimeter=centerPerimeter;snapToPoint=1;strokeWidth=0;" parent="1" vertex="1">
          <mxGeometry x="1270" y="360" width="20" height="20" as="geometry" />
        </mxCell>
        <mxCell id="E-aEBJzv57lBiL56rMNJ-6" value="" style="endArrow=classic;html=1;rounded=0;exitX=1.007;exitY=0.6;exitDx=0;exitDy=0;exitPerimeter=0;" parent="1" edge="1">
          <mxGeometry width="50" height="50" relative="1" as="geometry">
            <mxPoint x="1080.56" y="400" as="sourcePoint" />
            <mxPoint x="1220" y="420" as="targetPoint" />
            <Array as="points">
              <mxPoint x="1120" y="400" />
              <mxPoint x="1120" y="420" />
            </Array>
          </mxGeometry>
        </mxCell>
        <mxCell id="cl0XH91jL7pWerhAMvmy-1" value="IMM" style="text;html=1;strokeColor=none;fillColor=none;align=center;verticalAlign=middle;whiteSpace=wrap;rounded=0;fontStyle=1" parent="1" vertex="1">
          <mxGeometry x="740" y="441.5" width="30" height="20" as="geometry" />
        </mxCell>
        <mxCell id="cl0XH91jL7pWerhAMvmy-6" value="" style="endArrow=classic;html=1;rounded=0;entryX=0;entryY=0.847;entryDx=0;entryDy=0;entryPerimeter=0;exitX=1;exitY=0.92;exitDx=0;exitDy=0;exitPerimeter=0;" parent="1" target="Af6eF92gB9gsv9GVImaX-36" edge="1">
          <mxGeometry width="50" height="50" relative="1" as="geometry">
            <mxPoint x="1080" y="560" as="sourcePoint" />
            <mxPoint x="1190" y="540" as="targetPoint" />
            <Array as="points">
              <mxPoint x="1280" y="560" />
              <mxPoint x="1280" y="460" />
            </Array>
          </mxGeometry>
        </mxCell>
        <mxCell id="KvcFe8U6ZTAkRATW3uwT-1" value="PC&lt;br&gt;32b" style="rounded=0;whiteSpace=wrap;html=1;fontStyle=1;fillColor=#d5e8d4;strokeColor=#82b366;" parent="1" vertex="1">
          <mxGeometry x="720" y="1040" width="40" height="80" as="geometry" />
        </mxCell>
        <mxCell id="KvcFe8U6ZTAkRATW3uwT-2" value="ADD 4" style="rounded=0;whiteSpace=wrap;html=1;fontStyle=1;fillColor=#dae8fc;strokeColor=#6c8ebf;" parent="1" vertex="1">
          <mxGeometry x="660" y="940" width="40" height="40" as="geometry" />
        </mxCell>
        <mxCell id="KvcFe8U6ZTAkRATW3uwT-3" value="" style="endArrow=classic;html=1;rounded=0;exitX=1;exitY=0.5;exitDx=0;exitDy=0;entryX=1;entryY=0.5;entryDx=0;entryDy=0;" parent="1" source="KvcFe8U6ZTAkRATW3uwT-1" target="KvcFe8U6ZTAkRATW3uwT-2" edge="1">
          <mxGeometry width="50" height="50" relative="1" as="geometry">
            <mxPoint x="830" y="1090" as="sourcePoint" />
            <mxPoint x="880" y="1040" as="targetPoint" />
            <Array as="points">
              <mxPoint x="800" y="1080" />
              <mxPoint x="800" y="960" />
            </Array>
          </mxGeometry>
        </mxCell>
        <mxCell id="KvcFe8U6ZTAkRATW3uwT-5" value="DECODER" style="rounded=0;whiteSpace=wrap;html=1;fillColor=#dae8fc;strokeColor=#6c8ebf;fontStyle=1" parent="1" vertex="1">
          <mxGeometry x="1000" y="1040" width="80" height="80" as="geometry" />
        </mxCell>
        <mxCell id="KvcFe8U6ZTAkRATW3uwT-6" value="IM" style="rounded=0;whiteSpace=wrap;html=1;fillColor=#e1d5e7;strokeColor=#9673a6;fontStyle=1" parent="1" vertex="1">
          <mxGeometry x="839.5" y="1540" width="120" height="60" as="geometry" />
        </mxCell>
        <mxCell id="KvcFe8U6ZTAkRATW3uwT-7" value="" style="endArrow=classic;html=1;rounded=0;entryX=0.333;entryY=0;entryDx=0;entryDy=0;entryPerimeter=0;" parent="1" target="KvcFe8U6ZTAkRATW3uwT-6" edge="1">
          <mxGeometry width="50" height="50" relative="1" as="geometry">
            <mxPoint x="800" y="1080" as="sourcePoint" />
            <mxPoint x="950" y="1050" as="targetPoint" />
            <Array as="points">
              <mxPoint x="880" y="1080" />
            </Array>
          </mxGeometry>
        </mxCell>
        <mxCell id="KvcFe8U6ZTAkRATW3uwT-8" value="" style="endArrow=classic;html=1;rounded=0;entryX=0;entryY=0.5;entryDx=0;entryDy=0;exitX=0.671;exitY=0;exitDx=0;exitDy=0;exitPerimeter=0;" parent="1" source="KvcFe8U6ZTAkRATW3uwT-6" target="KvcFe8U6ZTAkRATW3uwT-5" edge="1">
          <mxGeometry width="50" height="50" relative="1" as="geometry">
            <mxPoint x="920" y="1240" as="sourcePoint" />
            <mxPoint x="1030" y="1170" as="targetPoint" />
            <Array as="points">
              <mxPoint x="920" y="1080" />
            </Array>
          </mxGeometry>
        </mxCell>
        <mxCell id="KvcFe8U6ZTAkRATW3uwT-9" value="" style="shape=waypoint;sketch=0;size=6;pointerEvents=1;points=[];fillColor=none;resizable=0;rotatable=0;perimeter=centerPerimeter;snapToPoint=1;" parent="1" vertex="1">
          <mxGeometry x="790" y="1070" width="20" height="20" as="geometry" />
        </mxCell>
        <mxCell id="KvcFe8U6ZTAkRATW3uwT-10" value="GLOBAL&lt;br&gt;REGFILE&lt;br&gt;&lt;br&gt;32x32b" style="rounded=0;whiteSpace=wrap;html=1;fontStyle=1;fillColor=#d5e8d4;strokeColor=#82b366;" parent="1" vertex="1">
          <mxGeometry x="1200" y="1040" width="80" height="210" as="geometry" />
        </mxCell>
        <mxCell id="KvcFe8U6ZTAkRATW3uwT-11" value="" style="endArrow=classic;html=1;rounded=0;exitX=1;exitY=0.5;exitDx=0;exitDy=0;entryX=0;entryY=0.19;entryDx=0;entryDy=0;entryPerimeter=0;" parent="1" source="KvcFe8U6ZTAkRATW3uwT-5" target="KvcFe8U6ZTAkRATW3uwT-10" edge="1">
          <mxGeometry width="50" height="50" relative="1" as="geometry">
            <mxPoint x="1100" y="940" as="sourcePoint" />
            <mxPoint x="1150" y="890" as="targetPoint" />
          </mxGeometry>
        </mxCell>
        <mxCell id="KvcFe8U6ZTAkRATW3uwT-12" value="rf_ra0" style="text;html=1;strokeColor=none;fillColor=none;align=center;verticalAlign=middle;whiteSpace=wrap;rounded=0;fontStyle=1" parent="1" vertex="1">
          <mxGeometry x="1167.5" y="1060" width="20" height="20" as="geometry" />
        </mxCell>
        <mxCell id="KvcFe8U6ZTAkRATW3uwT-13" value="" style="endArrow=classic;html=1;rounded=0;" parent="1" edge="1">
          <mxGeometry width="50" height="50" relative="1" as="geometry">
            <mxPoint x="1120" y="1080" as="sourcePoint" />
            <mxPoint x="1200" y="1140" as="targetPoint" />
            <Array as="points">
              <mxPoint x="1120" y="1140" />
            </Array>
          </mxGeometry>
        </mxCell>
        <mxCell id="KvcFe8U6ZTAkRATW3uwT-14" value="rf_ra1" style="text;html=1;strokeColor=none;fillColor=none;align=center;verticalAlign=middle;whiteSpace=wrap;rounded=0;fontStyle=1" parent="1" vertex="1">
          <mxGeometry x="1162.5" y="1125" width="30" height="10" as="geometry" />
        </mxCell>
        <mxCell id="KvcFe8U6ZTAkRATW3uwT-15" value="" style="endArrow=classic;html=1;rounded=0;entryX=0;entryY=0.762;entryDx=0;entryDy=0;entryPerimeter=0;" parent="1" target="KvcFe8U6ZTAkRATW3uwT-10" edge="1">
          <mxGeometry width="50" height="50" relative="1" as="geometry">
            <mxPoint x="1120" y="1140" as="sourcePoint" />
            <mxPoint x="1050" y="1190" as="targetPoint" />
            <Array as="points">
              <mxPoint x="1120" y="1200" />
            </Array>
          </mxGeometry>
        </mxCell>
        <mxCell id="KvcFe8U6ZTAkRATW3uwT-16" value="rf_wa" style="text;html=1;strokeColor=none;fillColor=none;align=center;verticalAlign=middle;whiteSpace=wrap;rounded=0;fontStyle=1" parent="1" vertex="1">
          <mxGeometry x="1160" y="1180" width="32.5" height="20" as="geometry" />
        </mxCell>
        <mxCell id="KvcFe8U6ZTAkRATW3uwT-17" value="" style="endArrow=classic;html=1;rounded=0;exitX=1;exitY=0.19;exitDx=0;exitDy=0;exitPerimeter=0;entryX=0;entryY=0.75;entryDx=0;entryDy=0;" parent="1" source="KvcFe8U6ZTAkRATW3uwT-10" target="KvcFe8U6ZTAkRATW3uwT-21" edge="1">
          <mxGeometry width="50" height="50" relative="1" as="geometry">
            <mxPoint x="1360" y="1100" as="sourcePoint" />
            <mxPoint x="1410" y="1050" as="targetPoint" />
            <Array as="points">
              <mxPoint x="1360" y="1080" />
              <mxPoint x="1360" y="1060" />
            </Array>
          </mxGeometry>
        </mxCell>
        <mxCell id="KvcFe8U6ZTAkRATW3uwT-18" value="rf_rd0" style="text;html=1;strokeColor=none;fillColor=none;align=center;verticalAlign=middle;whiteSpace=wrap;rounded=0;fontStyle=1" parent="1" vertex="1">
          <mxGeometry x="1300" y="1060" width="30" height="20" as="geometry" />
        </mxCell>
        <mxCell id="KvcFe8U6ZTAkRATW3uwT-19" value="rf_rd1" style="text;html=1;strokeColor=none;fillColor=none;align=center;verticalAlign=middle;whiteSpace=wrap;rounded=0;fontStyle=1" parent="1" vertex="1">
          <mxGeometry x="1290" y="1120" width="49" height="20" as="geometry" />
        </mxCell>
        <mxCell id="KvcFe8U6ZTAkRATW3uwT-20" value="&lt;b&gt;MUX&lt;/b&gt;" style="rounded=0;whiteSpace=wrap;html=1;fillColor=#dae8fc;strokeColor=#6c8ebf;" parent="1" vertex="1">
          <mxGeometry x="1440" y="1120" width="40" height="80" as="geometry" />
        </mxCell>
        <mxCell id="KvcFe8U6ZTAkRATW3uwT-21" value="MUX&lt;br&gt;" style="rounded=0;whiteSpace=wrap;html=1;fillColor=#dae8fc;strokeColor=#6c8ebf;fontStyle=1" parent="1" vertex="1">
          <mxGeometry x="1440" y="1000" width="40" height="80" as="geometry" />
        </mxCell>
        <mxCell id="KvcFe8U6ZTAkRATW3uwT-22" value="rf_rd0/pc" style="text;html=1;strokeColor=none;fillColor=none;align=center;verticalAlign=middle;whiteSpace=wrap;rounded=0;fontStyle=1;fontSize=7;" parent="1" vertex="1">
          <mxGeometry x="1445" y="1050" width="30" height="20" as="geometry" />
        </mxCell>
        <mxCell id="KvcFe8U6ZTAkRATW3uwT-23" value="&lt;font style=&quot;font-size: 7px;&quot;&gt;rf_rd1/imm&lt;/font&gt;" style="text;html=1;strokeColor=none;fillColor=none;align=center;verticalAlign=middle;whiteSpace=wrap;rounded=0;fontStyle=1;fontSize=5;" parent="1" vertex="1">
          <mxGeometry x="1447.5" y="1177" width="25" height="9" as="geometry" />
        </mxCell>
        <mxCell id="KvcFe8U6ZTAkRATW3uwT-24" value="" style="endArrow=classic;html=1;rounded=0;entryX=0;entryY=0.25;entryDx=0;entryDy=0;exitX=0;exitY=1;exitDx=0;exitDy=0;" parent="1" source="KvcFe8U6ZTAkRATW3uwT-33" target="KvcFe8U6ZTAkRATW3uwT-21" edge="1">
          <mxGeometry width="50" height="50" relative="1" as="geometry">
            <mxPoint x="800" y="1020" as="sourcePoint" />
            <mxPoint x="1000" y="900" as="targetPoint" />
            <Array as="points">
              <mxPoint x="800" y="1020" />
            </Array>
          </mxGeometry>
        </mxCell>
        <mxCell id="KvcFe8U6ZTAkRATW3uwT-26" value="ALU" style="rounded=0;whiteSpace=wrap;html=1;fontStyle=1;fillColor=#dae8fc;strokeColor=#6c8ebf;" parent="1" vertex="1">
          <mxGeometry x="1560" y="1070" width="120" height="60" as="geometry" />
        </mxCell>
        <mxCell id="KvcFe8U6ZTAkRATW3uwT-28" value="" style="endArrow=classic;html=1;rounded=0;exitX=1;exitY=0.5;exitDx=0;exitDy=0;entryX=0;entryY=0.167;entryDx=0;entryDy=0;entryPerimeter=0;" parent="1" source="KvcFe8U6ZTAkRATW3uwT-21" target="KvcFe8U6ZTAkRATW3uwT-26" edge="1">
          <mxGeometry width="50" height="50" relative="1" as="geometry">
            <mxPoint x="1470" y="1030" as="sourcePoint" />
            <mxPoint x="1520" y="980" as="targetPoint" />
            <Array as="points">
              <mxPoint x="1520" y="1040" />
              <mxPoint x="1520" y="1080" />
            </Array>
          </mxGeometry>
        </mxCell>
        <mxCell id="KvcFe8U6ZTAkRATW3uwT-29" value="" style="endArrow=classic;html=1;rounded=0;exitX=1;exitY=0.5;exitDx=0;exitDy=0;entryX=0;entryY=0.833;entryDx=0;entryDy=0;entryPerimeter=0;" parent="1" source="KvcFe8U6ZTAkRATW3uwT-20" target="KvcFe8U6ZTAkRATW3uwT-26" edge="1">
          <mxGeometry width="50" height="50" relative="1" as="geometry">
            <mxPoint x="1490" y="1140" as="sourcePoint" />
            <mxPoint x="1558" y="1130" as="targetPoint" />
            <Array as="points">
              <mxPoint x="1520" y="1160" />
              <mxPoint x="1520" y="1120" />
            </Array>
          </mxGeometry>
        </mxCell>
        <mxCell id="KvcFe8U6ZTAkRATW3uwT-30" value="" style="endArrow=classic;html=1;rounded=0;exitX=1;exitY=0.476;exitDx=0;exitDy=0;exitPerimeter=0;entryX=0;entryY=0.25;entryDx=0;entryDy=0;" parent="1" source="KvcFe8U6ZTAkRATW3uwT-10" target="KvcFe8U6ZTAkRATW3uwT-20" edge="1">
          <mxGeometry width="50" height="50" relative="1" as="geometry">
            <mxPoint x="1330" y="1160" as="sourcePoint" />
            <mxPoint x="1380" y="1110" as="targetPoint" />
          </mxGeometry>
        </mxCell>
        <mxCell id="KvcFe8U6ZTAkRATW3uwT-31" value="" style="endArrow=classic;html=1;rounded=0;entryX=0;entryY=0.75;entryDx=0;entryDy=0;" parent="1" target="KvcFe8U6ZTAkRATW3uwT-20" edge="1">
          <mxGeometry width="50" height="50" relative="1" as="geometry">
            <mxPoint x="1120" y="1200" as="sourcePoint" />
            <mxPoint x="1290" y="1290" as="targetPoint" />
            <Array as="points">
              <mxPoint x="1120" y="1280" />
              <mxPoint x="1400" y="1280" />
              <mxPoint x="1400" y="1180" />
            </Array>
          </mxGeometry>
        </mxCell>
        <mxCell id="KvcFe8U6ZTAkRATW3uwT-32" value="imm" style="text;html=1;strokeColor=none;fillColor=none;align=center;verticalAlign=middle;whiteSpace=wrap;rounded=0;fontStyle=1" parent="1" vertex="1">
          <mxGeometry x="1299.5" y="1260" width="30" height="20" as="geometry" />
        </mxCell>
        <mxCell id="KvcFe8U6ZTAkRATW3uwT-33" value="pc" style="text;html=1;strokeColor=none;fillColor=none;align=center;verticalAlign=middle;whiteSpace=wrap;rounded=0;fontStyle=1" parent="1" vertex="1">
          <mxGeometry x="800" y="1060" width="30" height="20" as="geometry" />
        </mxCell>
        <mxCell id="KvcFe8U6ZTAkRATW3uwT-37" value="alu_res" style="text;html=1;strokeColor=none;fillColor=none;align=center;verticalAlign=middle;whiteSpace=wrap;rounded=0;fontStyle=1" parent="1" vertex="1">
          <mxGeometry x="1720" y="1070" width="60" height="30" as="geometry" />
        </mxCell>
        <mxCell id="wtbYi6GZdxYj_9KWXV_w-1" value="PC" style="rounded=0;whiteSpace=wrap;html=1;fontStyle=1;fillColor=#d5e8d4;strokeColor=#82b366;" parent="1" vertex="1">
          <mxGeometry x="435" y="1850" width="40" height="80" as="geometry" />
        </mxCell>
        <mxCell id="wtbYi6GZdxYj_9KWXV_w-2" value="" style="endArrow=classic;html=1;rounded=0;entryX=0;entryY=0.125;entryDx=0;entryDy=0;entryPerimeter=0;" parent="1" target="wtbYi6GZdxYj_9KWXV_w-1" edge="1">
          <mxGeometry width="50" height="50" relative="1" as="geometry">
            <mxPoint x="395" y="1860" as="sourcePoint" />
            <mxPoint x="415" y="1820" as="targetPoint" />
          </mxGeometry>
        </mxCell>
        <mxCell id="wtbYi6GZdxYj_9KWXV_w-3" value="clk, rst" style="text;html=1;strokeColor=none;fillColor=none;align=center;verticalAlign=middle;whiteSpace=wrap;rounded=0;" parent="1" vertex="1">
          <mxGeometry x="355" y="1855" width="38" height="10" as="geometry" />
        </mxCell>
        <mxCell id="wtbYi6GZdxYj_9KWXV_w-4" value="" style="endArrow=classic;html=1;rounded=0;entryX=0;entryY=0.5;entryDx=0;entryDy=0;" parent="1" target="wtbYi6GZdxYj_9KWXV_w-1" edge="1">
          <mxGeometry width="50" height="50" relative="1" as="geometry">
            <mxPoint x="395" y="1890" as="sourcePoint" />
            <mxPoint x="425" y="1880" as="targetPoint" />
          </mxGeometry>
        </mxCell>
        <mxCell id="wtbYi6GZdxYj_9KWXV_w-5" value="en" style="text;html=1;strokeColor=none;fillColor=none;align=center;verticalAlign=middle;whiteSpace=wrap;rounded=0;" parent="1" vertex="1">
          <mxGeometry x="375" y="1886" width="20" height="5" as="geometry" />
        </mxCell>
        <mxCell id="wtbYi6GZdxYj_9KWXV_w-6" value="" style="endArrow=classic;html=1;rounded=0;entryX=0;entryY=0.875;entryDx=0;entryDy=0;entryPerimeter=0;strokeWidth=2;" parent="1" target="wtbYi6GZdxYj_9KWXV_w-1" edge="1">
          <mxGeometry width="50" height="50" relative="1" as="geometry">
            <mxPoint x="395" y="1920" as="sourcePoint" />
            <mxPoint x="435" y="1930" as="targetPoint" />
          </mxGeometry>
        </mxCell>
        <mxCell id="wtbYi6GZdxYj_9KWXV_w-7" value="npc" style="text;html=1;strokeColor=none;fillColor=none;align=center;verticalAlign=middle;whiteSpace=wrap;rounded=0;fontStyle=1" parent="1" vertex="1">
          <mxGeometry x="373" y="1915" width="17" height="10" as="geometry" />
        </mxCell>
        <mxCell id="wtbYi6GZdxYj_9KWXV_w-8" value="" style="endArrow=classic;html=1;rounded=0;entryX=0;entryY=0.875;entryDx=0;entryDy=0;entryPerimeter=0;strokeWidth=2;" parent="1" edge="1">
          <mxGeometry width="50" height="50" relative="1" as="geometry">
            <mxPoint x="475" y="1889.86" as="sourcePoint" />
            <mxPoint x="515" y="1889.86" as="targetPoint" />
          </mxGeometry>
        </mxCell>
        <mxCell id="wtbYi6GZdxYj_9KWXV_w-9" value="pc" style="text;html=1;strokeColor=none;fillColor=none;align=center;verticalAlign=middle;whiteSpace=wrap;rounded=0;fontStyle=1" parent="1" vertex="1">
          <mxGeometry x="520" y="1881" width="10" height="15" as="geometry" />
        </mxCell>
        <mxCell id="wtbYi6GZdxYj_9KWXV_w-12" value="" style="group" parent="1" vertex="1" connectable="0">
          <mxGeometry x="399.5" y="1908" width="15.5" height="22" as="geometry" />
        </mxCell>
        <mxCell id="wtbYi6GZdxYj_9KWXV_w-10" value="" style="endArrow=none;html=1;rounded=0;" parent="wtbYi6GZdxYj_9KWXV_w-12" edge="1">
          <mxGeometry width="50" height="50" relative="1" as="geometry">
            <mxPoint x="5.5" y="22" as="sourcePoint" />
            <mxPoint x="15.5" y="2" as="targetPoint" />
          </mxGeometry>
        </mxCell>
        <mxCell id="wtbYi6GZdxYj_9KWXV_w-11" value="32" style="text;html=1;strokeColor=none;fillColor=none;align=center;verticalAlign=middle;whiteSpace=wrap;rounded=0;fontSize=6;" parent="wtbYi6GZdxYj_9KWXV_w-12" vertex="1">
          <mxGeometry width="11" height="11" as="geometry" />
        </mxCell>
        <mxCell id="wtbYi6GZdxYj_9KWXV_w-13" value="" style="group" parent="1" vertex="1" connectable="0">
          <mxGeometry x="479" y="1878" width="15.5" height="22" as="geometry" />
        </mxCell>
        <mxCell id="wtbYi6GZdxYj_9KWXV_w-14" value="" style="endArrow=none;html=1;rounded=0;" parent="wtbYi6GZdxYj_9KWXV_w-13" edge="1">
          <mxGeometry width="50" height="50" relative="1" as="geometry">
            <mxPoint x="5.5" y="22" as="sourcePoint" />
            <mxPoint x="15.5" y="2" as="targetPoint" />
          </mxGeometry>
        </mxCell>
        <mxCell id="wtbYi6GZdxYj_9KWXV_w-15" value="32" style="text;html=1;strokeColor=none;fillColor=none;align=center;verticalAlign=middle;whiteSpace=wrap;rounded=0;fontSize=6;" parent="wtbYi6GZdxYj_9KWXV_w-13" vertex="1">
          <mxGeometry width="11" height="11" as="geometry" />
        </mxCell>
        <mxCell id="wtbYi6GZdxYj_9KWXV_w-16" value="DECODER" style="rounded=0;whiteSpace=wrap;html=1;fillColor=#dae8fc;strokeColor=#6c8ebf;fontStyle=1" parent="1" vertex="1">
          <mxGeometry x="400" y="2001" width="80" height="283" as="geometry" />
        </mxCell>
        <mxCell id="wtbYi6GZdxYj_9KWXV_w-19" value="inst" style="text;html=1;strokeColor=none;fillColor=none;align=center;verticalAlign=middle;whiteSpace=wrap;rounded=0;fontStyle=1" parent="1" vertex="1">
          <mxGeometry x="336" y="2136" width="17" height="10" as="geometry" />
        </mxCell>
        <mxCell id="wtbYi6GZdxYj_9KWXV_w-22" value="" style="endArrow=classic;html=1;rounded=0;entryX=0;entryY=0.875;entryDx=0;entryDy=0;entryPerimeter=0;strokeWidth=2;" parent="1" edge="1">
          <mxGeometry width="50" height="50" relative="1" as="geometry">
            <mxPoint x="480" y="2020.36" as="sourcePoint" />
            <mxPoint x="520" y="2020.36" as="targetPoint" />
          </mxGeometry>
        </mxCell>
        <mxCell id="wtbYi6GZdxYj_9KWXV_w-23" value="rf_ra0, rf_ra1, rf_wa" style="text;html=1;strokeColor=none;fillColor=none;align=center;verticalAlign=middle;whiteSpace=wrap;rounded=0;fontStyle=1" parent="1" vertex="1">
          <mxGeometry x="525" y="2011.5" width="115" height="15" as="geometry" />
        </mxCell>
        <mxCell id="wtbYi6GZdxYj_9KWXV_w-24" value="" style="group" parent="1" vertex="1" connectable="0">
          <mxGeometry x="484" y="2008.5" width="15.5" height="22" as="geometry" />
        </mxCell>
        <mxCell id="wtbYi6GZdxYj_9KWXV_w-25" value="" style="endArrow=none;html=1;rounded=0;" parent="wtbYi6GZdxYj_9KWXV_w-24" edge="1">
          <mxGeometry width="50" height="50" relative="1" as="geometry">
            <mxPoint x="5.5" y="22" as="sourcePoint" />
            <mxPoint x="15.5" y="2" as="targetPoint" />
          </mxGeometry>
        </mxCell>
        <mxCell id="wtbYi6GZdxYj_9KWXV_w-26" value="5" style="text;html=1;strokeColor=none;fillColor=none;align=center;verticalAlign=middle;whiteSpace=wrap;rounded=0;fontSize=6;" parent="wtbYi6GZdxYj_9KWXV_w-24" vertex="1">
          <mxGeometry width="11" height="11" as="geometry" />
        </mxCell>
        <mxCell id="wtbYi6GZdxYj_9KWXV_w-31" value="" style="endArrow=classic;html=1;rounded=0;exitX=1;exitY=0.25;exitDx=0;exitDy=0;" parent="1" edge="1">
          <mxGeometry width="50" height="50" relative="1" as="geometry">
            <mxPoint x="480" y="2091" as="sourcePoint" />
            <mxPoint x="520" y="2091" as="targetPoint" />
          </mxGeometry>
        </mxCell>
        <mxCell id="wtbYi6GZdxYj_9KWXV_w-32" value="rf_we" style="text;html=1;strokeColor=none;fillColor=none;align=center;verticalAlign=middle;whiteSpace=wrap;rounded=0;fontStyle=0" parent="1" vertex="1">
          <mxGeometry x="524" y="2080" width="35" height="20" as="geometry" />
        </mxCell>
        <mxCell id="wtbYi6GZdxYj_9KWXV_w-33" value="" style="endArrow=classic;html=1;rounded=0;entryX=0;entryY=0.875;entryDx=0;entryDy=0;entryPerimeter=0;strokeWidth=2;" parent="1" edge="1">
          <mxGeometry width="50" height="50" relative="1" as="geometry">
            <mxPoint x="480" y="2158" as="sourcePoint" />
            <mxPoint x="520" y="2158" as="targetPoint" />
          </mxGeometry>
        </mxCell>
        <mxCell id="wtbYi6GZdxYj_9KWXV_w-34" value="" style="group" parent="1" vertex="1" connectable="0">
          <mxGeometry x="484" y="2146" width="15.5" height="22" as="geometry" />
        </mxCell>
        <mxCell id="wtbYi6GZdxYj_9KWXV_w-35" value="" style="endArrow=none;html=1;rounded=0;" parent="wtbYi6GZdxYj_9KWXV_w-34" edge="1">
          <mxGeometry width="50" height="50" relative="1" as="geometry">
            <mxPoint x="5.5" y="22" as="sourcePoint" />
            <mxPoint x="15.5" y="2" as="targetPoint" />
          </mxGeometry>
        </mxCell>
        <mxCell id="wtbYi6GZdxYj_9KWXV_w-36" value="5" style="text;html=1;strokeColor=none;fillColor=none;align=center;verticalAlign=middle;whiteSpace=wrap;rounded=0;fontSize=6;" parent="wtbYi6GZdxYj_9KWXV_w-34" vertex="1">
          <mxGeometry width="11" height="11" as="geometry" />
        </mxCell>
        <mxCell id="wtbYi6GZdxYj_9KWXV_w-37" value="alu_op" style="text;html=1;strokeColor=none;fillColor=none;align=center;verticalAlign=middle;whiteSpace=wrap;rounded=0;fontStyle=1" parent="1" vertex="1">
          <mxGeometry x="524.5" y="2149.5" width="45" height="15" as="geometry" />
        </mxCell>
        <mxCell id="wtbYi6GZdxYj_9KWXV_w-38" value="" style="endArrow=classic;html=1;rounded=0;exitX=1;exitY=0.25;exitDx=0;exitDy=0;" parent="1" edge="1">
          <mxGeometry width="50" height="50" relative="1" as="geometry">
            <mxPoint x="480" y="2193.5" as="sourcePoint" />
            <mxPoint x="520" y="2193.5" as="targetPoint" />
          </mxGeometry>
        </mxCell>
        <mxCell id="wtbYi6GZdxYj_9KWXV_w-39" value="alu_src0_sel, alu_src1_sel" style="text;html=1;strokeColor=none;fillColor=none;align=center;verticalAlign=middle;whiteSpace=wrap;rounded=0;fontStyle=0" parent="1" vertex="1">
          <mxGeometry x="521" y="2184.5" width="153" height="15" as="geometry" />
        </mxCell>
        <mxCell id="wtbYi6GZdxYj_9KWXV_w-40" value="" style="endArrow=classic;html=1;rounded=0;entryX=0;entryY=0.875;entryDx=0;entryDy=0;entryPerimeter=0;strokeWidth=2;" parent="1" edge="1">
          <mxGeometry width="50" height="50" relative="1" as="geometry">
            <mxPoint x="480" y="2231.8599999999997" as="sourcePoint" />
            <mxPoint x="520" y="2231.8599999999997" as="targetPoint" />
          </mxGeometry>
        </mxCell>
        <mxCell id="wtbYi6GZdxYj_9KWXV_w-41" value="imm" style="text;html=1;strokeColor=none;fillColor=none;align=center;verticalAlign=middle;whiteSpace=wrap;rounded=0;fontStyle=1" parent="1" vertex="1">
          <mxGeometry x="527" y="2223" width="24" height="17" as="geometry" />
        </mxCell>
        <mxCell id="wtbYi6GZdxYj_9KWXV_w-42" value="" style="group" parent="1" vertex="1" connectable="0">
          <mxGeometry x="484" y="2220" width="15.5" height="22" as="geometry" />
        </mxCell>
        <mxCell id="wtbYi6GZdxYj_9KWXV_w-43" value="" style="endArrow=none;html=1;rounded=0;" parent="wtbYi6GZdxYj_9KWXV_w-42" edge="1">
          <mxGeometry width="50" height="50" relative="1" as="geometry">
            <mxPoint x="5.5" y="22" as="sourcePoint" />
            <mxPoint x="15.5" y="2" as="targetPoint" />
          </mxGeometry>
        </mxCell>
        <mxCell id="wtbYi6GZdxYj_9KWXV_w-44" value="32" style="text;html=1;strokeColor=none;fillColor=none;align=center;verticalAlign=middle;whiteSpace=wrap;rounded=0;fontSize=6;" parent="wtbYi6GZdxYj_9KWXV_w-42" vertex="1">
          <mxGeometry width="11" height="11" as="geometry" />
        </mxCell>
        <mxCell id="wtbYi6GZdxYj_9KWXV_w-45" value="REGFILE" style="rounded=0;whiteSpace=wrap;html=1;fontStyle=1;fillColor=#d5e8d4;strokeColor=#82b366;" parent="1" vertex="1">
          <mxGeometry x="440.5" y="2590" width="80" height="240" as="geometry" />
        </mxCell>
        <mxCell id="wtbYi6GZdxYj_9KWXV_w-46" value="" style="endArrow=classic;html=1;rounded=0;entryX=0;entryY=0.125;entryDx=0;entryDy=0;entryPerimeter=0;" parent="1" edge="1">
          <mxGeometry width="50" height="50" relative="1" as="geometry">
            <mxPoint x="400.5" y="2610" as="sourcePoint" />
            <mxPoint x="440.5" y="2610" as="targetPoint" />
          </mxGeometry>
        </mxCell>
        <mxCell id="wtbYi6GZdxYj_9KWXV_w-47" value="clk" style="text;html=1;strokeColor=none;fillColor=none;align=center;verticalAlign=middle;whiteSpace=wrap;rounded=0;" parent="1" vertex="1">
          <mxGeometry x="375.5" y="2605" width="20" height="10" as="geometry" />
        </mxCell>
        <mxCell id="wtbYi6GZdxYj_9KWXV_w-48" value="" style="endArrow=classic;html=1;rounded=0;entryX=0;entryY=0.875;entryDx=0;entryDy=0;entryPerimeter=0;strokeWidth=2;" parent="1" edge="1">
          <mxGeometry width="50" height="50" relative="1" as="geometry">
            <mxPoint x="400.5" y="2649.8599999999997" as="sourcePoint" />
            <mxPoint x="440.5" y="2649.8599999999997" as="targetPoint" />
          </mxGeometry>
        </mxCell>
        <mxCell id="wtbYi6GZdxYj_9KWXV_w-49" value="rf_wa" style="text;html=1;strokeColor=none;fillColor=none;align=center;verticalAlign=middle;whiteSpace=wrap;rounded=0;fontStyle=1" parent="1" vertex="1">
          <mxGeometry x="358" y="2721.5" width="35" height="15" as="geometry" />
        </mxCell>
        <mxCell id="wtbYi6GZdxYj_9KWXV_w-50" value="" style="group" parent="1" vertex="1" connectable="0">
          <mxGeometry x="404.5" y="2638" width="15.5" height="22" as="geometry" />
        </mxCell>
        <mxCell id="wtbYi6GZdxYj_9KWXV_w-51" value="" style="endArrow=none;html=1;rounded=0;" parent="wtbYi6GZdxYj_9KWXV_w-50" edge="1">
          <mxGeometry width="50" height="50" relative="1" as="geometry">
            <mxPoint x="5.5" y="22" as="sourcePoint" />
            <mxPoint x="15.5" y="2" as="targetPoint" />
          </mxGeometry>
        </mxCell>
        <mxCell id="wtbYi6GZdxYj_9KWXV_w-52" value="5" style="text;html=1;strokeColor=none;fillColor=none;align=center;verticalAlign=middle;whiteSpace=wrap;rounded=0;fontSize=6;" parent="wtbYi6GZdxYj_9KWXV_w-50" vertex="1">
          <mxGeometry width="11" height="11" as="geometry" />
        </mxCell>
        <mxCell id="wtbYi6GZdxYj_9KWXV_w-53" value="" style="endArrow=classic;html=1;rounded=0;entryX=0;entryY=0.875;entryDx=0;entryDy=0;entryPerimeter=0;strokeWidth=2;" parent="1" edge="1">
          <mxGeometry width="50" height="50" relative="1" as="geometry">
            <mxPoint x="400.5" y="2690.8599999999997" as="sourcePoint" />
            <mxPoint x="440.5" y="2690.8599999999997" as="targetPoint" />
          </mxGeometry>
        </mxCell>
        <mxCell id="wtbYi6GZdxYj_9KWXV_w-54" value="" style="group" parent="1" vertex="1" connectable="0">
          <mxGeometry x="404.5" y="2679" width="15.5" height="22" as="geometry" />
        </mxCell>
        <mxCell id="wtbYi6GZdxYj_9KWXV_w-55" value="" style="endArrow=none;html=1;rounded=0;" parent="wtbYi6GZdxYj_9KWXV_w-54" edge="1">
          <mxGeometry width="50" height="50" relative="1" as="geometry">
            <mxPoint x="5.5" y="22" as="sourcePoint" />
            <mxPoint x="15.5" y="2" as="targetPoint" />
          </mxGeometry>
        </mxCell>
        <mxCell id="wtbYi6GZdxYj_9KWXV_w-56" value="5" style="text;html=1;strokeColor=none;fillColor=none;align=center;verticalAlign=middle;whiteSpace=wrap;rounded=0;fontSize=6;" parent="wtbYi6GZdxYj_9KWXV_w-54" vertex="1">
          <mxGeometry width="11" height="11" as="geometry" />
        </mxCell>
        <mxCell id="wtbYi6GZdxYj_9KWXV_w-57" value="" style="endArrow=classic;html=1;rounded=0;entryX=0;entryY=0.875;entryDx=0;entryDy=0;entryPerimeter=0;strokeWidth=2;" parent="1" edge="1">
          <mxGeometry width="50" height="50" relative="1" as="geometry">
            <mxPoint x="400.5" y="2729.8599999999997" as="sourcePoint" />
            <mxPoint x="440.5" y="2729.8599999999997" as="targetPoint" />
          </mxGeometry>
        </mxCell>
        <mxCell id="wtbYi6GZdxYj_9KWXV_w-58" value="" style="group" parent="1" vertex="1" connectable="0">
          <mxGeometry x="404.5" y="2718" width="15.5" height="22" as="geometry" />
        </mxCell>
        <mxCell id="wtbYi6GZdxYj_9KWXV_w-59" value="" style="endArrow=none;html=1;rounded=0;" parent="wtbYi6GZdxYj_9KWXV_w-58" edge="1">
          <mxGeometry width="50" height="50" relative="1" as="geometry">
            <mxPoint x="5.5" y="22" as="sourcePoint" />
            <mxPoint x="15.5" y="2" as="targetPoint" />
          </mxGeometry>
        </mxCell>
        <mxCell id="wtbYi6GZdxYj_9KWXV_w-60" value="5" style="text;html=1;strokeColor=none;fillColor=none;align=center;verticalAlign=middle;whiteSpace=wrap;rounded=0;fontSize=6;" parent="wtbYi6GZdxYj_9KWXV_w-58" vertex="1">
          <mxGeometry width="11" height="11" as="geometry" />
        </mxCell>
        <mxCell id="wtbYi6GZdxYj_9KWXV_w-61" value="rf_ra0" style="text;html=1;strokeColor=none;fillColor=none;align=center;verticalAlign=middle;whiteSpace=wrap;rounded=0;fontStyle=1" parent="1" vertex="1">
          <mxGeometry x="358" y="2641.5" width="35" height="15" as="geometry" />
        </mxCell>
        <mxCell id="wtbYi6GZdxYj_9KWXV_w-62" value="rf_ra1" style="text;html=1;strokeColor=none;fillColor=none;align=center;verticalAlign=middle;whiteSpace=wrap;rounded=0;fontStyle=1" parent="1" vertex="1">
          <mxGeometry x="358" y="2682.5" width="35" height="15" as="geometry" />
        </mxCell>
        <mxCell id="wtbYi6GZdxYj_9KWXV_w-63" value="" style="endArrow=classic;html=1;rounded=0;entryX=0;entryY=0.875;entryDx=0;entryDy=0;entryPerimeter=0;strokeWidth=2;" parent="1" edge="1">
          <mxGeometry width="50" height="50" relative="1" as="geometry">
            <mxPoint x="400.5" y="2771" as="sourcePoint" />
            <mxPoint x="440.5" y="2771" as="targetPoint" />
          </mxGeometry>
        </mxCell>
        <mxCell id="wtbYi6GZdxYj_9KWXV_w-64" value="rf_wd" style="text;html=1;strokeColor=none;fillColor=none;align=center;verticalAlign=middle;whiteSpace=wrap;rounded=0;fontStyle=1" parent="1" vertex="1">
          <mxGeometry x="355.5" y="2762" width="40" height="16" as="geometry" />
        </mxCell>
        <mxCell id="wtbYi6GZdxYj_9KWXV_w-65" value="" style="group" parent="1" vertex="1" connectable="0">
          <mxGeometry x="405" y="2759" width="15.5" height="22" as="geometry" />
        </mxCell>
        <mxCell id="wtbYi6GZdxYj_9KWXV_w-66" value="" style="endArrow=none;html=1;rounded=0;" parent="wtbYi6GZdxYj_9KWXV_w-65" edge="1">
          <mxGeometry width="50" height="50" relative="1" as="geometry">
            <mxPoint x="5.5" y="22" as="sourcePoint" />
            <mxPoint x="15.5" y="2" as="targetPoint" />
          </mxGeometry>
        </mxCell>
        <mxCell id="wtbYi6GZdxYj_9KWXV_w-67" value="32" style="text;html=1;strokeColor=none;fillColor=none;align=center;verticalAlign=middle;whiteSpace=wrap;rounded=0;fontSize=6;" parent="wtbYi6GZdxYj_9KWXV_w-65" vertex="1">
          <mxGeometry width="11" height="11" as="geometry" />
        </mxCell>
        <mxCell id="wtbYi6GZdxYj_9KWXV_w-68" value="" style="endArrow=classic;html=1;rounded=0;entryX=0;entryY=0.5;entryDx=0;entryDy=0;" parent="1" edge="1">
          <mxGeometry width="50" height="50" relative="1" as="geometry">
            <mxPoint x="400.5" y="2810" as="sourcePoint" />
            <mxPoint x="440.5" y="2810" as="targetPoint" />
          </mxGeometry>
        </mxCell>
        <mxCell id="wtbYi6GZdxYj_9KWXV_w-69" value="rf_we" style="text;html=1;strokeColor=none;fillColor=none;align=center;verticalAlign=middle;whiteSpace=wrap;rounded=0;" parent="1" vertex="1">
          <mxGeometry x="358" y="2805" width="40" height="10" as="geometry" />
        </mxCell>
        <mxCell id="wtbYi6GZdxYj_9KWXV_w-70" value="" style="endArrow=classic;html=1;rounded=0;entryX=0;entryY=0.875;entryDx=0;entryDy=0;entryPerimeter=0;strokeWidth=2;" parent="1" edge="1">
          <mxGeometry width="50" height="50" relative="1" as="geometry">
            <mxPoint x="520.5" y="2650" as="sourcePoint" />
            <mxPoint x="560.5" y="2650" as="targetPoint" />
          </mxGeometry>
        </mxCell>
        <mxCell id="wtbYi6GZdxYj_9KWXV_w-71" value="rf_rd0" style="text;html=1;strokeColor=none;fillColor=none;align=center;verticalAlign=middle;whiteSpace=wrap;rounded=0;fontStyle=1" parent="1" vertex="1">
          <mxGeometry x="565.5" y="2641.5" width="40" height="16" as="geometry" />
        </mxCell>
        <mxCell id="wtbYi6GZdxYj_9KWXV_w-72" value="" style="group" parent="1" vertex="1" connectable="0">
          <mxGeometry x="525" y="2638" width="15.5" height="22" as="geometry" />
        </mxCell>
        <mxCell id="wtbYi6GZdxYj_9KWXV_w-73" value="" style="endArrow=none;html=1;rounded=0;" parent="wtbYi6GZdxYj_9KWXV_w-72" edge="1">
          <mxGeometry width="50" height="50" relative="1" as="geometry">
            <mxPoint x="5.5" y="22" as="sourcePoint" />
            <mxPoint x="15.5" y="2" as="targetPoint" />
          </mxGeometry>
        </mxCell>
        <mxCell id="wtbYi6GZdxYj_9KWXV_w-74" value="32" style="text;html=1;strokeColor=none;fillColor=none;align=center;verticalAlign=middle;whiteSpace=wrap;rounded=0;fontSize=6;" parent="wtbYi6GZdxYj_9KWXV_w-72" vertex="1">
          <mxGeometry width="11" height="11" as="geometry" />
        </mxCell>
        <mxCell id="wtbYi6GZdxYj_9KWXV_w-75" value="" style="endArrow=classic;html=1;rounded=0;entryX=0;entryY=0.875;entryDx=0;entryDy=0;entryPerimeter=0;strokeWidth=2;" parent="1" edge="1">
          <mxGeometry width="50" height="50" relative="1" as="geometry">
            <mxPoint x="520.5" y="2691" as="sourcePoint" />
            <mxPoint x="560.5" y="2691" as="targetPoint" />
          </mxGeometry>
        </mxCell>
        <mxCell id="wtbYi6GZdxYj_9KWXV_w-76" value="rf_rd1" style="text;html=1;strokeColor=none;fillColor=none;align=center;verticalAlign=middle;whiteSpace=wrap;rounded=0;fontStyle=1" parent="1" vertex="1">
          <mxGeometry x="565.5" y="2682.5" width="40" height="16" as="geometry" />
        </mxCell>
        <mxCell id="wtbYi6GZdxYj_9KWXV_w-77" value="" style="group" parent="1" vertex="1" connectable="0">
          <mxGeometry x="525" y="2679" width="15.5" height="22" as="geometry" />
        </mxCell>
        <mxCell id="wtbYi6GZdxYj_9KWXV_w-78" value="" style="endArrow=none;html=1;rounded=0;" parent="wtbYi6GZdxYj_9KWXV_w-77" edge="1">
          <mxGeometry width="50" height="50" relative="1" as="geometry">
            <mxPoint x="5.5" y="22" as="sourcePoint" />
            <mxPoint x="15.5" y="2" as="targetPoint" />
          </mxGeometry>
        </mxCell>
        <mxCell id="wtbYi6GZdxYj_9KWXV_w-79" value="32" style="text;html=1;strokeColor=none;fillColor=none;align=center;verticalAlign=middle;whiteSpace=wrap;rounded=0;fontSize=6;" parent="wtbYi6GZdxYj_9KWXV_w-77" vertex="1">
          <mxGeometry width="11" height="11" as="geometry" />
        </mxCell>
        <mxCell id="wtbYi6GZdxYj_9KWXV_w-80" value="" style="endArrow=classic;startArrow=classic;html=1;rounded=0;strokeWidth=2;fontColor=#3333FF;strokeColor=#3333FF;" parent="1" edge="1">
          <mxGeometry width="50" height="50" relative="1" as="geometry">
            <mxPoint x="520.5" y="2790" as="sourcePoint" />
            <mxPoint x="560.5" y="2790" as="targetPoint" />
          </mxGeometry>
        </mxCell>
        <mxCell id="wtbYi6GZdxYj_9KWXV_w-81" value="dbg_reg_ra, dbg_reg_rd" style="text;html=1;strokeColor=none;fillColor=none;align=center;verticalAlign=middle;whiteSpace=wrap;rounded=0;fontStyle=1;fontColor=#3333FF;" parent="1" vertex="1">
          <mxGeometry x="564.5" y="2775" width="75.5" height="27" as="geometry" />
        </mxCell>
        <mxCell id="wtbYi6GZdxYj_9KWXV_w-82" value="ALU" style="rounded=0;whiteSpace=wrap;html=1;fontStyle=1;fillColor=#dae8fc;strokeColor=#6c8ebf;fontSize=14;" parent="1" vertex="1">
          <mxGeometry x="875" y="1930" width="80" height="120" as="geometry" />
        </mxCell>
        <mxCell id="wtbYi6GZdxYj_9KWXV_w-83" value="" style="endArrow=classic;html=1;rounded=0;entryX=0;entryY=0.875;entryDx=0;entryDy=0;entryPerimeter=0;strokeWidth=2;" parent="1" edge="1">
          <mxGeometry width="50" height="50" relative="1" as="geometry">
            <mxPoint x="835" y="1970" as="sourcePoint" />
            <mxPoint x="875" y="1970" as="targetPoint" />
          </mxGeometry>
        </mxCell>
        <mxCell id="wtbYi6GZdxYj_9KWXV_w-84" value="alu_src0" style="text;html=1;strokeColor=none;fillColor=none;align=center;verticalAlign=middle;whiteSpace=wrap;rounded=0;fontStyle=1" parent="1" vertex="1">
          <mxGeometry x="775" y="1965" width="55" height="10" as="geometry" />
        </mxCell>
        <mxCell id="wtbYi6GZdxYj_9KWXV_w-85" value="" style="group" parent="1" vertex="1" connectable="0">
          <mxGeometry x="839.5" y="1958" width="15.5" height="22" as="geometry" />
        </mxCell>
        <mxCell id="wtbYi6GZdxYj_9KWXV_w-86" value="" style="endArrow=none;html=1;rounded=0;" parent="wtbYi6GZdxYj_9KWXV_w-85" edge="1">
          <mxGeometry width="50" height="50" relative="1" as="geometry">
            <mxPoint x="5.5" y="22" as="sourcePoint" />
            <mxPoint x="15.5" y="2" as="targetPoint" />
          </mxGeometry>
        </mxCell>
        <mxCell id="wtbYi6GZdxYj_9KWXV_w-87" value="32" style="text;html=1;strokeColor=none;fillColor=none;align=center;verticalAlign=middle;whiteSpace=wrap;rounded=0;fontSize=6;" parent="wtbYi6GZdxYj_9KWXV_w-85" vertex="1">
          <mxGeometry width="11" height="11" as="geometry" />
        </mxCell>
        <mxCell id="wtbYi6GZdxYj_9KWXV_w-88" value="" style="endArrow=classic;html=1;rounded=0;entryX=0;entryY=0.875;entryDx=0;entryDy=0;entryPerimeter=0;strokeWidth=2;" parent="1" edge="1">
          <mxGeometry width="50" height="50" relative="1" as="geometry">
            <mxPoint x="835" y="2010" as="sourcePoint" />
            <mxPoint x="875" y="2010" as="targetPoint" />
          </mxGeometry>
        </mxCell>
        <mxCell id="wtbYi6GZdxYj_9KWXV_w-89" value="alu_src1" style="text;html=1;strokeColor=none;fillColor=none;align=center;verticalAlign=middle;whiteSpace=wrap;rounded=0;fontStyle=1" parent="1" vertex="1">
          <mxGeometry x="775" y="2005" width="55" height="10" as="geometry" />
        </mxCell>
        <mxCell id="wtbYi6GZdxYj_9KWXV_w-90" value="" style="group" parent="1" vertex="1" connectable="0">
          <mxGeometry x="839.5" y="1998" width="15.5" height="22" as="geometry" />
        </mxCell>
        <mxCell id="wtbYi6GZdxYj_9KWXV_w-91" value="" style="endArrow=none;html=1;rounded=0;" parent="wtbYi6GZdxYj_9KWXV_w-90" edge="1">
          <mxGeometry width="50" height="50" relative="1" as="geometry">
            <mxPoint x="5.5" y="22" as="sourcePoint" />
            <mxPoint x="15.5" y="2" as="targetPoint" />
          </mxGeometry>
        </mxCell>
        <mxCell id="wtbYi6GZdxYj_9KWXV_w-92" value="32" style="text;html=1;strokeColor=none;fillColor=none;align=center;verticalAlign=middle;whiteSpace=wrap;rounded=0;fontSize=6;" parent="wtbYi6GZdxYj_9KWXV_w-90" vertex="1">
          <mxGeometry width="11" height="11" as="geometry" />
        </mxCell>
        <mxCell id="wtbYi6GZdxYj_9KWXV_w-94" value="" style="endArrow=classic;html=1;rounded=0;entryX=0;entryY=0.875;entryDx=0;entryDy=0;entryPerimeter=0;strokeWidth=2;" parent="1" edge="1">
          <mxGeometry width="50" height="50" relative="1" as="geometry">
            <mxPoint x="835" y="2038.86" as="sourcePoint" />
            <mxPoint x="875" y="2038.86" as="targetPoint" />
          </mxGeometry>
        </mxCell>
        <mxCell id="wtbYi6GZdxYj_9KWXV_w-95" value="" style="group" parent="1" vertex="1" connectable="0">
          <mxGeometry x="839" y="2027" width="15.5" height="22" as="geometry" />
        </mxCell>
        <mxCell id="wtbYi6GZdxYj_9KWXV_w-96" value="" style="endArrow=none;html=1;rounded=0;" parent="wtbYi6GZdxYj_9KWXV_w-95" edge="1">
          <mxGeometry width="50" height="50" relative="1" as="geometry">
            <mxPoint x="5.5" y="22" as="sourcePoint" />
            <mxPoint x="15.5" y="2" as="targetPoint" />
          </mxGeometry>
        </mxCell>
        <mxCell id="wtbYi6GZdxYj_9KWXV_w-97" value="5" style="text;html=1;strokeColor=none;fillColor=none;align=center;verticalAlign=middle;whiteSpace=wrap;rounded=0;fontSize=6;" parent="wtbYi6GZdxYj_9KWXV_w-95" vertex="1">
          <mxGeometry width="11" height="11" as="geometry" />
        </mxCell>
        <mxCell id="wtbYi6GZdxYj_9KWXV_w-98" value="alu_op" style="text;html=1;strokeColor=none;fillColor=none;align=center;verticalAlign=middle;whiteSpace=wrap;rounded=0;fontStyle=1" parent="1" vertex="1">
          <mxGeometry x="790" y="2030.5" width="35" height="15" as="geometry" />
        </mxCell>
        <mxCell id="wtbYi6GZdxYj_9KWXV_w-99" value="" style="endArrow=classic;html=1;rounded=0;entryX=0;entryY=0.875;entryDx=0;entryDy=0;entryPerimeter=0;strokeWidth=2;" parent="1" edge="1">
          <mxGeometry width="50" height="50" relative="1" as="geometry">
            <mxPoint x="955" y="1990.86" as="sourcePoint" />
            <mxPoint x="995" y="1990.86" as="targetPoint" />
          </mxGeometry>
        </mxCell>
        <mxCell id="wtbYi6GZdxYj_9KWXV_w-100" value="alu_res" style="text;html=1;strokeColor=none;fillColor=none;align=center;verticalAlign=middle;whiteSpace=wrap;rounded=0;fontStyle=1" parent="1" vertex="1">
          <mxGeometry x="998.5" y="1983" width="53" height="15" as="geometry" />
        </mxCell>
        <mxCell id="wtbYi6GZdxYj_9KWXV_w-101" value="" style="group" parent="1" vertex="1" connectable="0">
          <mxGeometry x="959" y="1979" width="15.5" height="22" as="geometry" />
        </mxCell>
        <mxCell id="wtbYi6GZdxYj_9KWXV_w-102" value="" style="endArrow=none;html=1;rounded=0;" parent="wtbYi6GZdxYj_9KWXV_w-101" edge="1">
          <mxGeometry width="50" height="50" relative="1" as="geometry">
            <mxPoint x="5.5" y="22" as="sourcePoint" />
            <mxPoint x="15.5" y="2" as="targetPoint" />
          </mxGeometry>
        </mxCell>
        <mxCell id="wtbYi6GZdxYj_9KWXV_w-103" value="32" style="text;html=1;strokeColor=none;fillColor=none;align=center;verticalAlign=middle;whiteSpace=wrap;rounded=0;fontSize=6;" parent="wtbYi6GZdxYj_9KWXV_w-101" vertex="1">
          <mxGeometry width="11" height="11" as="geometry" />
        </mxCell>
        <mxCell id="UOA1iHlRtjCQ2NlCKyja-1" value="rf_wd" style="text;html=1;strokeColor=none;fillColor=none;align=center;verticalAlign=middle;whiteSpace=wrap;rounded=0;fontStyle=1" parent="1" vertex="1">
          <mxGeometry x="1162.5" y="1220" width="30" height="20" as="geometry" />
        </mxCell>
        <mxCell id="UOA1iHlRtjCQ2NlCKyja-3" value="alu_src1" style="text;html=1;strokeColor=none;fillColor=none;align=center;verticalAlign=middle;whiteSpace=wrap;rounded=0;fontStyle=1" parent="1" vertex="1">
          <mxGeometry x="1495.5" y="1160" width="49" height="20" as="geometry" />
        </mxCell>
        <mxCell id="UOA1iHlRtjCQ2NlCKyja-4" value="alu_src0" style="text;html=1;strokeColor=none;fillColor=none;align=center;verticalAlign=middle;whiteSpace=wrap;rounded=0;fontStyle=1" parent="1" vertex="1">
          <mxGeometry x="1495.5" y="1020" width="49" height="20" as="geometry" />
        </mxCell>
        <mxCell id="UOA1iHlRtjCQ2NlCKyja-5" value="inst" style="text;html=1;strokeColor=none;fillColor=none;align=center;verticalAlign=middle;whiteSpace=wrap;rounded=0;fontStyle=1" parent="1" vertex="1">
          <mxGeometry x="949" y="1061" width="20" height="20" as="geometry" />
        </mxCell>
        <mxCell id="UOA1iHlRtjCQ2NlCKyja-6" value="" style="shape=waypoint;sketch=0;size=6;pointerEvents=1;points=[];fillColor=none;resizable=0;rotatable=0;perimeter=centerPerimeter;snapToPoint=1;" parent="1" vertex="1">
          <mxGeometry x="1110" y="1070" width="20" height="20" as="geometry" />
        </mxCell>
        <mxCell id="UOA1iHlRtjCQ2NlCKyja-9" value="" style="shape=waypoint;sketch=0;size=6;pointerEvents=1;points=[];fillColor=none;resizable=0;rotatable=0;perimeter=centerPerimeter;snapToPoint=1;" parent="1" vertex="1">
          <mxGeometry x="1110" y="1130" width="20" height="20" as="geometry" />
        </mxCell>
        <mxCell id="UOA1iHlRtjCQ2NlCKyja-11" value="" style="shape=waypoint;sketch=0;size=6;pointerEvents=1;points=[];fillColor=none;resizable=0;rotatable=0;perimeter=centerPerimeter;snapToPoint=1;" parent="1" vertex="1">
          <mxGeometry x="1110" y="1190" width="20" height="20" as="geometry" />
        </mxCell>
        <mxCell id="UOA1iHlRtjCQ2NlCKyja-12" value="npc" style="text;html=1;strokeColor=none;fillColor=none;align=center;verticalAlign=middle;whiteSpace=wrap;rounded=0;fontStyle=1" parent="1" vertex="1">
          <mxGeometry x="665" y="1061" width="30" height="20" as="geometry" />
        </mxCell>
        <mxCell id="tI96Y_cj1fdC6GXMh-KR-1" value="&lt;b&gt;MUX&lt;/b&gt;" style="rounded=0;whiteSpace=wrap;html=1;fillColor=#dae8fc;strokeColor=#6c8ebf;" parent="1" vertex="1">
          <mxGeometry x="875" y="2130" width="40" height="80" as="geometry" />
        </mxCell>
        <mxCell id="tI96Y_cj1fdC6GXMh-KR-2" value="" style="endArrow=classic;html=1;rounded=0;entryX=0;entryY=0.875;entryDx=0;entryDy=0;entryPerimeter=0;strokeWidth=2;" parent="1" edge="1">
          <mxGeometry width="50" height="50" relative="1" as="geometry">
            <mxPoint x="835" y="2151" as="sourcePoint" />
            <mxPoint x="875" y="2151" as="targetPoint" />
          </mxGeometry>
        </mxCell>
        <mxCell id="tI96Y_cj1fdC6GXMh-KR-3" value="src0" style="text;html=1;strokeColor=none;fillColor=none;align=center;verticalAlign=middle;whiteSpace=wrap;rounded=0;fontStyle=1" parent="1" vertex="1">
          <mxGeometry x="788" y="2146" width="55" height="10" as="geometry" />
        </mxCell>
        <mxCell id="tI96Y_cj1fdC6GXMh-KR-4" value="" style="group" parent="1" vertex="1" connectable="0">
          <mxGeometry x="839.5" y="2139" width="15.5" height="22" as="geometry" />
        </mxCell>
        <mxCell id="tI96Y_cj1fdC6GXMh-KR-5" value="" style="endArrow=none;html=1;rounded=0;" parent="tI96Y_cj1fdC6GXMh-KR-4" edge="1">
          <mxGeometry width="50" height="50" relative="1" as="geometry">
            <mxPoint x="5.5" y="22" as="sourcePoint" />
            <mxPoint x="15.5" y="2" as="targetPoint" />
          </mxGeometry>
        </mxCell>
        <mxCell id="tI96Y_cj1fdC6GXMh-KR-6" value="WIDTH" style="text;html=1;strokeColor=none;fillColor=none;align=center;verticalAlign=middle;whiteSpace=wrap;rounded=0;fontSize=6;" parent="tI96Y_cj1fdC6GXMh-KR-4" vertex="1">
          <mxGeometry x="-10" width="21" height="11" as="geometry" />
        </mxCell>
        <mxCell id="tI96Y_cj1fdC6GXMh-KR-7" value="" style="endArrow=classic;html=1;rounded=0;entryX=0;entryY=0.875;entryDx=0;entryDy=0;entryPerimeter=0;strokeWidth=2;" parent="1" edge="1">
          <mxGeometry width="50" height="50" relative="1" as="geometry">
            <mxPoint x="835" y="2191" as="sourcePoint" />
            <mxPoint x="875" y="2191" as="targetPoint" />
          </mxGeometry>
        </mxCell>
        <mxCell id="tI96Y_cj1fdC6GXMh-KR-8" value="src1" style="text;html=1;strokeColor=none;fillColor=none;align=center;verticalAlign=middle;whiteSpace=wrap;rounded=0;fontStyle=1" parent="1" vertex="1">
          <mxGeometry x="788" y="2187" width="55" height="10" as="geometry" />
        </mxCell>
        <mxCell id="tI96Y_cj1fdC6GXMh-KR-13" value="" style="group" parent="1" vertex="1" connectable="0">
          <mxGeometry x="839" y="2179" width="15.5" height="22" as="geometry" />
        </mxCell>
        <mxCell id="tI96Y_cj1fdC6GXMh-KR-14" value="" style="endArrow=none;html=1;rounded=0;" parent="tI96Y_cj1fdC6GXMh-KR-13" edge="1">
          <mxGeometry width="50" height="50" relative="1" as="geometry">
            <mxPoint x="5.5" y="22" as="sourcePoint" />
            <mxPoint x="15.5" y="2" as="targetPoint" />
          </mxGeometry>
        </mxCell>
        <mxCell id="tI96Y_cj1fdC6GXMh-KR-15" value="WIDTH" style="text;html=1;strokeColor=none;fillColor=none;align=center;verticalAlign=middle;whiteSpace=wrap;rounded=0;fontSize=6;" parent="tI96Y_cj1fdC6GXMh-KR-13" vertex="1">
          <mxGeometry x="-10" width="21" height="11" as="geometry" />
        </mxCell>
        <mxCell id="tI96Y_cj1fdC6GXMh-KR-16" value="" style="endArrow=classic;html=1;rounded=0;strokeWidth=2;" parent="1" edge="1">
          <mxGeometry width="50" height="50" relative="1" as="geometry">
            <mxPoint x="915" y="2169.8599999999997" as="sourcePoint" />
            <mxPoint x="963" y="2170" as="targetPoint" />
          </mxGeometry>
        </mxCell>
        <mxCell id="tI96Y_cj1fdC6GXMh-KR-17" value="res" style="text;html=1;strokeColor=none;fillColor=none;align=center;verticalAlign=middle;whiteSpace=wrap;rounded=0;fontStyle=1" parent="1" vertex="1">
          <mxGeometry x="967.5" y="2162.5" width="15.5" height="15" as="geometry" />
        </mxCell>
        <mxCell id="tI96Y_cj1fdC6GXMh-KR-18" value="" style="group" parent="1" vertex="1" connectable="0">
          <mxGeometry x="935" y="2159" width="15.5" height="22" as="geometry" />
        </mxCell>
        <mxCell id="tI96Y_cj1fdC6GXMh-KR-19" value="" style="endArrow=none;html=1;rounded=0;" parent="tI96Y_cj1fdC6GXMh-KR-18" edge="1">
          <mxGeometry width="50" height="50" relative="1" as="geometry">
            <mxPoint x="5.5" y="22" as="sourcePoint" />
            <mxPoint x="15.5" y="2" as="targetPoint" />
          </mxGeometry>
        </mxCell>
        <mxCell id="tI96Y_cj1fdC6GXMh-KR-21" value="WIDTH" style="text;html=1;strokeColor=none;fillColor=none;align=center;verticalAlign=middle;whiteSpace=wrap;rounded=0;fontSize=6;" parent="tI96Y_cj1fdC6GXMh-KR-18" vertex="1">
          <mxGeometry x="-9" y="-2" width="21" height="11" as="geometry" />
        </mxCell>
        <mxCell id="tI96Y_cj1fdC6GXMh-KR-22" value="" style="endArrow=classic;html=1;rounded=0;entryX=0.5;entryY=1;entryDx=0;entryDy=0;" parent="1" target="tI96Y_cj1fdC6GXMh-KR-1" edge="1">
          <mxGeometry width="50" height="50" relative="1" as="geometry">
            <mxPoint x="835" y="2240" as="sourcePoint" />
            <mxPoint x="925" y="2230" as="targetPoint" />
            <Array as="points">
              <mxPoint x="895" y="2240" />
            </Array>
          </mxGeometry>
        </mxCell>
        <mxCell id="tI96Y_cj1fdC6GXMh-KR-23" value="sel" style="text;html=1;strokeColor=none;fillColor=none;align=center;verticalAlign=middle;whiteSpace=wrap;rounded=0;" parent="1" vertex="1">
          <mxGeometry x="807.5" y="2232" width="22.5" height="16.5" as="geometry" />
        </mxCell>
        <mxCell id="PyYUrcXmYriOKvPhO_dD-3" value="" style="group" parent="1" vertex="1" connectable="0">
          <mxGeometry x="598.75" y="1040" width="50" height="80" as="geometry" />
        </mxCell>
        <mxCell id="PyYUrcXmYriOKvPhO_dD-1" value="MUX&lt;br&gt;" style="rounded=0;whiteSpace=wrap;html=1;fillColor=#dae8fc;strokeColor=#6c8ebf;fontStyle=1" parent="PyYUrcXmYriOKvPhO_dD-3" vertex="1">
          <mxGeometry x="0.75" width="40" height="80" as="geometry" />
        </mxCell>
        <mxCell id="PyYUrcXmYriOKvPhO_dD-2" value="pc_offset&lt;br&gt;/pc_add4&lt;br&gt;/pc_ j" style="text;html=1;strokeColor=none;fillColor=none;align=center;verticalAlign=middle;whiteSpace=wrap;rounded=0;fontStyle=1;fontSize=7;" parent="PyYUrcXmYriOKvPhO_dD-3" vertex="1">
          <mxGeometry x="1.38" y="47" width="38.75" height="30" as="geometry" />
        </mxCell>
        <mxCell id="PyYUrcXmYriOKvPhO_dD-5" value="" style="endArrow=classic;html=1;rounded=0;entryX=0;entryY=0.5;entryDx=0;entryDy=0;" parent="PyYUrcXmYriOKvPhO_dD-3" target="KvcFe8U6ZTAkRATW3uwT-1" edge="1">
          <mxGeometry width="50" height="50" relative="1" as="geometry">
            <mxPoint x="41.25" y="40" as="sourcePoint" />
            <mxPoint x="61.25" y="70" as="targetPoint" />
          </mxGeometry>
        </mxCell>
        <mxCell id="PyYUrcXmYriOKvPhO_dD-6" value="" style="endArrow=classic;html=1;rounded=0;exitX=0;exitY=0.5;exitDx=0;exitDy=0;entryX=0;entryY=0.25;entryDx=0;entryDy=0;" parent="1" source="KvcFe8U6ZTAkRATW3uwT-2" target="PyYUrcXmYriOKvPhO_dD-1" edge="1">
          <mxGeometry width="50" height="50" relative="1" as="geometry">
            <mxPoint x="570" y="1010" as="sourcePoint" />
            <mxPoint x="600" y="1100" as="targetPoint" />
            <Array as="points">
              <mxPoint x="570" y="960" />
              <mxPoint x="570" y="1060" />
            </Array>
          </mxGeometry>
        </mxCell>
        <mxCell id="PyYUrcXmYriOKvPhO_dD-7" value="BRANCH" style="rounded=0;whiteSpace=wrap;html=1;fontStyle=1;fillColor=#dae8fc;strokeColor=#6c8ebf;" parent="1" vertex="1">
          <mxGeometry x="1400" y="1320" width="80" height="80" as="geometry" />
        </mxCell>
        <mxCell id="PyYUrcXmYriOKvPhO_dD-10" value="" style="shape=waypoint;sketch=0;size=6;pointerEvents=1;points=[];fillColor=none;resizable=0;rotatable=0;perimeter=centerPerimeter;snapToPoint=1;" parent="1" vertex="1">
          <mxGeometry x="1350" y="1070" width="20" height="20" as="geometry" />
        </mxCell>
        <mxCell id="PyYUrcXmYriOKvPhO_dD-11" value="" style="shape=waypoint;sketch=0;size=6;pointerEvents=1;points=[];fillColor=none;resizable=0;rotatable=0;perimeter=centerPerimeter;snapToPoint=1;" parent="1" vertex="1">
          <mxGeometry x="1370" y="1130" width="20" height="20" as="geometry" />
        </mxCell>
        <mxCell id="PyYUrcXmYriOKvPhO_dD-12" value="" style="endArrow=classic;html=1;rounded=0;entryX=0;entryY=0.5;entryDx=0;entryDy=0;" parent="1" edge="1" target="PyYUrcXmYriOKvPhO_dD-1">
          <mxGeometry width="50" height="50" relative="1" as="geometry">
            <mxPoint x="1720" y="1100" as="sourcePoint" />
            <mxPoint x="600" y="1100" as="targetPoint" />
            <Array as="points">
              <mxPoint x="1720" y="840" />
              <mxPoint x="520" y="840" />
              <mxPoint x="520" y="1080" />
            </Array>
          </mxGeometry>
        </mxCell>
        <mxCell id="PyYUrcXmYriOKvPhO_dD-13" value="" style="shape=waypoint;sketch=0;size=6;pointerEvents=1;points=[];fillColor=none;resizable=0;rotatable=0;perimeter=centerPerimeter;snapToPoint=1;" parent="1" vertex="1">
          <mxGeometry x="1710" y="1090" width="20" height="20" as="geometry" />
        </mxCell>
        <mxCell id="PyYUrcXmYriOKvPhO_dD-14" value="DM" style="rounded=0;whiteSpace=wrap;html=1;fillColor=#e1d5e7;strokeColor=#9673a6;fontStyle=1" parent="1" vertex="1">
          <mxGeometry x="1760.5" y="1540" width="120" height="60" as="geometry" />
        </mxCell>
        <mxCell id="PyYUrcXmYriOKvPhO_dD-15" value="" style="endArrow=classic;html=1;rounded=0;exitX=1;exitY=0.5;exitDx=0;exitDy=0;entryX=0;entryY=0.375;entryDx=0;entryDy=0;entryPerimeter=0;" parent="1" source="KvcFe8U6ZTAkRATW3uwT-26" target="PyYUrcXmYriOKvPhO_dD-16" edge="1">
          <mxGeometry width="50" height="50" relative="1" as="geometry">
            <mxPoint x="1860" y="1120" as="sourcePoint" />
            <mxPoint x="1950" y="1090" as="targetPoint" />
          </mxGeometry>
        </mxCell>
        <mxCell id="PyYUrcXmYriOKvPhO_dD-16" value="MUX&lt;br&gt;" style="rounded=0;whiteSpace=wrap;html=1;fillColor=#dae8fc;strokeColor=#6c8ebf;fontStyle=1" parent="1" vertex="1">
          <mxGeometry x="2000" y="1040" width="50" height="160" as="geometry" />
        </mxCell>
        <mxCell id="PyYUrcXmYriOKvPhO_dD-17" value="&lt;font style=&quot;font-size: 7px;&quot;&gt;pc_add4&lt;br&gt;/alu_res&lt;br&gt;/dmem_rdata&lt;br&gt;/0&lt;br&gt;&lt;/font&gt;" style="text;html=1;strokeColor=none;fillColor=none;align=center;verticalAlign=middle;whiteSpace=wrap;rounded=0;fontStyle=1;fontSize=5;" parent="1" vertex="1">
          <mxGeometry x="2002.5" y="1150" width="45" height="30" as="geometry" />
        </mxCell>
        <mxCell id="PyYUrcXmYriOKvPhO_dD-18" value="" style="endArrow=classic;html=1;rounded=0;entryX=0;entryY=0.5;entryDx=0;entryDy=0;" parent="1" target="PyYUrcXmYriOKvPhO_dD-14" edge="1">
          <mxGeometry width="50" height="50" relative="1" as="geometry">
            <mxPoint x="1720" y="1100" as="sourcePoint" />
            <mxPoint x="1720" y="1630" as="targetPoint" />
            <Array as="points">
              <mxPoint x="1720" y="1570" />
            </Array>
          </mxGeometry>
        </mxCell>
        <mxCell id="PyYUrcXmYriOKvPhO_dD-19" value="" style="endArrow=classic;html=1;rounded=0;exitX=0.354;exitY=0.683;exitDx=0;exitDy=0;exitPerimeter=0;entryX=0.25;entryY=0;entryDx=0;entryDy=0;" parent="1" source="PyYUrcXmYriOKvPhO_dD-11" target="4ZMTBkbkByjsYLAcBFt8-1" edge="1">
          <mxGeometry width="50" height="50" relative="1" as="geometry">
            <mxPoint x="1420" y="1300" as="sourcePoint" />
            <mxPoint x="1700" y="1400" as="targetPoint" />
            <Array as="points">
              <mxPoint x="1380" y="1240" />
              <mxPoint x="1820" y="1240" />
            </Array>
          </mxGeometry>
        </mxCell>
        <mxCell id="PyYUrcXmYriOKvPhO_dD-20" value="dmem_wd_in" style="text;html=1;strokeColor=none;fillColor=none;align=center;verticalAlign=middle;whiteSpace=wrap;rounded=0;fontStyle=1" parent="1" vertex="1">
          <mxGeometry x="1750" y="1210" width="90" height="30" as="geometry" />
        </mxCell>
        <mxCell id="PyYUrcXmYriOKvPhO_dD-21" value="dmem_addr" style="text;html=1;strokeColor=none;fillColor=none;align=center;verticalAlign=middle;whiteSpace=wrap;rounded=0;fontStyle=1" parent="1" vertex="1">
          <mxGeometry x="1650" y="1147" width="60" height="30" as="geometry" />
        </mxCell>
        <mxCell id="PyYUrcXmYriOKvPhO_dD-22" value="" style="endArrow=classic;html=1;rounded=0;entryX=0;entryY=0.625;entryDx=0;entryDy=0;entryPerimeter=0;exitX=0.75;exitY=0;exitDx=0;exitDy=0;" parent="1" source="4ZMTBkbkByjsYLAcBFt8-1" target="PyYUrcXmYriOKvPhO_dD-16" edge="1">
          <mxGeometry width="50" height="50" relative="1" as="geometry">
            <mxPoint x="1770" y="1400" as="sourcePoint" />
            <mxPoint x="1970" y="1220" as="targetPoint" />
            <Array as="points">
              <mxPoint x="1860" y="1140" />
            </Array>
          </mxGeometry>
        </mxCell>
        <mxCell id="PyYUrcXmYriOKvPhO_dD-23" value="dmem_addr" style="text;html=1;strokeColor=none;fillColor=none;align=center;verticalAlign=middle;whiteSpace=wrap;rounded=0;fontStyle=1" parent="1" vertex="1">
          <mxGeometry x="1640" y="1305" width="80" height="30" as="geometry" />
        </mxCell>
        <mxCell id="PyYUrcXmYriOKvPhO_dD-24" value="" style="endArrow=classic;html=1;rounded=0;entryX=0;entryY=0.25;entryDx=0;entryDy=0;" parent="1" target="PyYUrcXmYriOKvPhO_dD-7" edge="1">
          <mxGeometry width="50" height="50" relative="1" as="geometry">
            <mxPoint x="1380" y="1240" as="sourcePoint" />
            <mxPoint x="1180" y="1330" as="targetPoint" />
            <Array as="points">
              <mxPoint x="1380" y="1340" />
            </Array>
          </mxGeometry>
        </mxCell>
        <mxCell id="PyYUrcXmYriOKvPhO_dD-25" value="" style="shape=waypoint;sketch=0;size=6;pointerEvents=1;points=[];fillColor=none;resizable=0;rotatable=0;perimeter=centerPerimeter;snapToPoint=1;" parent="1" vertex="1">
          <mxGeometry x="1370" y="1230" width="20" height="20" as="geometry" />
        </mxCell>
        <mxCell id="PyYUrcXmYriOKvPhO_dD-26" value="" style="endArrow=classic;html=1;rounded=0;entryX=0;entryY=0.75;entryDx=0;entryDy=0;exitX=0.683;exitY=0.675;exitDx=0;exitDy=0;exitPerimeter=0;" parent="1" source="PyYUrcXmYriOKvPhO_dD-10" target="PyYUrcXmYriOKvPhO_dD-7" edge="1">
          <mxGeometry width="50" height="50" relative="1" as="geometry">
            <mxPoint x="1240" y="1380" as="sourcePoint" />
            <mxPoint x="1290" y="1330" as="targetPoint" />
            <Array as="points">
              <mxPoint x="1360" y="1380" />
            </Array>
          </mxGeometry>
        </mxCell>
        <mxCell id="PyYUrcXmYriOKvPhO_dD-27" value="" style="shape=waypoint;sketch=0;size=6;pointerEvents=1;points=[];fillColor=none;resizable=0;rotatable=0;perimeter=centerPerimeter;snapToPoint=1;" parent="1" vertex="1">
          <mxGeometry x="790" y="1010" width="20" height="20" as="geometry" />
        </mxCell>
        <mxCell id="PyYUrcXmYriOKvPhO_dD-28" value="" style="endArrow=classic;html=1;rounded=0;" parent="1" edge="1">
          <mxGeometry width="50" height="50" relative="1" as="geometry">
            <mxPoint x="570" y="960" as="sourcePoint" />
            <mxPoint x="2000" y="1060" as="targetPoint" />
            <Array as="points">
              <mxPoint x="570" y="900" />
              <mxPoint x="1880" y="900" />
              <mxPoint x="1880" y="1060" />
            </Array>
          </mxGeometry>
        </mxCell>
        <mxCell id="PyYUrcXmYriOKvPhO_dD-29" value="pc_add4" style="text;html=1;strokeColor=none;fillColor=none;align=center;verticalAlign=middle;whiteSpace=wrap;rounded=0;fontStyle=1" parent="1" vertex="1">
          <mxGeometry x="587" y="940" width="53" height="20" as="geometry" />
        </mxCell>
        <mxCell id="PyYUrcXmYriOKvPhO_dD-30" value="pc_offset" style="text;html=1;strokeColor=none;fillColor=none;align=center;verticalAlign=middle;whiteSpace=wrap;rounded=0;fontStyle=1" parent="1" vertex="1">
          <mxGeometry x="533.13" y="1063" width="53" height="20" as="geometry" />
        </mxCell>
        <mxCell id="PyYUrcXmYriOKvPhO_dD-31" value="" style="shape=waypoint;sketch=0;size=6;pointerEvents=1;points=[];fillColor=none;resizable=0;rotatable=0;perimeter=centerPerimeter;snapToPoint=1;" parent="1" vertex="1">
          <mxGeometry x="560" y="950" width="20" height="20" as="geometry" />
        </mxCell>
        <mxCell id="PyYUrcXmYriOKvPhO_dD-32" value="" style="endArrow=classic;html=1;rounded=0;exitX=1;exitY=0.5;exitDx=0;exitDy=0;entryX=0;entryY=0.952;entryDx=0;entryDy=0;entryPerimeter=0;" parent="1" source="PyYUrcXmYriOKvPhO_dD-16" target="KvcFe8U6ZTAkRATW3uwT-10" edge="1">
          <mxGeometry width="50" height="50" relative="1" as="geometry">
            <mxPoint x="2020" y="1350" as="sourcePoint" />
            <mxPoint x="1150" y="1350" as="targetPoint" />
            <Array as="points">
              <mxPoint x="2120" y="1120" />
              <mxPoint x="2120" y="1440" />
              <mxPoint x="1160" y="1440" />
              <mxPoint x="1160" y="1240" />
            </Array>
          </mxGeometry>
        </mxCell>
        <mxCell id="4ZMTBkbkByjsYLAcBFt8-1" value="SL UNIT" style="rounded=0;whiteSpace=wrap;html=1;fontStyle=1;fillColor=#dae8fc;strokeColor=#6c8ebf;" parent="1" vertex="1">
          <mxGeometry x="1800" y="1280" width="80" height="80" as="geometry" />
        </mxCell>
        <mxCell id="4ZMTBkbkByjsYLAcBFt8-2" value="" style="endArrow=classic;html=1;rounded=0;entryX=0.5;entryY=0;entryDx=0;entryDy=0;exitX=0.25;exitY=1;exitDx=0;exitDy=0;" parent="1" source="4ZMTBkbkByjsYLAcBFt8-1" target="PyYUrcXmYriOKvPhO_dD-14" edge="1">
          <mxGeometry width="50" height="50" relative="1" as="geometry">
            <mxPoint x="1700" y="1460" as="sourcePoint" />
            <mxPoint x="1890" y="1400" as="targetPoint" />
          </mxGeometry>
        </mxCell>
        <mxCell id="4ZMTBkbkByjsYLAcBFt8-3" value="dmem_rd_out" style="text;html=1;strokeColor=none;fillColor=none;align=center;verticalAlign=middle;whiteSpace=wrap;rounded=0;fontStyle=1" parent="1" vertex="1">
          <mxGeometry x="1860" y="1210" width="90" height="30" as="geometry" />
        </mxCell>
        <mxCell id="4ZMTBkbkByjsYLAcBFt8-4" value="" style="endArrow=classic;html=1;rounded=0;entryX=0;entryY=0.5;entryDx=0;entryDy=0;" parent="1" target="4ZMTBkbkByjsYLAcBFt8-1" edge="1">
          <mxGeometry width="50" height="50" relative="1" as="geometry">
            <mxPoint x="1720" y="1320" as="sourcePoint" />
            <mxPoint x="1680" y="1260" as="targetPoint" />
          </mxGeometry>
        </mxCell>
        <mxCell id="4ZMTBkbkByjsYLAcBFt8-5" value="" style="shape=waypoint;sketch=0;size=6;pointerEvents=1;points=[];fillColor=none;resizable=0;rotatable=0;perimeter=centerPerimeter;snapToPoint=1;" parent="1" vertex="1">
          <mxGeometry x="1710" y="1310" width="20" height="20" as="geometry" />
        </mxCell>
        <mxCell id="4ZMTBkbkByjsYLAcBFt8-6" value="dmem_wd_out" style="text;html=1;strokeColor=none;fillColor=none;align=center;verticalAlign=middle;whiteSpace=wrap;rounded=0;fontStyle=1" parent="1" vertex="1">
          <mxGeometry x="1731" y="1360" width="90" height="30" as="geometry" />
        </mxCell>
        <mxCell id="4ZMTBkbkByjsYLAcBFt8-7" value="" style="endArrow=classic;html=1;rounded=0;entryX=0.75;entryY=1;entryDx=0;entryDy=0;exitX=0.833;exitY=0;exitDx=0;exitDy=0;exitPerimeter=0;" parent="1" source="PyYUrcXmYriOKvPhO_dD-14" target="4ZMTBkbkByjsYLAcBFt8-1" edge="1">
          <mxGeometry width="50" height="50" relative="1" as="geometry">
            <mxPoint x="1970" y="1420" as="sourcePoint" />
            <mxPoint x="2020" y="1370" as="targetPoint" />
          </mxGeometry>
        </mxCell>
        <mxCell id="4ZMTBkbkByjsYLAcBFt8-8" value="dmem_rd_in" style="text;html=1;strokeColor=none;fillColor=none;align=center;verticalAlign=middle;whiteSpace=wrap;rounded=0;fontStyle=1" parent="1" vertex="1">
          <mxGeometry x="1858" y="1360" width="90" height="30" as="geometry" />
        </mxCell>
        <mxCell id="4ZMTBkbkByjsYLAcBFt8-9" value="dmem_wdata" style="text;html=1;strokeColor=none;fillColor=none;align=center;verticalAlign=middle;whiteSpace=wrap;rounded=0;fontStyle=1" parent="1" vertex="1">
          <mxGeometry x="1730.5" y="1500" width="90" height="30" as="geometry" />
        </mxCell>
        <mxCell id="4ZMTBkbkByjsYLAcBFt8-10" value="dmem_rdata" style="text;html=1;strokeColor=none;fillColor=none;align=center;verticalAlign=middle;whiteSpace=wrap;rounded=0;fontStyle=1" parent="1" vertex="1">
          <mxGeometry x="1860.5" y="1500" width="90" height="30" as="geometry" />
        </mxCell>
        <mxCell id="hFxO8FMQMLECLvY6zF3h-18" value="" style="endArrow=classic;html=1;rounded=0;entryX=0;entryY=0.875;entryDx=0;entryDy=0;entryPerimeter=0;strokeWidth=2;" parent="1" edge="1">
          <mxGeometry width="50" height="50" relative="1" as="geometry">
            <mxPoint x="360" y="2141.3599999999997" as="sourcePoint" />
            <mxPoint x="400" y="2141.3599999999997" as="targetPoint" />
          </mxGeometry>
        </mxCell>
        <mxCell id="hFxO8FMQMLECLvY6zF3h-19" value="" style="group" parent="1" vertex="1" connectable="0">
          <mxGeometry x="364" y="2129.5" width="15.5" height="22" as="geometry" />
        </mxCell>
        <mxCell id="hFxO8FMQMLECLvY6zF3h-20" value="" style="endArrow=none;html=1;rounded=0;" parent="hFxO8FMQMLECLvY6zF3h-19" edge="1">
          <mxGeometry width="50" height="50" relative="1" as="geometry">
            <mxPoint x="5.5" y="22" as="sourcePoint" />
            <mxPoint x="15.5" y="2" as="targetPoint" />
          </mxGeometry>
        </mxCell>
        <mxCell id="hFxO8FMQMLECLvY6zF3h-21" value="32" style="text;html=1;strokeColor=none;fillColor=none;align=center;verticalAlign=middle;whiteSpace=wrap;rounded=0;fontSize=6;" parent="hFxO8FMQMLECLvY6zF3h-19" vertex="1">
          <mxGeometry width="11" height="11" as="geometry" />
        </mxCell>
        <mxCell id="hFxO8FMQMLECLvY6zF3h-22" value="" style="endArrow=classic;html=1;rounded=0;entryX=0;entryY=0.875;entryDx=0;entryDy=0;entryPerimeter=0;strokeWidth=2;" parent="1" edge="1">
          <mxGeometry width="50" height="50" relative="1" as="geometry">
            <mxPoint x="480.5" y="2056.4599999999996" as="sourcePoint" />
            <mxPoint x="520.5" y="2056.4599999999996" as="targetPoint" />
          </mxGeometry>
        </mxCell>
        <mxCell id="hFxO8FMQMLECLvY6zF3h-23" value="" style="group" parent="1" vertex="1" connectable="0">
          <mxGeometry x="483.5" y="2045.5" width="15.5" height="22" as="geometry" />
        </mxCell>
        <mxCell id="hFxO8FMQMLECLvY6zF3h-24" value="" style="endArrow=none;html=1;rounded=0;" parent="hFxO8FMQMLECLvY6zF3h-23" edge="1">
          <mxGeometry width="50" height="50" relative="1" as="geometry">
            <mxPoint x="5.5" y="22" as="sourcePoint" />
            <mxPoint x="15.5" y="2" as="targetPoint" />
          </mxGeometry>
        </mxCell>
        <mxCell id="hFxO8FMQMLECLvY6zF3h-25" value="2" style="text;html=1;strokeColor=none;fillColor=none;align=center;verticalAlign=middle;whiteSpace=wrap;rounded=0;fontSize=6;" parent="hFxO8FMQMLECLvY6zF3h-23" vertex="1">
          <mxGeometry width="11" height="11" as="geometry" />
        </mxCell>
        <mxCell id="hFxO8FMQMLECLvY6zF3h-26" value="&lt;b&gt;rf_wd_sel&lt;/b&gt;" style="text;html=1;align=center;verticalAlign=middle;resizable=0;points=[];autosize=1;strokeColor=none;fillColor=none;" parent="1" vertex="1">
          <mxGeometry x="514" y="2041.5" width="80" height="30" as="geometry" />
        </mxCell>
        <mxCell id="hFxO8FMQMLECLvY6zF3h-32" value="" style="endArrow=classic;html=1;rounded=0;entryX=0;entryY=0.875;entryDx=0;entryDy=0;entryPerimeter=0;strokeWidth=2;" parent="1" edge="1">
          <mxGeometry width="50" height="50" relative="1" as="geometry">
            <mxPoint x="480" y="2123.9599999999996" as="sourcePoint" />
            <mxPoint x="520" y="2123.9599999999996" as="targetPoint" />
          </mxGeometry>
        </mxCell>
        <mxCell id="hFxO8FMQMLECLvY6zF3h-33" value="" style="group" parent="1" vertex="1" connectable="0">
          <mxGeometry x="483" y="2113" width="15.5" height="22" as="geometry" />
        </mxCell>
        <mxCell id="hFxO8FMQMLECLvY6zF3h-34" value="" style="endArrow=none;html=1;rounded=0;" parent="hFxO8FMQMLECLvY6zF3h-33" edge="1">
          <mxGeometry width="50" height="50" relative="1" as="geometry">
            <mxPoint x="5.5" y="22" as="sourcePoint" />
            <mxPoint x="15.5" y="2" as="targetPoint" />
          </mxGeometry>
        </mxCell>
        <mxCell id="hFxO8FMQMLECLvY6zF3h-35" value="4" style="text;html=1;strokeColor=none;fillColor=none;align=center;verticalAlign=middle;whiteSpace=wrap;rounded=0;fontSize=6;" parent="hFxO8FMQMLECLvY6zF3h-33" vertex="1">
          <mxGeometry width="11" height="11" as="geometry" />
        </mxCell>
        <mxCell id="hFxO8FMQMLECLvY6zF3h-36" value="&lt;b&gt;dmem_access&lt;/b&gt;" style="text;html=1;align=center;verticalAlign=middle;resizable=0;points=[];autosize=1;strokeColor=none;fillColor=none;" parent="1" vertex="1">
          <mxGeometry x="510" y="2109" width="110" height="30" as="geometry" />
        </mxCell>
        <mxCell id="hFxO8FMQMLECLvY6zF3h-39" value="&lt;b&gt;NPC&lt;br&gt;MUX&lt;br&gt;&lt;/b&gt;" style="rounded=0;whiteSpace=wrap;html=1;fillColor=#dae8fc;strokeColor=#6c8ebf;" parent="1" vertex="1">
          <mxGeometry x="870" y="2320" width="40" height="80" as="geometry" />
        </mxCell>
        <mxCell id="hFxO8FMQMLECLvY6zF3h-40" value="" style="endArrow=classic;html=1;rounded=0;entryX=0;entryY=0.875;entryDx=0;entryDy=0;entryPerimeter=0;strokeWidth=2;" parent="1" edge="1">
          <mxGeometry width="50" height="50" relative="1" as="geometry">
            <mxPoint x="830" y="2359.5" as="sourcePoint" />
            <mxPoint x="870" y="2359.5" as="targetPoint" />
          </mxGeometry>
        </mxCell>
        <mxCell id="hFxO8FMQMLECLvY6zF3h-41" value="pc_offset" style="text;html=1;strokeColor=none;fillColor=none;align=center;verticalAlign=middle;whiteSpace=wrap;rounded=0;fontStyle=1" parent="1" vertex="1">
          <mxGeometry x="769" y="2353.5" width="55" height="10" as="geometry" />
        </mxCell>
        <mxCell id="hFxO8FMQMLECLvY6zF3h-42" value="" style="group" parent="1" vertex="1" connectable="0">
          <mxGeometry x="834.5" y="2347.5" width="15.5" height="22" as="geometry" />
        </mxCell>
        <mxCell id="hFxO8FMQMLECLvY6zF3h-43" value="" style="endArrow=none;html=1;rounded=0;" parent="hFxO8FMQMLECLvY6zF3h-42" edge="1">
          <mxGeometry width="50" height="50" relative="1" as="geometry">
            <mxPoint x="5.5" y="22" as="sourcePoint" />
            <mxPoint x="15.5" y="2" as="targetPoint" />
          </mxGeometry>
        </mxCell>
        <mxCell id="hFxO8FMQMLECLvY6zF3h-44" value="32" style="text;html=1;strokeColor=none;fillColor=none;align=center;verticalAlign=middle;whiteSpace=wrap;rounded=0;fontSize=6;" parent="hFxO8FMQMLECLvY6zF3h-42" vertex="1">
          <mxGeometry x="-10" width="21" height="11" as="geometry" />
        </mxCell>
        <mxCell id="hFxO8FMQMLECLvY6zF3h-45" value="" style="endArrow=classic;html=1;rounded=0;entryX=0;entryY=0.875;entryDx=0;entryDy=0;entryPerimeter=0;strokeWidth=2;" parent="1" edge="1">
          <mxGeometry width="50" height="50" relative="1" as="geometry">
            <mxPoint x="831" y="2332" as="sourcePoint" />
            <mxPoint x="871" y="2332" as="targetPoint" />
          </mxGeometry>
        </mxCell>
        <mxCell id="hFxO8FMQMLECLvY6zF3h-46" value="pc_add4" style="text;html=1;strokeColor=none;fillColor=none;align=center;verticalAlign=middle;whiteSpace=wrap;rounded=0;fontStyle=1" parent="1" vertex="1">
          <mxGeometry x="771" y="2326" width="55" height="10" as="geometry" />
        </mxCell>
        <mxCell id="hFxO8FMQMLECLvY6zF3h-47" value="" style="group" parent="1" vertex="1" connectable="0">
          <mxGeometry x="835" y="2320" width="15.5" height="22" as="geometry" />
        </mxCell>
        <mxCell id="hFxO8FMQMLECLvY6zF3h-48" value="" style="endArrow=none;html=1;rounded=0;" parent="hFxO8FMQMLECLvY6zF3h-47" edge="1">
          <mxGeometry width="50" height="50" relative="1" as="geometry">
            <mxPoint x="5.5" y="22" as="sourcePoint" />
            <mxPoint x="15.5" y="2" as="targetPoint" />
          </mxGeometry>
        </mxCell>
        <mxCell id="hFxO8FMQMLECLvY6zF3h-49" value="32" style="text;html=1;strokeColor=none;fillColor=none;align=center;verticalAlign=middle;whiteSpace=wrap;rounded=0;fontSize=6;" parent="hFxO8FMQMLECLvY6zF3h-47" vertex="1">
          <mxGeometry x="-10" width="21" height="11" as="geometry" />
        </mxCell>
        <mxCell id="hFxO8FMQMLECLvY6zF3h-50" value="" style="endArrow=classic;html=1;rounded=0;strokeWidth=2;exitX=1;exitY=0.5;exitDx=0;exitDy=0;" parent="1" edge="1" source="hFxO8FMQMLECLvY6zF3h-39">
          <mxGeometry width="50" height="50" relative="1" as="geometry">
            <mxPoint x="911" y="2359.8599999999997" as="sourcePoint" />
            <mxPoint x="959" y="2360" as="targetPoint" />
          </mxGeometry>
        </mxCell>
        <mxCell id="hFxO8FMQMLECLvY6zF3h-51" value="npc" style="text;html=1;strokeColor=none;fillColor=none;align=center;verticalAlign=middle;whiteSpace=wrap;rounded=0;fontStyle=1" parent="1" vertex="1">
          <mxGeometry x="957" y="2352.5" width="36.5" height="15" as="geometry" />
        </mxCell>
        <mxCell id="hFxO8FMQMLECLvY6zF3h-52" value="" style="group" parent="1" vertex="1" connectable="0">
          <mxGeometry x="931" y="2349" width="15.5" height="22" as="geometry" />
        </mxCell>
        <mxCell id="hFxO8FMQMLECLvY6zF3h-53" value="" style="endArrow=none;html=1;rounded=0;" parent="hFxO8FMQMLECLvY6zF3h-52" edge="1">
          <mxGeometry width="50" height="50" relative="1" as="geometry">
            <mxPoint x="5.5" y="22" as="sourcePoint" />
            <mxPoint x="15.5" y="2" as="targetPoint" />
          </mxGeometry>
        </mxCell>
        <mxCell id="hFxO8FMQMLECLvY6zF3h-54" value="32" style="text;html=1;strokeColor=none;fillColor=none;align=center;verticalAlign=middle;whiteSpace=wrap;rounded=0;fontSize=6;" parent="hFxO8FMQMLECLvY6zF3h-52" vertex="1">
          <mxGeometry x="-9" y="-2" width="21" height="11" as="geometry" />
        </mxCell>
        <mxCell id="hFxO8FMQMLECLvY6zF3h-55" value="" style="endArrow=classic;html=1;rounded=0;entryX=0.5;entryY=1;entryDx=0;entryDy=0;strokeWidth=2;" parent="1" target="hFxO8FMQMLECLvY6zF3h-39" edge="1">
          <mxGeometry width="50" height="50" relative="1" as="geometry">
            <mxPoint x="831" y="2430" as="sourcePoint" />
            <mxPoint x="921" y="2420" as="targetPoint" />
            <Array as="points">
              <mxPoint x="890" y="2430" />
            </Array>
          </mxGeometry>
        </mxCell>
        <mxCell id="hFxO8FMQMLECLvY6zF3h-56" value="npc_sel" style="text;html=1;strokeColor=none;fillColor=none;align=center;verticalAlign=middle;whiteSpace=wrap;rounded=0;fontStyle=1" parent="1" vertex="1">
          <mxGeometry x="780" y="2422" width="42.5" height="16.5" as="geometry" />
        </mxCell>
        <mxCell id="hFxO8FMQMLECLvY6zF3h-58" value="&lt;b&gt;RF_WD_MUX&lt;/b&gt;" style="rounded=0;whiteSpace=wrap;html=1;fillColor=#dae8fc;strokeColor=#6c8ebf;" parent="1" vertex="1">
          <mxGeometry x="890" y="2488" width="80" height="162" as="geometry" />
        </mxCell>
        <mxCell id="hFxO8FMQMLECLvY6zF3h-59" value="" style="endArrow=classic;html=1;rounded=0;entryX=0;entryY=0.875;entryDx=0;entryDy=0;entryPerimeter=0;strokeWidth=2;" parent="1" edge="1">
          <mxGeometry width="50" height="50" relative="1" as="geometry">
            <mxPoint x="850" y="2509" as="sourcePoint" />
            <mxPoint x="890" y="2509" as="targetPoint" />
          </mxGeometry>
        </mxCell>
        <mxCell id="hFxO8FMQMLECLvY6zF3h-61" value="" style="group" parent="1" vertex="1" connectable="0">
          <mxGeometry x="854.5" y="2497" width="15.5" height="22" as="geometry" />
        </mxCell>
        <mxCell id="hFxO8FMQMLECLvY6zF3h-62" value="" style="endArrow=none;html=1;rounded=0;" parent="hFxO8FMQMLECLvY6zF3h-61" edge="1">
          <mxGeometry width="50" height="50" relative="1" as="geometry">
            <mxPoint x="5.5" y="22" as="sourcePoint" />
            <mxPoint x="15.5" y="2" as="targetPoint" />
          </mxGeometry>
        </mxCell>
        <mxCell id="hFxO8FMQMLECLvY6zF3h-63" value="32" style="text;html=1;strokeColor=none;fillColor=none;align=center;verticalAlign=middle;whiteSpace=wrap;rounded=0;fontSize=6;" parent="hFxO8FMQMLECLvY6zF3h-61" vertex="1">
          <mxGeometry x="-10" width="21" height="11" as="geometry" />
        </mxCell>
        <mxCell id="hFxO8FMQMLECLvY6zF3h-64" value="" style="endArrow=classic;html=1;rounded=0;entryX=0;entryY=0.875;entryDx=0;entryDy=0;entryPerimeter=0;strokeWidth=2;" parent="1" edge="1">
          <mxGeometry width="50" height="50" relative="1" as="geometry">
            <mxPoint x="850" y="2549.5" as="sourcePoint" />
            <mxPoint x="890" y="2549.5" as="targetPoint" />
          </mxGeometry>
        </mxCell>
        <mxCell id="hFxO8FMQMLECLvY6zF3h-65" value="alu_res" style="text;html=1;strokeColor=none;fillColor=none;align=center;verticalAlign=middle;whiteSpace=wrap;rounded=0;fontStyle=1" parent="1" vertex="1">
          <mxGeometry x="791.25" y="2543.5" width="55" height="10" as="geometry" />
        </mxCell>
        <mxCell id="hFxO8FMQMLECLvY6zF3h-66" value="" style="group" parent="1" vertex="1" connectable="0">
          <mxGeometry x="854" y="2537.5" width="15.5" height="22" as="geometry" />
        </mxCell>
        <mxCell id="hFxO8FMQMLECLvY6zF3h-67" value="" style="endArrow=none;html=1;rounded=0;" parent="hFxO8FMQMLECLvY6zF3h-66" edge="1">
          <mxGeometry width="50" height="50" relative="1" as="geometry">
            <mxPoint x="5.5" y="22" as="sourcePoint" />
            <mxPoint x="15.5" y="2" as="targetPoint" />
          </mxGeometry>
        </mxCell>
        <mxCell id="hFxO8FMQMLECLvY6zF3h-68" value="32" style="text;html=1;strokeColor=none;fillColor=none;align=center;verticalAlign=middle;whiteSpace=wrap;rounded=0;fontSize=6;" parent="hFxO8FMQMLECLvY6zF3h-66" vertex="1">
          <mxGeometry x="-10" width="21" height="11" as="geometry" />
        </mxCell>
        <mxCell id="hFxO8FMQMLECLvY6zF3h-69" value="" style="endArrow=classic;html=1;rounded=0;strokeWidth=2;" parent="1" edge="1">
          <mxGeometry width="50" height="50" relative="1" as="geometry">
            <mxPoint x="969.5" y="2568.8599999999997" as="sourcePoint" />
            <mxPoint x="1017.5" y="2569" as="targetPoint" />
          </mxGeometry>
        </mxCell>
        <mxCell id="hFxO8FMQMLECLvY6zF3h-70" value="rf_wd" style="text;html=1;strokeColor=none;fillColor=none;align=center;verticalAlign=middle;whiteSpace=wrap;rounded=0;fontStyle=1" parent="1" vertex="1">
          <mxGeometry x="1022" y="2561.5" width="38" height="15" as="geometry" />
        </mxCell>
        <mxCell id="hFxO8FMQMLECLvY6zF3h-71" value="" style="group" parent="1" vertex="1" connectable="0">
          <mxGeometry x="989.5" y="2558" width="15.5" height="22" as="geometry" />
        </mxCell>
        <mxCell id="hFxO8FMQMLECLvY6zF3h-72" value="" style="endArrow=none;html=1;rounded=0;" parent="hFxO8FMQMLECLvY6zF3h-71" edge="1">
          <mxGeometry width="50" height="50" relative="1" as="geometry">
            <mxPoint x="5.5" y="22" as="sourcePoint" />
            <mxPoint x="15.5" y="2" as="targetPoint" />
          </mxGeometry>
        </mxCell>
        <mxCell id="hFxO8FMQMLECLvY6zF3h-73" value="32" style="text;html=1;strokeColor=none;fillColor=none;align=center;verticalAlign=middle;whiteSpace=wrap;rounded=0;fontSize=6;" parent="hFxO8FMQMLECLvY6zF3h-71" vertex="1">
          <mxGeometry x="-9" y="-2" width="21" height="11" as="geometry" />
        </mxCell>
        <mxCell id="hFxO8FMQMLECLvY6zF3h-74" value="" style="endArrow=classic;html=1;rounded=0;entryX=0.5;entryY=1;entryDx=0;entryDy=0;exitX=0;exitY=1;exitDx=0;exitDy=0;strokeWidth=2;" parent="1" target="hFxO8FMQMLECLvY6zF3h-58" edge="1" source="wigHwOdFwcqy_M5bwpBg-20">
          <mxGeometry width="50" height="50" relative="1" as="geometry">
            <mxPoint x="840" y="2680" as="sourcePoint" />
            <mxPoint x="903" y="2722.5000000000005" as="targetPoint" />
            <Array as="points">
              <mxPoint x="930" y="2680" />
            </Array>
          </mxGeometry>
        </mxCell>
        <mxCell id="hFxO8FMQMLECLvY6zF3h-75" value="rf_wd_sel" style="text;html=1;strokeColor=none;fillColor=none;align=center;verticalAlign=middle;whiteSpace=wrap;rounded=0;fontStyle=1" parent="1" vertex="1">
          <mxGeometry x="790" y="2670" width="45.5" height="16.5" as="geometry" />
        </mxCell>
        <mxCell id="hFxO8FMQMLECLvY6zF3h-76" value="" style="endArrow=classic;html=1;rounded=0;entryX=0;entryY=0.875;entryDx=0;entryDy=0;entryPerimeter=0;strokeWidth=2;" parent="1" edge="1">
          <mxGeometry width="50" height="50" relative="1" as="geometry">
            <mxPoint x="850" y="2588.5" as="sourcePoint" />
            <mxPoint x="890" y="2588.5" as="targetPoint" />
          </mxGeometry>
        </mxCell>
        <mxCell id="hFxO8FMQMLECLvY6zF3h-77" value="dmem_rdata" style="text;html=1;strokeColor=none;fillColor=none;align=center;verticalAlign=middle;whiteSpace=wrap;rounded=0;fontStyle=1" parent="1" vertex="1">
          <mxGeometry x="759.25" y="2582.5" width="88.75" height="10" as="geometry" />
        </mxCell>
        <mxCell id="hFxO8FMQMLECLvY6zF3h-78" value="" style="group" parent="1" vertex="1" connectable="0">
          <mxGeometry x="854" y="2576.5" width="15.5" height="22" as="geometry" />
        </mxCell>
        <mxCell id="hFxO8FMQMLECLvY6zF3h-79" value="" style="endArrow=none;html=1;rounded=0;" parent="hFxO8FMQMLECLvY6zF3h-78" edge="1">
          <mxGeometry width="50" height="50" relative="1" as="geometry">
            <mxPoint x="5.5" y="22" as="sourcePoint" />
            <mxPoint x="15.5" y="2" as="targetPoint" />
          </mxGeometry>
        </mxCell>
        <mxCell id="hFxO8FMQMLECLvY6zF3h-80" value="32" style="text;html=1;strokeColor=none;fillColor=none;align=center;verticalAlign=middle;whiteSpace=wrap;rounded=0;fontSize=6;" parent="hFxO8FMQMLECLvY6zF3h-78" vertex="1">
          <mxGeometry x="-10" width="21" height="11" as="geometry" />
        </mxCell>
        <mxCell id="hFxO8FMQMLECLvY6zF3h-81" value="" style="endArrow=classic;html=1;rounded=0;entryX=0;entryY=0.875;entryDx=0;entryDy=0;entryPerimeter=0;strokeWidth=2;" parent="1" edge="1">
          <mxGeometry width="50" height="50" relative="1" as="geometry">
            <mxPoint x="850.25" y="2628" as="sourcePoint" />
            <mxPoint x="890.25" y="2628" as="targetPoint" />
          </mxGeometry>
        </mxCell>
        <mxCell id="hFxO8FMQMLECLvY6zF3h-82" value="ZERO" style="text;html=1;strokeColor=none;fillColor=none;align=center;verticalAlign=middle;whiteSpace=wrap;rounded=0;fontStyle=1" parent="1" vertex="1">
          <mxGeometry x="796.25" y="2622" width="55" height="10" as="geometry" />
        </mxCell>
        <mxCell id="hFxO8FMQMLECLvY6zF3h-83" value="" style="group" parent="1" vertex="1" connectable="0">
          <mxGeometry x="854.25" y="2616" width="15.5" height="22" as="geometry" />
        </mxCell>
        <mxCell id="hFxO8FMQMLECLvY6zF3h-84" value="" style="endArrow=none;html=1;rounded=0;" parent="hFxO8FMQMLECLvY6zF3h-83" edge="1">
          <mxGeometry width="50" height="50" relative="1" as="geometry">
            <mxPoint x="5.5" y="22" as="sourcePoint" />
            <mxPoint x="15.5" y="2" as="targetPoint" />
          </mxGeometry>
        </mxCell>
        <mxCell id="hFxO8FMQMLECLvY6zF3h-85" value="32" style="text;html=1;strokeColor=none;fillColor=none;align=center;verticalAlign=middle;whiteSpace=wrap;rounded=0;fontSize=6;" parent="hFxO8FMQMLECLvY6zF3h-83" vertex="1">
          <mxGeometry x="-10" width="21" height="11" as="geometry" />
        </mxCell>
        <mxCell id="hFxO8FMQMLECLvY6zF3h-88" value="pc_add4" style="text;html=1;strokeColor=none;fillColor=none;align=center;verticalAlign=middle;whiteSpace=wrap;rounded=0;fontStyle=1" parent="1" vertex="1">
          <mxGeometry x="787.5" y="2503" width="55" height="10" as="geometry" />
        </mxCell>
        <mxCell id="hFxO8FMQMLECLvY6zF3h-90" value="&lt;b&gt;SLU&lt;/b&gt;" style="rounded=0;whiteSpace=wrap;html=1;fillColor=#dae8fc;strokeColor=#6c8ebf;" parent="1" vertex="1">
          <mxGeometry x="440.5" y="2365.75" width="60" height="129" as="geometry" />
        </mxCell>
        <mxCell id="hFxO8FMQMLECLvY6zF3h-91" value="addr" style="text;html=1;strokeColor=none;fillColor=none;align=center;verticalAlign=middle;whiteSpace=wrap;rounded=0;fontStyle=1" parent="1" vertex="1">
          <mxGeometry x="360.5" y="2377" width="40" height="10" as="geometry" />
        </mxCell>
        <mxCell id="hFxO8FMQMLECLvY6zF3h-92" value="" style="endArrow=classic;html=1;rounded=0;entryX=0;entryY=0.875;entryDx=0;entryDy=0;entryPerimeter=0;strokeWidth=2;" parent="1" edge="1">
          <mxGeometry width="50" height="50" relative="1" as="geometry">
            <mxPoint x="400.5" y="2382.8599999999997" as="sourcePoint" />
            <mxPoint x="440.5" y="2382.8599999999997" as="targetPoint" />
          </mxGeometry>
        </mxCell>
        <mxCell id="hFxO8FMQMLECLvY6zF3h-93" value="" style="group" parent="1" vertex="1" connectable="0">
          <mxGeometry x="404.5" y="2371" width="15.5" height="22" as="geometry" />
        </mxCell>
        <mxCell id="hFxO8FMQMLECLvY6zF3h-94" value="" style="endArrow=none;html=1;rounded=0;" parent="hFxO8FMQMLECLvY6zF3h-93" edge="1">
          <mxGeometry width="50" height="50" relative="1" as="geometry">
            <mxPoint x="5.5" y="22" as="sourcePoint" />
            <mxPoint x="15.5" y="2" as="targetPoint" />
          </mxGeometry>
        </mxCell>
        <mxCell id="hFxO8FMQMLECLvY6zF3h-95" value="32" style="text;html=1;strokeColor=none;fillColor=none;align=center;verticalAlign=middle;whiteSpace=wrap;rounded=0;fontSize=6;" parent="hFxO8FMQMLECLvY6zF3h-93" vertex="1">
          <mxGeometry width="11" height="11" as="geometry" />
        </mxCell>
        <mxCell id="hFxO8FMQMLECLvY6zF3h-96" value="dmem_access" style="text;html=1;strokeColor=none;fillColor=none;align=center;verticalAlign=middle;whiteSpace=wrap;rounded=0;fontStyle=1" parent="1" vertex="1">
          <mxGeometry x="314.5" y="2406" width="80.5" height="10" as="geometry" />
        </mxCell>
        <mxCell id="hFxO8FMQMLECLvY6zF3h-97" value="" style="endArrow=classic;html=1;rounded=0;entryX=0;entryY=0.875;entryDx=0;entryDy=0;entryPerimeter=0;strokeWidth=2;" parent="1" edge="1">
          <mxGeometry width="50" height="50" relative="1" as="geometry">
            <mxPoint x="400.5" y="2411.8599999999997" as="sourcePoint" />
            <mxPoint x="440.5" y="2411.8599999999997" as="targetPoint" />
          </mxGeometry>
        </mxCell>
        <mxCell id="hFxO8FMQMLECLvY6zF3h-98" value="" style="group" parent="1" vertex="1" connectable="0">
          <mxGeometry x="404.5" y="2400" width="15.5" height="22" as="geometry" />
        </mxCell>
        <mxCell id="hFxO8FMQMLECLvY6zF3h-99" value="" style="endArrow=none;html=1;rounded=0;" parent="hFxO8FMQMLECLvY6zF3h-98" edge="1">
          <mxGeometry width="50" height="50" relative="1" as="geometry">
            <mxPoint x="5.5" y="22" as="sourcePoint" />
            <mxPoint x="15.5" y="2" as="targetPoint" />
          </mxGeometry>
        </mxCell>
        <mxCell id="hFxO8FMQMLECLvY6zF3h-100" value="4" style="text;html=1;strokeColor=none;fillColor=none;align=center;verticalAlign=middle;whiteSpace=wrap;rounded=0;fontSize=6;" parent="hFxO8FMQMLECLvY6zF3h-98" vertex="1">
          <mxGeometry width="11" height="11" as="geometry" />
        </mxCell>
        <mxCell id="hFxO8FMQMLECLvY6zF3h-101" value="rd_in" style="text;html=1;strokeColor=none;fillColor=none;align=center;verticalAlign=middle;whiteSpace=wrap;rounded=0;fontStyle=1" parent="1" vertex="1">
          <mxGeometry x="360" y="2436" width="40" height="10" as="geometry" />
        </mxCell>
        <mxCell id="hFxO8FMQMLECLvY6zF3h-102" value="" style="endArrow=classic;html=1;rounded=0;entryX=0;entryY=0.875;entryDx=0;entryDy=0;entryPerimeter=0;strokeWidth=2;" parent="1" edge="1">
          <mxGeometry width="50" height="50" relative="1" as="geometry">
            <mxPoint x="400" y="2441.8599999999997" as="sourcePoint" />
            <mxPoint x="440" y="2441.8599999999997" as="targetPoint" />
          </mxGeometry>
        </mxCell>
        <mxCell id="hFxO8FMQMLECLvY6zF3h-103" value="" style="group" parent="1" vertex="1" connectable="0">
          <mxGeometry x="404" y="2430" width="15.5" height="22" as="geometry" />
        </mxCell>
        <mxCell id="hFxO8FMQMLECLvY6zF3h-104" value="" style="endArrow=none;html=1;rounded=0;" parent="hFxO8FMQMLECLvY6zF3h-103" edge="1">
          <mxGeometry width="50" height="50" relative="1" as="geometry">
            <mxPoint x="5.5" y="22" as="sourcePoint" />
            <mxPoint x="15.5" y="2" as="targetPoint" />
          </mxGeometry>
        </mxCell>
        <mxCell id="hFxO8FMQMLECLvY6zF3h-105" value="32" style="text;html=1;strokeColor=none;fillColor=none;align=center;verticalAlign=middle;whiteSpace=wrap;rounded=0;fontSize=6;" parent="hFxO8FMQMLECLvY6zF3h-103" vertex="1">
          <mxGeometry width="11" height="11" as="geometry" />
        </mxCell>
        <mxCell id="hFxO8FMQMLECLvY6zF3h-106" value="wd_in" style="text;html=1;strokeColor=none;fillColor=none;align=center;verticalAlign=middle;whiteSpace=wrap;rounded=0;fontStyle=1" parent="1" vertex="1">
          <mxGeometry x="360.5" y="2466" width="40" height="10" as="geometry" />
        </mxCell>
        <mxCell id="hFxO8FMQMLECLvY6zF3h-107" value="" style="endArrow=classic;html=1;rounded=0;entryX=0;entryY=0.875;entryDx=0;entryDy=0;entryPerimeter=0;strokeWidth=2;" parent="1" edge="1">
          <mxGeometry width="50" height="50" relative="1" as="geometry">
            <mxPoint x="400.5" y="2471.8599999999997" as="sourcePoint" />
            <mxPoint x="440.5" y="2471.8599999999997" as="targetPoint" />
          </mxGeometry>
        </mxCell>
        <mxCell id="hFxO8FMQMLECLvY6zF3h-108" value="" style="group" parent="1" vertex="1" connectable="0">
          <mxGeometry x="404.5" y="2460" width="15.5" height="22" as="geometry" />
        </mxCell>
        <mxCell id="hFxO8FMQMLECLvY6zF3h-109" value="" style="endArrow=none;html=1;rounded=0;" parent="hFxO8FMQMLECLvY6zF3h-108" edge="1">
          <mxGeometry width="50" height="50" relative="1" as="geometry">
            <mxPoint x="5.5" y="22" as="sourcePoint" />
            <mxPoint x="15.5" y="2" as="targetPoint" />
          </mxGeometry>
        </mxCell>
        <mxCell id="hFxO8FMQMLECLvY6zF3h-110" value="32" style="text;html=1;strokeColor=none;fillColor=none;align=center;verticalAlign=middle;whiteSpace=wrap;rounded=0;fontSize=6;" parent="hFxO8FMQMLECLvY6zF3h-108" vertex="1">
          <mxGeometry width="11" height="11" as="geometry" />
        </mxCell>
        <mxCell id="hFxO8FMQMLECLvY6zF3h-111" value="" style="endArrow=classic;html=1;rounded=0;entryX=0;entryY=0.875;entryDx=0;entryDy=0;entryPerimeter=0;strokeWidth=2;" parent="1" edge="1">
          <mxGeometry width="50" height="50" relative="1" as="geometry">
            <mxPoint x="500.5" y="2411.8599999999997" as="sourcePoint" />
            <mxPoint x="540.5" y="2411.8599999999997" as="targetPoint" />
          </mxGeometry>
        </mxCell>
        <mxCell id="hFxO8FMQMLECLvY6zF3h-112" value="rd_out" style="text;html=1;strokeColor=none;fillColor=none;align=center;verticalAlign=middle;whiteSpace=wrap;rounded=0;fontStyle=1" parent="1" vertex="1">
          <mxGeometry x="544.5" y="2402.5" width="42.5" height="17" as="geometry" />
        </mxCell>
        <mxCell id="hFxO8FMQMLECLvY6zF3h-113" value="" style="group" parent="1" vertex="1" connectable="0">
          <mxGeometry x="504.5" y="2400" width="15.5" height="22" as="geometry" />
        </mxCell>
        <mxCell id="hFxO8FMQMLECLvY6zF3h-114" value="" style="endArrow=none;html=1;rounded=0;" parent="hFxO8FMQMLECLvY6zF3h-113" edge="1">
          <mxGeometry width="50" height="50" relative="1" as="geometry">
            <mxPoint x="5.5" y="22" as="sourcePoint" />
            <mxPoint x="15.5" y="2" as="targetPoint" />
          </mxGeometry>
        </mxCell>
        <mxCell id="hFxO8FMQMLECLvY6zF3h-115" value="32" style="text;html=1;strokeColor=none;fillColor=none;align=center;verticalAlign=middle;whiteSpace=wrap;rounded=0;fontSize=6;" parent="hFxO8FMQMLECLvY6zF3h-113" vertex="1">
          <mxGeometry width="11" height="11" as="geometry" />
        </mxCell>
        <mxCell id="hFxO8FMQMLECLvY6zF3h-121" value="" style="endArrow=classic;html=1;rounded=0;entryX=0;entryY=0.875;entryDx=0;entryDy=0;entryPerimeter=0;strokeWidth=2;" parent="1" edge="1">
          <mxGeometry width="50" height="50" relative="1" as="geometry">
            <mxPoint x="500.5" y="2441.8599999999997" as="sourcePoint" />
            <mxPoint x="540.5" y="2441.8599999999997" as="targetPoint" />
          </mxGeometry>
        </mxCell>
        <mxCell id="hFxO8FMQMLECLvY6zF3h-122" value="wd_out" style="text;html=1;strokeColor=none;fillColor=none;align=center;verticalAlign=middle;whiteSpace=wrap;rounded=0;fontStyle=1" parent="1" vertex="1">
          <mxGeometry x="544.5" y="2432.5" width="42.5" height="17" as="geometry" />
        </mxCell>
        <mxCell id="hFxO8FMQMLECLvY6zF3h-123" value="" style="group" parent="1" vertex="1" connectable="0">
          <mxGeometry x="504.5" y="2430" width="15.5" height="22" as="geometry" />
        </mxCell>
        <mxCell id="hFxO8FMQMLECLvY6zF3h-124" value="" style="endArrow=none;html=1;rounded=0;" parent="hFxO8FMQMLECLvY6zF3h-123" edge="1">
          <mxGeometry width="50" height="50" relative="1" as="geometry">
            <mxPoint x="5.5" y="22" as="sourcePoint" />
            <mxPoint x="15.5" y="2" as="targetPoint" />
          </mxGeometry>
        </mxCell>
        <mxCell id="hFxO8FMQMLECLvY6zF3h-125" value="32" style="text;html=1;strokeColor=none;fillColor=none;align=center;verticalAlign=middle;whiteSpace=wrap;rounded=0;fontSize=6;" parent="hFxO8FMQMLECLvY6zF3h-123" vertex="1">
          <mxGeometry width="11" height="11" as="geometry" />
        </mxCell>
        <mxCell id="Vd8T7v5dsfktU7AXsnZ_-1" value="&lt;b&gt;BRANCH&lt;/b&gt;" style="rounded=0;whiteSpace=wrap;html=1;fillColor=#dae8fc;strokeColor=#6c8ebf;" parent="1" vertex="1">
          <mxGeometry x="1280" y="2001" width="80" height="159" as="geometry" />
        </mxCell>
        <mxCell id="Vd8T7v5dsfktU7AXsnZ_-2" value="" style="endArrow=classic;html=1;rounded=0;entryX=0;entryY=0.875;entryDx=0;entryDy=0;entryPerimeter=0;strokeWidth=2;" parent="1" edge="1">
          <mxGeometry width="50" height="50" relative="1" as="geometry">
            <mxPoint x="1240" y="2079.5" as="sourcePoint" />
            <mxPoint x="1280" y="2079.5" as="targetPoint" />
          </mxGeometry>
        </mxCell>
        <mxCell id="Vd8T7v5dsfktU7AXsnZ_-3" value="br_src0" style="text;html=1;strokeColor=none;fillColor=none;align=center;verticalAlign=middle;whiteSpace=wrap;rounded=0;fontStyle=1" parent="1" vertex="1">
          <mxGeometry x="1180" y="2073.5" width="55" height="10" as="geometry" />
        </mxCell>
        <mxCell id="Vd8T7v5dsfktU7AXsnZ_-4" value="" style="group" parent="1" vertex="1" connectable="0">
          <mxGeometry x="1244.5" y="2067.5" width="15.5" height="22" as="geometry" />
        </mxCell>
        <mxCell id="Vd8T7v5dsfktU7AXsnZ_-5" value="" style="endArrow=none;html=1;rounded=0;" parent="Vd8T7v5dsfktU7AXsnZ_-4" edge="1">
          <mxGeometry width="50" height="50" relative="1" as="geometry">
            <mxPoint x="5.5" y="22" as="sourcePoint" />
            <mxPoint x="15.5" y="2" as="targetPoint" />
          </mxGeometry>
        </mxCell>
        <mxCell id="Vd8T7v5dsfktU7AXsnZ_-6" value="32" style="text;html=1;strokeColor=none;fillColor=none;align=center;verticalAlign=middle;whiteSpace=wrap;rounded=0;fontSize=6;" parent="Vd8T7v5dsfktU7AXsnZ_-4" vertex="1">
          <mxGeometry x="-10" width="21" height="11" as="geometry" />
        </mxCell>
        <mxCell id="Vd8T7v5dsfktU7AXsnZ_-7" value="" style="endArrow=classic;html=1;rounded=0;entryX=0;entryY=0.875;entryDx=0;entryDy=0;entryPerimeter=0;strokeWidth=2;" parent="1" edge="1">
          <mxGeometry width="50" height="50" relative="1" as="geometry">
            <mxPoint x="1240" y="2119.5" as="sourcePoint" />
            <mxPoint x="1280" y="2119.5" as="targetPoint" />
          </mxGeometry>
        </mxCell>
        <mxCell id="Vd8T7v5dsfktU7AXsnZ_-8" value="br_src1" style="text;html=1;strokeColor=none;fillColor=none;align=center;verticalAlign=middle;whiteSpace=wrap;rounded=0;fontStyle=1" parent="1" vertex="1">
          <mxGeometry x="1180" y="2113.5" width="55" height="10" as="geometry" />
        </mxCell>
        <mxCell id="Vd8T7v5dsfktU7AXsnZ_-9" value="" style="group" parent="1" vertex="1" connectable="0">
          <mxGeometry x="1244" y="2107.5" width="15.5" height="22" as="geometry" />
        </mxCell>
        <mxCell id="Vd8T7v5dsfktU7AXsnZ_-10" value="" style="endArrow=none;html=1;rounded=0;" parent="Vd8T7v5dsfktU7AXsnZ_-9" edge="1">
          <mxGeometry width="50" height="50" relative="1" as="geometry">
            <mxPoint x="5.5" y="22" as="sourcePoint" />
            <mxPoint x="15.5" y="2" as="targetPoint" />
          </mxGeometry>
        </mxCell>
        <mxCell id="Vd8T7v5dsfktU7AXsnZ_-11" value="32" style="text;html=1;strokeColor=none;fillColor=none;align=center;verticalAlign=middle;whiteSpace=wrap;rounded=0;fontSize=6;" parent="Vd8T7v5dsfktU7AXsnZ_-9" vertex="1">
          <mxGeometry x="-10" width="21" height="11" as="geometry" />
        </mxCell>
        <mxCell id="Vd8T7v5dsfktU7AXsnZ_-12" value="" style="endArrow=classic;html=1;rounded=0;entryX=0;entryY=0.875;entryDx=0;entryDy=0;entryPerimeter=0;strokeWidth=2;" parent="1" edge="1">
          <mxGeometry width="50" height="50" relative="1" as="geometry">
            <mxPoint x="1239.5" y="2040" as="sourcePoint" />
            <mxPoint x="1279.5" y="2040" as="targetPoint" />
          </mxGeometry>
        </mxCell>
        <mxCell id="Vd8T7v5dsfktU7AXsnZ_-13" value="br_type" style="text;html=1;strokeColor=none;fillColor=none;align=center;verticalAlign=middle;whiteSpace=wrap;rounded=0;fontStyle=1" parent="1" vertex="1">
          <mxGeometry x="1180" y="2033" width="55" height="10" as="geometry" />
        </mxCell>
        <mxCell id="Vd8T7v5dsfktU7AXsnZ_-14" value="" style="group" parent="1" vertex="1" connectable="0">
          <mxGeometry x="1244" y="2028" width="15.5" height="22" as="geometry" />
        </mxCell>
        <mxCell id="Vd8T7v5dsfktU7AXsnZ_-15" value="" style="endArrow=none;html=1;rounded=0;" parent="Vd8T7v5dsfktU7AXsnZ_-14" edge="1">
          <mxGeometry width="50" height="50" relative="1" as="geometry">
            <mxPoint x="5.5" y="22" as="sourcePoint" />
            <mxPoint x="15.5" y="2" as="targetPoint" />
          </mxGeometry>
        </mxCell>
        <mxCell id="Vd8T7v5dsfktU7AXsnZ_-16" value="4" style="text;html=1;strokeColor=none;fillColor=none;align=center;verticalAlign=middle;whiteSpace=wrap;rounded=0;fontSize=6;" parent="Vd8T7v5dsfktU7AXsnZ_-14" vertex="1">
          <mxGeometry x="-10" width="21" height="11" as="geometry" />
        </mxCell>
        <mxCell id="Vd8T7v5dsfktU7AXsnZ_-17" value="" style="endArrow=classic;html=1;rounded=0;entryX=0;entryY=0.875;entryDx=0;entryDy=0;entryPerimeter=0;strokeWidth=2;" parent="1" edge="1">
          <mxGeometry width="50" height="50" relative="1" as="geometry">
            <mxPoint x="965" y="2000.86" as="sourcePoint" />
            <mxPoint x="1005" y="2000.86" as="targetPoint" />
          </mxGeometry>
        </mxCell>
        <mxCell id="Vd8T7v5dsfktU7AXsnZ_-18" value="alu_res" style="text;html=1;strokeColor=none;fillColor=none;align=center;verticalAlign=middle;whiteSpace=wrap;rounded=0;fontStyle=1" parent="1" vertex="1">
          <mxGeometry x="1008.5" y="1993" width="53" height="15" as="geometry" />
        </mxCell>
        <mxCell id="Vd8T7v5dsfktU7AXsnZ_-19" value="" style="group" parent="1" vertex="1" connectable="0">
          <mxGeometry x="969" y="1989" width="15.5" height="22" as="geometry" />
        </mxCell>
        <mxCell id="Vd8T7v5dsfktU7AXsnZ_-20" value="" style="endArrow=none;html=1;rounded=0;" parent="Vd8T7v5dsfktU7AXsnZ_-19" edge="1">
          <mxGeometry width="50" height="50" relative="1" as="geometry">
            <mxPoint x="5.5" y="22" as="sourcePoint" />
            <mxPoint x="15.5" y="2" as="targetPoint" />
          </mxGeometry>
        </mxCell>
        <mxCell id="Vd8T7v5dsfktU7AXsnZ_-21" value="32" style="text;html=1;strokeColor=none;fillColor=none;align=center;verticalAlign=middle;whiteSpace=wrap;rounded=0;fontSize=6;" parent="Vd8T7v5dsfktU7AXsnZ_-19" vertex="1">
          <mxGeometry width="11" height="11" as="geometry" />
        </mxCell>
        <mxCell id="Vd8T7v5dsfktU7AXsnZ_-23" value="" style="endArrow=classic;html=1;rounded=0;exitX=1;exitY=0.5;exitDx=0;exitDy=0;entryX=0;entryY=0.5;entryDx=0;entryDy=0;strokeWidth=2;" parent="1" source="Vd8T7v5dsfktU7AXsnZ_-1" edge="1" target="Vd8T7v5dsfktU7AXsnZ_-24">
          <mxGeometry width="50" height="50" relative="1" as="geometry">
            <mxPoint x="1410" y="2100" as="sourcePoint" />
            <mxPoint x="1400" y="2081" as="targetPoint" />
          </mxGeometry>
        </mxCell>
        <mxCell id="Vd8T7v5dsfktU7AXsnZ_-24" value="npc_sel" style="text;html=1;strokeColor=none;fillColor=none;align=center;verticalAlign=middle;whiteSpace=wrap;rounded=0;fontStyle=1" parent="1" vertex="1">
          <mxGeometry x="1400" y="2065.5" width="50" height="30" as="geometry" />
        </mxCell>
        <mxCell id="Vd8T7v5dsfktU7AXsnZ_-30" value="" style="endArrow=classic;html=1;rounded=0;entryX=0;entryY=0.875;entryDx=0;entryDy=0;entryPerimeter=0;strokeWidth=2;" parent="1" edge="1">
          <mxGeometry width="50" height="50" relative="1" as="geometry">
            <mxPoint x="479" y="2267.9599999999996" as="sourcePoint" />
            <mxPoint x="519" y="2267.9599999999996" as="targetPoint" />
          </mxGeometry>
        </mxCell>
        <mxCell id="Vd8T7v5dsfktU7AXsnZ_-31" value="" style="group" parent="1" vertex="1" connectable="0">
          <mxGeometry x="482" y="2257" width="15.5" height="22" as="geometry" />
        </mxCell>
        <mxCell id="Vd8T7v5dsfktU7AXsnZ_-32" value="" style="endArrow=none;html=1;rounded=0;" parent="Vd8T7v5dsfktU7AXsnZ_-31" edge="1">
          <mxGeometry width="50" height="50" relative="1" as="geometry">
            <mxPoint x="5.5" y="22" as="sourcePoint" />
            <mxPoint x="15.5" y="2" as="targetPoint" />
          </mxGeometry>
        </mxCell>
        <mxCell id="Vd8T7v5dsfktU7AXsnZ_-33" value="4" style="text;html=1;strokeColor=none;fillColor=none;align=center;verticalAlign=middle;whiteSpace=wrap;rounded=0;fontSize=6;" parent="Vd8T7v5dsfktU7AXsnZ_-31" vertex="1">
          <mxGeometry width="11" height="11" as="geometry" />
        </mxCell>
        <mxCell id="Vd8T7v5dsfktU7AXsnZ_-34" value="&lt;b&gt;br_type&lt;/b&gt;" style="text;html=1;align=center;verticalAlign=middle;resizable=0;points=[];autosize=1;strokeColor=none;fillColor=none;" parent="1" vertex="1">
          <mxGeometry x="516.5" y="2255" width="61" height="26" as="geometry" />
        </mxCell>
        <mxCell id="wigHwOdFwcqy_M5bwpBg-1" value="&amp;amp; ~1" style="rounded=0;whiteSpace=wrap;html=1;fontStyle=1;fillColor=#dae8fc;strokeColor=#6c8ebf;" vertex="1" parent="1">
          <mxGeometry x="539.25" y="1090" width="40.75" height="20" as="geometry" />
        </mxCell>
        <mxCell id="wigHwOdFwcqy_M5bwpBg-2" value="" style="endArrow=classic;html=1;rounded=0;entryX=0;entryY=0.75;entryDx=0;entryDy=0;exitX=1;exitY=0.5;exitDx=0;exitDy=0;" edge="1" parent="1" source="wigHwOdFwcqy_M5bwpBg-1" target="PyYUrcXmYriOKvPhO_dD-1">
          <mxGeometry width="50" height="50" relative="1" as="geometry">
            <mxPoint x="540" y="1180" as="sourcePoint" />
            <mxPoint x="590" y="1130" as="targetPoint" />
          </mxGeometry>
        </mxCell>
        <mxCell id="wigHwOdFwcqy_M5bwpBg-3" value="" style="endArrow=classic;html=1;rounded=0;entryX=0;entryY=0.5;entryDx=0;entryDy=0;" edge="1" parent="1" target="wigHwOdFwcqy_M5bwpBg-1">
          <mxGeometry width="50" height="50" relative="1" as="geometry">
            <mxPoint x="520" y="1080" as="sourcePoint" />
            <mxPoint x="550" y="1080" as="targetPoint" />
            <Array as="points">
              <mxPoint x="520" y="1100" />
            </Array>
          </mxGeometry>
        </mxCell>
        <mxCell id="wigHwOdFwcqy_M5bwpBg-4" value="" style="shape=waypoint;sketch=0;size=6;pointerEvents=1;points=[];fillColor=none;resizable=0;rotatable=0;perimeter=centerPerimeter;snapToPoint=1;" vertex="1" parent="1">
          <mxGeometry x="510" y="1070" width="20" height="20" as="geometry" />
        </mxCell>
        <mxCell id="wigHwOdFwcqy_M5bwpBg-5" value="" style="endArrow=classic;html=1;rounded=0;entryX=0;entryY=0.875;entryDx=0;entryDy=0;entryPerimeter=0;" edge="1" parent="1" target="PyYUrcXmYriOKvPhO_dD-16">
          <mxGeometry width="50" height="50" relative="1" as="geometry">
            <mxPoint x="1960" y="1180" as="sourcePoint" />
            <mxPoint x="1950" y="1170" as="targetPoint" />
          </mxGeometry>
        </mxCell>
        <mxCell id="wigHwOdFwcqy_M5bwpBg-6" value="0" style="text;html=1;strokeColor=none;fillColor=none;align=center;verticalAlign=middle;whiteSpace=wrap;rounded=0;fontStyle=1" vertex="1" parent="1">
          <mxGeometry x="1940" y="1169" width="19" height="17" as="geometry" />
        </mxCell>
        <mxCell id="wigHwOdFwcqy_M5bwpBg-7" value="" style="endArrow=classic;html=1;rounded=0;entryX=0;entryY=0.875;entryDx=0;entryDy=0;entryPerimeter=0;strokeWidth=2;" edge="1" parent="1">
          <mxGeometry width="50" height="50" relative="1" as="geometry">
            <mxPoint x="829.25" y="2389" as="sourcePoint" />
            <mxPoint x="869.25" y="2389" as="targetPoint" />
          </mxGeometry>
        </mxCell>
        <mxCell id="wigHwOdFwcqy_M5bwpBg-8" value="pc_ j" style="text;html=1;strokeColor=none;fillColor=none;align=center;verticalAlign=middle;whiteSpace=wrap;rounded=0;fontStyle=1" vertex="1" parent="1">
          <mxGeometry x="794.25" y="2383" width="31.75" height="10" as="geometry" />
        </mxCell>
        <mxCell id="wigHwOdFwcqy_M5bwpBg-9" value="" style="group" vertex="1" connectable="0" parent="1">
          <mxGeometry x="833.75" y="2377" width="15.5" height="22" as="geometry" />
        </mxCell>
        <mxCell id="wigHwOdFwcqy_M5bwpBg-10" value="" style="endArrow=none;html=1;rounded=0;" edge="1" parent="wigHwOdFwcqy_M5bwpBg-9">
          <mxGeometry width="50" height="50" relative="1" as="geometry">
            <mxPoint x="5.5" y="22" as="sourcePoint" />
            <mxPoint x="15.5" y="2" as="targetPoint" />
          </mxGeometry>
        </mxCell>
        <mxCell id="wigHwOdFwcqy_M5bwpBg-11" value="32" style="text;html=1;strokeColor=none;fillColor=none;align=center;verticalAlign=middle;whiteSpace=wrap;rounded=0;fontSize=6;" vertex="1" parent="wigHwOdFwcqy_M5bwpBg-9">
          <mxGeometry x="-10" width="21" height="11" as="geometry" />
        </mxCell>
        <mxCell id="wigHwOdFwcqy_M5bwpBg-12" value="" style="group" vertex="1" connectable="0" parent="1">
          <mxGeometry x="838.5" y="2419.25" width="15.5" height="22" as="geometry" />
        </mxCell>
        <mxCell id="wigHwOdFwcqy_M5bwpBg-13" value="" style="endArrow=none;html=1;rounded=0;" edge="1" parent="wigHwOdFwcqy_M5bwpBg-12">
          <mxGeometry width="50" height="50" relative="1" as="geometry">
            <mxPoint x="1" y="21" as="sourcePoint" />
            <mxPoint x="11" y="1" as="targetPoint" />
          </mxGeometry>
        </mxCell>
        <mxCell id="wigHwOdFwcqy_M5bwpBg-14" value="2" style="text;html=1;strokeColor=none;fillColor=none;align=center;verticalAlign=middle;whiteSpace=wrap;rounded=0;fontSize=6;" vertex="1" parent="wigHwOdFwcqy_M5bwpBg-12">
          <mxGeometry x="-10" width="21" height="11" as="geometry" />
        </mxCell>
        <mxCell id="wigHwOdFwcqy_M5bwpBg-15" value="" style="group" vertex="1" connectable="0" parent="1">
          <mxGeometry x="1370" y="2070" width="15.5" height="22" as="geometry" />
        </mxCell>
        <mxCell id="wigHwOdFwcqy_M5bwpBg-16" value="" style="endArrow=none;html=1;rounded=0;" edge="1" parent="wigHwOdFwcqy_M5bwpBg-15">
          <mxGeometry width="50" height="50" relative="1" as="geometry">
            <mxPoint x="5.5" y="22" as="sourcePoint" />
            <mxPoint x="15.5" y="2" as="targetPoint" />
          </mxGeometry>
        </mxCell>
        <mxCell id="wigHwOdFwcqy_M5bwpBg-17" value="2" style="text;html=1;strokeColor=none;fillColor=none;align=center;verticalAlign=middle;whiteSpace=wrap;rounded=0;fontSize=6;" vertex="1" parent="wigHwOdFwcqy_M5bwpBg-15">
          <mxGeometry x="-10" width="21" height="11" as="geometry" />
        </mxCell>
        <mxCell id="wigHwOdFwcqy_M5bwpBg-18" value="" style="group" vertex="1" connectable="0" parent="1">
          <mxGeometry x="859" y="2669" width="15.5" height="22" as="geometry" />
        </mxCell>
        <mxCell id="wigHwOdFwcqy_M5bwpBg-19" value="" style="endArrow=none;html=1;rounded=0;" edge="1" parent="wigHwOdFwcqy_M5bwpBg-18">
          <mxGeometry width="50" height="50" relative="1" as="geometry">
            <mxPoint x="5.5" y="21" as="sourcePoint" />
            <mxPoint x="15.5" y="1" as="targetPoint" />
          </mxGeometry>
        </mxCell>
        <mxCell id="wigHwOdFwcqy_M5bwpBg-20" value="2" style="text;html=1;strokeColor=none;fillColor=none;align=center;verticalAlign=middle;whiteSpace=wrap;rounded=0;fontSize=6;" vertex="1" parent="wigHwOdFwcqy_M5bwpBg-18">
          <mxGeometry x="-10" width="21" height="11" as="geometry" />
        </mxCell>
      </root>
    </mxGraphModel>
  </diagram>
  <diagram id="mNfY-bFGqeQD7Sox9KrN" name="第 2 页">
    <mxGraphModel dx="2193" dy="1471" grid="1" gridSize="10" guides="1" tooltips="1" connect="1" arrows="1" fold="1" page="1" pageScale="1" pageWidth="4681" pageHeight="3300" math="0" shadow="0">
      <root>
        <mxCell id="0" />
        <mxCell id="1" parent="0" />
        <mxCell id="CroAXr8PXcI0ye5GIk7h-79" value="" style="rounded=0;whiteSpace=wrap;html=1;fillColor=none;dashed=1;" parent="1" vertex="1">
          <mxGeometry x="480" y="780" width="1710" height="700" as="geometry" />
        </mxCell>
        <mxCell id="CroAXr8PXcI0ye5GIk7h-80" value="CPU" style="text;html=1;strokeColor=none;fillColor=none;align=center;verticalAlign=middle;whiteSpace=wrap;rounded=0;fontStyle=1;fontSize=23;" parent="1" vertex="1">
          <mxGeometry x="2140" y="750" width="60" height="30" as="geometry" />
        </mxCell>
        <mxCell id="4nSbJdH9JaJgTyRwyVXE-1" value="PC&lt;br&gt;32b" style="rounded=0;whiteSpace=wrap;html=1;fontStyle=1;fillColor=#d5e8d4;strokeColor=#82b366;" vertex="1" parent="1">
          <mxGeometry x="720" y="1040" width="40" height="80" as="geometry" />
        </mxCell>
        <mxCell id="4nSbJdH9JaJgTyRwyVXE-2" value="ADD 4" style="rounded=0;whiteSpace=wrap;html=1;fontStyle=1;fillColor=#dae8fc;strokeColor=#6c8ebf;" vertex="1" parent="1">
          <mxGeometry x="660" y="940" width="40" height="40" as="geometry" />
        </mxCell>
        <mxCell id="4nSbJdH9JaJgTyRwyVXE-3" value="" style="endArrow=classic;html=1;rounded=0;exitX=1;exitY=0.5;exitDx=0;exitDy=0;entryX=1;entryY=0.5;entryDx=0;entryDy=0;" edge="1" parent="1" source="4nSbJdH9JaJgTyRwyVXE-1" target="4nSbJdH9JaJgTyRwyVXE-2">
          <mxGeometry width="50" height="50" relative="1" as="geometry">
            <mxPoint x="830" y="1090" as="sourcePoint" />
            <mxPoint x="880" y="1040" as="targetPoint" />
            <Array as="points">
              <mxPoint x="800" y="1080" />
              <mxPoint x="800" y="960" />
            </Array>
          </mxGeometry>
        </mxCell>
        <mxCell id="4nSbJdH9JaJgTyRwyVXE-4" value="DECODER" style="rounded=0;whiteSpace=wrap;html=1;fillColor=#dae8fc;strokeColor=#6c8ebf;fontStyle=1" vertex="1" parent="1">
          <mxGeometry x="1000" y="1040" width="80" height="80" as="geometry" />
        </mxCell>
        <mxCell id="4nSbJdH9JaJgTyRwyVXE-5" value="IM" style="rounded=0;whiteSpace=wrap;html=1;fillColor=#e1d5e7;strokeColor=#9673a6;fontStyle=1" vertex="1" parent="1">
          <mxGeometry x="839.5" y="1540" width="120" height="60" as="geometry" />
        </mxCell>
        <mxCell id="4nSbJdH9JaJgTyRwyVXE-6" value="" style="endArrow=classic;html=1;rounded=0;entryX=0.333;entryY=0;entryDx=0;entryDy=0;entryPerimeter=0;" edge="1" parent="1" target="4nSbJdH9JaJgTyRwyVXE-5">
          <mxGeometry width="50" height="50" relative="1" as="geometry">
            <mxPoint x="800" y="1080" as="sourcePoint" />
            <mxPoint x="950" y="1050" as="targetPoint" />
            <Array as="points">
              <mxPoint x="880" y="1080" />
            </Array>
          </mxGeometry>
        </mxCell>
        <mxCell id="4nSbJdH9JaJgTyRwyVXE-7" value="" style="endArrow=classic;html=1;rounded=0;entryX=0;entryY=0.5;entryDx=0;entryDy=0;exitX=0.671;exitY=0;exitDx=0;exitDy=0;exitPerimeter=0;" edge="1" parent="1" source="4nSbJdH9JaJgTyRwyVXE-5" target="4nSbJdH9JaJgTyRwyVXE-4">
          <mxGeometry width="50" height="50" relative="1" as="geometry">
            <mxPoint x="920" y="1240" as="sourcePoint" />
            <mxPoint x="1030" y="1170" as="targetPoint" />
            <Array as="points">
              <mxPoint x="920" y="1080" />
            </Array>
          </mxGeometry>
        </mxCell>
        <mxCell id="4nSbJdH9JaJgTyRwyVXE-8" value="" style="shape=waypoint;sketch=0;size=6;pointerEvents=1;points=[];fillColor=none;resizable=0;rotatable=0;perimeter=centerPerimeter;snapToPoint=1;" vertex="1" parent="1">
          <mxGeometry x="790" y="1070" width="20" height="20" as="geometry" />
        </mxCell>
        <mxCell id="4nSbJdH9JaJgTyRwyVXE-9" value="GLOBAL&lt;br&gt;REGFILE&lt;br&gt;&lt;br&gt;32x32b" style="rounded=0;whiteSpace=wrap;html=1;fontStyle=1;fillColor=#d5e8d4;strokeColor=#82b366;" vertex="1" parent="1">
          <mxGeometry x="1200" y="1040" width="80" height="210" as="geometry" />
        </mxCell>
        <mxCell id="4nSbJdH9JaJgTyRwyVXE-10" value="" style="endArrow=classic;html=1;rounded=0;exitX=1;exitY=0.5;exitDx=0;exitDy=0;entryX=0;entryY=0.19;entryDx=0;entryDy=0;entryPerimeter=0;" edge="1" parent="1" source="4nSbJdH9JaJgTyRwyVXE-4" target="4nSbJdH9JaJgTyRwyVXE-9">
          <mxGeometry width="50" height="50" relative="1" as="geometry">
            <mxPoint x="1100" y="940" as="sourcePoint" />
            <mxPoint x="1150" y="890" as="targetPoint" />
          </mxGeometry>
        </mxCell>
        <mxCell id="4nSbJdH9JaJgTyRwyVXE-11" value="rf_ra0" style="text;html=1;strokeColor=none;fillColor=none;align=center;verticalAlign=middle;whiteSpace=wrap;rounded=0;fontStyle=1" vertex="1" parent="1">
          <mxGeometry x="1167.5" y="1060" width="20" height="20" as="geometry" />
        </mxCell>
        <mxCell id="4nSbJdH9JaJgTyRwyVXE-12" value="" style="endArrow=classic;html=1;rounded=0;" edge="1" parent="1">
          <mxGeometry width="50" height="50" relative="1" as="geometry">
            <mxPoint x="1120" y="1080" as="sourcePoint" />
            <mxPoint x="1200" y="1140" as="targetPoint" />
            <Array as="points">
              <mxPoint x="1120" y="1140" />
            </Array>
          </mxGeometry>
        </mxCell>
        <mxCell id="4nSbJdH9JaJgTyRwyVXE-13" value="rf_ra1" style="text;html=1;strokeColor=none;fillColor=none;align=center;verticalAlign=middle;whiteSpace=wrap;rounded=0;fontStyle=1" vertex="1" parent="1">
          <mxGeometry x="1162.5" y="1125" width="30" height="10" as="geometry" />
        </mxCell>
        <mxCell id="4nSbJdH9JaJgTyRwyVXE-14" value="" style="endArrow=classic;html=1;rounded=0;entryX=0;entryY=0.762;entryDx=0;entryDy=0;entryPerimeter=0;" edge="1" parent="1" target="4nSbJdH9JaJgTyRwyVXE-9">
          <mxGeometry width="50" height="50" relative="1" as="geometry">
            <mxPoint x="1120" y="1140" as="sourcePoint" />
            <mxPoint x="1050" y="1190" as="targetPoint" />
            <Array as="points">
              <mxPoint x="1120" y="1200" />
            </Array>
          </mxGeometry>
        </mxCell>
        <mxCell id="4nSbJdH9JaJgTyRwyVXE-15" value="rf_wa" style="text;html=1;strokeColor=none;fillColor=none;align=center;verticalAlign=middle;whiteSpace=wrap;rounded=0;fontStyle=1" vertex="1" parent="1">
          <mxGeometry x="1160" y="1180" width="32.5" height="20" as="geometry" />
        </mxCell>
        <mxCell id="4nSbJdH9JaJgTyRwyVXE-16" value="" style="endArrow=classic;html=1;rounded=0;exitX=1;exitY=0.19;exitDx=0;exitDy=0;exitPerimeter=0;entryX=0;entryY=0.75;entryDx=0;entryDy=0;" edge="1" parent="1" source="4nSbJdH9JaJgTyRwyVXE-9" target="4nSbJdH9JaJgTyRwyVXE-20">
          <mxGeometry width="50" height="50" relative="1" as="geometry">
            <mxPoint x="1360" y="1100" as="sourcePoint" />
            <mxPoint x="1410" y="1050" as="targetPoint" />
            <Array as="points">
              <mxPoint x="1360" y="1080" />
              <mxPoint x="1360" y="1060" />
            </Array>
          </mxGeometry>
        </mxCell>
        <mxCell id="4nSbJdH9JaJgTyRwyVXE-17" value="rf_rd0" style="text;html=1;strokeColor=none;fillColor=none;align=center;verticalAlign=middle;whiteSpace=wrap;rounded=0;fontStyle=1" vertex="1" parent="1">
          <mxGeometry x="1300" y="1060" width="30" height="20" as="geometry" />
        </mxCell>
        <mxCell id="4nSbJdH9JaJgTyRwyVXE-18" value="rf_rd1" style="text;html=1;strokeColor=none;fillColor=none;align=center;verticalAlign=middle;whiteSpace=wrap;rounded=0;fontStyle=1" vertex="1" parent="1">
          <mxGeometry x="1290" y="1120" width="49" height="20" as="geometry" />
        </mxCell>
        <mxCell id="4nSbJdH9JaJgTyRwyVXE-19" value="&lt;b&gt;MUX&lt;/b&gt;" style="rounded=0;whiteSpace=wrap;html=1;fillColor=#dae8fc;strokeColor=#6c8ebf;" vertex="1" parent="1">
          <mxGeometry x="1440" y="1120" width="40" height="80" as="geometry" />
        </mxCell>
        <mxCell id="4nSbJdH9JaJgTyRwyVXE-20" value="MUX&lt;br&gt;" style="rounded=0;whiteSpace=wrap;html=1;fillColor=#dae8fc;strokeColor=#6c8ebf;fontStyle=1" vertex="1" parent="1">
          <mxGeometry x="1440" y="1000" width="40" height="80" as="geometry" />
        </mxCell>
        <mxCell id="4nSbJdH9JaJgTyRwyVXE-21" value="rf_rd0/pc" style="text;html=1;strokeColor=none;fillColor=none;align=center;verticalAlign=middle;whiteSpace=wrap;rounded=0;fontStyle=1;fontSize=7;" vertex="1" parent="1">
          <mxGeometry x="1445" y="1050" width="30" height="20" as="geometry" />
        </mxCell>
        <mxCell id="4nSbJdH9JaJgTyRwyVXE-22" value="&lt;font style=&quot;font-size: 7px;&quot;&gt;rf_rd1/imm&lt;/font&gt;" style="text;html=1;strokeColor=none;fillColor=none;align=center;verticalAlign=middle;whiteSpace=wrap;rounded=0;fontStyle=1;fontSize=5;" vertex="1" parent="1">
          <mxGeometry x="1447.5" y="1177" width="25" height="9" as="geometry" />
        </mxCell>
        <mxCell id="4nSbJdH9JaJgTyRwyVXE-23" value="" style="endArrow=classic;html=1;rounded=0;entryX=0;entryY=0.25;entryDx=0;entryDy=0;exitX=0;exitY=1;exitDx=0;exitDy=0;" edge="1" parent="1" source="4nSbJdH9JaJgTyRwyVXE-30" target="4nSbJdH9JaJgTyRwyVXE-20">
          <mxGeometry width="50" height="50" relative="1" as="geometry">
            <mxPoint x="800" y="1020" as="sourcePoint" />
            <mxPoint x="1000" y="900" as="targetPoint" />
            <Array as="points">
              <mxPoint x="800" y="1020" />
            </Array>
          </mxGeometry>
        </mxCell>
        <mxCell id="4nSbJdH9JaJgTyRwyVXE-24" value="ALU" style="rounded=0;whiteSpace=wrap;html=1;fontStyle=1;fillColor=#dae8fc;strokeColor=#6c8ebf;" vertex="1" parent="1">
          <mxGeometry x="1560" y="1070" width="120" height="60" as="geometry" />
        </mxCell>
        <mxCell id="4nSbJdH9JaJgTyRwyVXE-25" value="" style="endArrow=classic;html=1;rounded=0;exitX=1;exitY=0.5;exitDx=0;exitDy=0;entryX=0;entryY=0.167;entryDx=0;entryDy=0;entryPerimeter=0;" edge="1" parent="1" source="4nSbJdH9JaJgTyRwyVXE-20" target="4nSbJdH9JaJgTyRwyVXE-24">
          <mxGeometry width="50" height="50" relative="1" as="geometry">
            <mxPoint x="1470" y="1030" as="sourcePoint" />
            <mxPoint x="1520" y="980" as="targetPoint" />
            <Array as="points">
              <mxPoint x="1520" y="1040" />
              <mxPoint x="1520" y="1080" />
            </Array>
          </mxGeometry>
        </mxCell>
        <mxCell id="4nSbJdH9JaJgTyRwyVXE-26" value="" style="endArrow=classic;html=1;rounded=0;exitX=1;exitY=0.5;exitDx=0;exitDy=0;entryX=0;entryY=0.833;entryDx=0;entryDy=0;entryPerimeter=0;" edge="1" parent="1" source="4nSbJdH9JaJgTyRwyVXE-19" target="4nSbJdH9JaJgTyRwyVXE-24">
          <mxGeometry width="50" height="50" relative="1" as="geometry">
            <mxPoint x="1490" y="1140" as="sourcePoint" />
            <mxPoint x="1558" y="1130" as="targetPoint" />
            <Array as="points">
              <mxPoint x="1520" y="1160" />
              <mxPoint x="1520" y="1120" />
            </Array>
          </mxGeometry>
        </mxCell>
        <mxCell id="4nSbJdH9JaJgTyRwyVXE-27" value="" style="endArrow=classic;html=1;rounded=0;exitX=1;exitY=0.476;exitDx=0;exitDy=0;exitPerimeter=0;entryX=0;entryY=0.25;entryDx=0;entryDy=0;" edge="1" parent="1" source="4nSbJdH9JaJgTyRwyVXE-9" target="4nSbJdH9JaJgTyRwyVXE-19">
          <mxGeometry width="50" height="50" relative="1" as="geometry">
            <mxPoint x="1330" y="1160" as="sourcePoint" />
            <mxPoint x="1380" y="1110" as="targetPoint" />
          </mxGeometry>
        </mxCell>
        <mxCell id="4nSbJdH9JaJgTyRwyVXE-28" value="" style="endArrow=classic;html=1;rounded=0;entryX=0;entryY=0.75;entryDx=0;entryDy=0;" edge="1" parent="1" target="4nSbJdH9JaJgTyRwyVXE-19">
          <mxGeometry width="50" height="50" relative="1" as="geometry">
            <mxPoint x="1120" y="1200" as="sourcePoint" />
            <mxPoint x="1290" y="1290" as="targetPoint" />
            <Array as="points">
              <mxPoint x="1120" y="1280" />
              <mxPoint x="1400" y="1280" />
              <mxPoint x="1400" y="1180" />
            </Array>
          </mxGeometry>
        </mxCell>
        <mxCell id="4nSbJdH9JaJgTyRwyVXE-29" value="imm" style="text;html=1;strokeColor=none;fillColor=none;align=center;verticalAlign=middle;whiteSpace=wrap;rounded=0;fontStyle=1" vertex="1" parent="1">
          <mxGeometry x="1299.5" y="1260" width="30" height="20" as="geometry" />
        </mxCell>
        <mxCell id="4nSbJdH9JaJgTyRwyVXE-30" value="pc" style="text;html=1;strokeColor=none;fillColor=none;align=center;verticalAlign=middle;whiteSpace=wrap;rounded=0;fontStyle=1" vertex="1" parent="1">
          <mxGeometry x="800" y="1060" width="30" height="20" as="geometry" />
        </mxCell>
        <mxCell id="4nSbJdH9JaJgTyRwyVXE-31" value="alu_res" style="text;html=1;strokeColor=none;fillColor=none;align=center;verticalAlign=middle;whiteSpace=wrap;rounded=0;fontStyle=1" vertex="1" parent="1">
          <mxGeometry x="1720" y="1070" width="60" height="30" as="geometry" />
        </mxCell>
        <mxCell id="4nSbJdH9JaJgTyRwyVXE-32" value="rf_wd" style="text;html=1;strokeColor=none;fillColor=none;align=center;verticalAlign=middle;whiteSpace=wrap;rounded=0;fontStyle=1" vertex="1" parent="1">
          <mxGeometry x="1162.5" y="1220" width="30" height="20" as="geometry" />
        </mxCell>
        <mxCell id="4nSbJdH9JaJgTyRwyVXE-33" value="alu_src1" style="text;html=1;strokeColor=none;fillColor=none;align=center;verticalAlign=middle;whiteSpace=wrap;rounded=0;fontStyle=1" vertex="1" parent="1">
          <mxGeometry x="1495.5" y="1160" width="49" height="20" as="geometry" />
        </mxCell>
        <mxCell id="4nSbJdH9JaJgTyRwyVXE-34" value="alu_src0" style="text;html=1;strokeColor=none;fillColor=none;align=center;verticalAlign=middle;whiteSpace=wrap;rounded=0;fontStyle=1" vertex="1" parent="1">
          <mxGeometry x="1495.5" y="1020" width="49" height="20" as="geometry" />
        </mxCell>
        <mxCell id="4nSbJdH9JaJgTyRwyVXE-35" value="inst" style="text;html=1;strokeColor=none;fillColor=none;align=center;verticalAlign=middle;whiteSpace=wrap;rounded=0;fontStyle=1" vertex="1" parent="1">
          <mxGeometry x="949" y="1061" width="20" height="20" as="geometry" />
        </mxCell>
        <mxCell id="4nSbJdH9JaJgTyRwyVXE-36" value="" style="shape=waypoint;sketch=0;size=6;pointerEvents=1;points=[];fillColor=none;resizable=0;rotatable=0;perimeter=centerPerimeter;snapToPoint=1;" vertex="1" parent="1">
          <mxGeometry x="1110" y="1070" width="20" height="20" as="geometry" />
        </mxCell>
        <mxCell id="4nSbJdH9JaJgTyRwyVXE-37" value="" style="shape=waypoint;sketch=0;size=6;pointerEvents=1;points=[];fillColor=none;resizable=0;rotatable=0;perimeter=centerPerimeter;snapToPoint=1;" vertex="1" parent="1">
          <mxGeometry x="1110" y="1130" width="20" height="20" as="geometry" />
        </mxCell>
        <mxCell id="4nSbJdH9JaJgTyRwyVXE-38" value="" style="shape=waypoint;sketch=0;size=6;pointerEvents=1;points=[];fillColor=none;resizable=0;rotatable=0;perimeter=centerPerimeter;snapToPoint=1;" vertex="1" parent="1">
          <mxGeometry x="1110" y="1190" width="20" height="20" as="geometry" />
        </mxCell>
        <mxCell id="4nSbJdH9JaJgTyRwyVXE-39" value="npc" style="text;html=1;strokeColor=none;fillColor=none;align=center;verticalAlign=middle;whiteSpace=wrap;rounded=0;fontStyle=1" vertex="1" parent="1">
          <mxGeometry x="665" y="1061" width="30" height="20" as="geometry" />
        </mxCell>
        <mxCell id="4nSbJdH9JaJgTyRwyVXE-40" value="" style="group" vertex="1" connectable="0" parent="1">
          <mxGeometry x="598.75" y="1040" width="50" height="80" as="geometry" />
        </mxCell>
        <mxCell id="4nSbJdH9JaJgTyRwyVXE-41" value="MUX&lt;br&gt;" style="rounded=0;whiteSpace=wrap;html=1;fillColor=#dae8fc;strokeColor=#6c8ebf;fontStyle=1" vertex="1" parent="4nSbJdH9JaJgTyRwyVXE-40">
          <mxGeometry x="0.75" width="40" height="80" as="geometry" />
        </mxCell>
        <mxCell id="4nSbJdH9JaJgTyRwyVXE-42" value="pc_offset&lt;br&gt;/pc_add4&lt;br&gt;/pc_ j" style="text;html=1;strokeColor=none;fillColor=none;align=center;verticalAlign=middle;whiteSpace=wrap;rounded=0;fontStyle=1;fontSize=7;" vertex="1" parent="4nSbJdH9JaJgTyRwyVXE-40">
          <mxGeometry x="1.38" y="47" width="38.75" height="30" as="geometry" />
        </mxCell>
        <mxCell id="4nSbJdH9JaJgTyRwyVXE-43" value="" style="endArrow=classic;html=1;rounded=0;entryX=0;entryY=0.5;entryDx=0;entryDy=0;" edge="1" parent="4nSbJdH9JaJgTyRwyVXE-40" target="4nSbJdH9JaJgTyRwyVXE-1">
          <mxGeometry width="50" height="50" relative="1" as="geometry">
            <mxPoint x="41.25" y="40" as="sourcePoint" />
            <mxPoint x="61.25" y="70" as="targetPoint" />
          </mxGeometry>
        </mxCell>
        <mxCell id="4nSbJdH9JaJgTyRwyVXE-44" value="" style="endArrow=classic;html=1;rounded=0;exitX=0;exitY=0.5;exitDx=0;exitDy=0;entryX=0;entryY=0.25;entryDx=0;entryDy=0;" edge="1" parent="1" source="4nSbJdH9JaJgTyRwyVXE-2" target="4nSbJdH9JaJgTyRwyVXE-41">
          <mxGeometry width="50" height="50" relative="1" as="geometry">
            <mxPoint x="570" y="1010" as="sourcePoint" />
            <mxPoint x="600" y="1100" as="targetPoint" />
            <Array as="points">
              <mxPoint x="570" y="960" />
              <mxPoint x="570" y="1060" />
            </Array>
          </mxGeometry>
        </mxCell>
        <mxCell id="4nSbJdH9JaJgTyRwyVXE-45" value="BRANCH" style="rounded=0;whiteSpace=wrap;html=1;fontStyle=1;fillColor=#dae8fc;strokeColor=#6c8ebf;" vertex="1" parent="1">
          <mxGeometry x="1400" y="1320" width="80" height="80" as="geometry" />
        </mxCell>
        <mxCell id="4nSbJdH9JaJgTyRwyVXE-46" value="" style="shape=waypoint;sketch=0;size=6;pointerEvents=1;points=[];fillColor=none;resizable=0;rotatable=0;perimeter=centerPerimeter;snapToPoint=1;" vertex="1" parent="1">
          <mxGeometry x="1350" y="1070" width="20" height="20" as="geometry" />
        </mxCell>
        <mxCell id="4nSbJdH9JaJgTyRwyVXE-47" value="" style="shape=waypoint;sketch=0;size=6;pointerEvents=1;points=[];fillColor=none;resizable=0;rotatable=0;perimeter=centerPerimeter;snapToPoint=1;" vertex="1" parent="1">
          <mxGeometry x="1370" y="1130" width="20" height="20" as="geometry" />
        </mxCell>
        <mxCell id="4nSbJdH9JaJgTyRwyVXE-48" value="" style="endArrow=classic;html=1;rounded=0;entryX=0;entryY=0.5;entryDx=0;entryDy=0;" edge="1" parent="1" target="4nSbJdH9JaJgTyRwyVXE-41">
          <mxGeometry width="50" height="50" relative="1" as="geometry">
            <mxPoint x="1720" y="1100" as="sourcePoint" />
            <mxPoint x="600" y="1100" as="targetPoint" />
            <Array as="points">
              <mxPoint x="1720" y="840" />
              <mxPoint x="520" y="840" />
              <mxPoint x="520" y="1080" />
            </Array>
          </mxGeometry>
        </mxCell>
        <mxCell id="4nSbJdH9JaJgTyRwyVXE-49" value="" style="shape=waypoint;sketch=0;size=6;pointerEvents=1;points=[];fillColor=none;resizable=0;rotatable=0;perimeter=centerPerimeter;snapToPoint=1;" vertex="1" parent="1">
          <mxGeometry x="1710" y="1090" width="20" height="20" as="geometry" />
        </mxCell>
        <mxCell id="4nSbJdH9JaJgTyRwyVXE-50" value="DM" style="rounded=0;whiteSpace=wrap;html=1;fillColor=#e1d5e7;strokeColor=#9673a6;fontStyle=1" vertex="1" parent="1">
          <mxGeometry x="1760.5" y="1540" width="120" height="60" as="geometry" />
        </mxCell>
        <mxCell id="4nSbJdH9JaJgTyRwyVXE-51" value="" style="endArrow=classic;html=1;rounded=0;exitX=1;exitY=0.5;exitDx=0;exitDy=0;entryX=0;entryY=0.375;entryDx=0;entryDy=0;entryPerimeter=0;" edge="1" parent="1" source="4nSbJdH9JaJgTyRwyVXE-24" target="4nSbJdH9JaJgTyRwyVXE-52">
          <mxGeometry width="50" height="50" relative="1" as="geometry">
            <mxPoint x="1860" y="1120" as="sourcePoint" />
            <mxPoint x="1950" y="1090" as="targetPoint" />
          </mxGeometry>
        </mxCell>
        <mxCell id="4nSbJdH9JaJgTyRwyVXE-52" value="MUX&lt;br&gt;" style="rounded=0;whiteSpace=wrap;html=1;fillColor=#dae8fc;strokeColor=#6c8ebf;fontStyle=1" vertex="1" parent="1">
          <mxGeometry x="2000" y="1040" width="50" height="160" as="geometry" />
        </mxCell>
        <mxCell id="4nSbJdH9JaJgTyRwyVXE-53" value="&lt;font style=&quot;font-size: 7px;&quot;&gt;pc_add4&lt;br&gt;/alu_res&lt;br&gt;/dmem_rdata&lt;br&gt;/0&lt;br&gt;&lt;/font&gt;" style="text;html=1;strokeColor=none;fillColor=none;align=center;verticalAlign=middle;whiteSpace=wrap;rounded=0;fontStyle=1;fontSize=5;" vertex="1" parent="1">
          <mxGeometry x="2002.5" y="1150" width="45" height="30" as="geometry" />
        </mxCell>
        <mxCell id="4nSbJdH9JaJgTyRwyVXE-54" value="" style="endArrow=classic;html=1;rounded=0;entryX=0;entryY=0.5;entryDx=0;entryDy=0;" edge="1" parent="1" target="4nSbJdH9JaJgTyRwyVXE-50">
          <mxGeometry width="50" height="50" relative="1" as="geometry">
            <mxPoint x="1720" y="1100" as="sourcePoint" />
            <mxPoint x="1720" y="1630" as="targetPoint" />
            <Array as="points">
              <mxPoint x="1720" y="1570" />
            </Array>
          </mxGeometry>
        </mxCell>
        <mxCell id="4nSbJdH9JaJgTyRwyVXE-55" value="" style="endArrow=classic;html=1;rounded=0;exitX=0.354;exitY=0.683;exitDx=0;exitDy=0;exitPerimeter=0;entryX=0.25;entryY=0;entryDx=0;entryDy=0;" edge="1" parent="1" source="4nSbJdH9JaJgTyRwyVXE-47" target="4nSbJdH9JaJgTyRwyVXE-69">
          <mxGeometry width="50" height="50" relative="1" as="geometry">
            <mxPoint x="1420" y="1300" as="sourcePoint" />
            <mxPoint x="1700" y="1400" as="targetPoint" />
            <Array as="points">
              <mxPoint x="1380" y="1240" />
              <mxPoint x="1820" y="1240" />
            </Array>
          </mxGeometry>
        </mxCell>
        <mxCell id="4nSbJdH9JaJgTyRwyVXE-56" value="dmem_wd_in" style="text;html=1;strokeColor=none;fillColor=none;align=center;verticalAlign=middle;whiteSpace=wrap;rounded=0;fontStyle=1" vertex="1" parent="1">
          <mxGeometry x="1750" y="1210" width="90" height="30" as="geometry" />
        </mxCell>
        <mxCell id="4nSbJdH9JaJgTyRwyVXE-57" value="dmem_addr" style="text;html=1;strokeColor=none;fillColor=none;align=center;verticalAlign=middle;whiteSpace=wrap;rounded=0;fontStyle=1" vertex="1" parent="1">
          <mxGeometry x="1650" y="1147" width="60" height="30" as="geometry" />
        </mxCell>
        <mxCell id="4nSbJdH9JaJgTyRwyVXE-58" value="" style="endArrow=classic;html=1;rounded=0;entryX=0;entryY=0.625;entryDx=0;entryDy=0;entryPerimeter=0;exitX=0.75;exitY=0;exitDx=0;exitDy=0;" edge="1" parent="1" source="4nSbJdH9JaJgTyRwyVXE-69" target="4nSbJdH9JaJgTyRwyVXE-52">
          <mxGeometry width="50" height="50" relative="1" as="geometry">
            <mxPoint x="1770" y="1400" as="sourcePoint" />
            <mxPoint x="1970" y="1220" as="targetPoint" />
            <Array as="points">
              <mxPoint x="1860" y="1140" />
            </Array>
          </mxGeometry>
        </mxCell>
        <mxCell id="4nSbJdH9JaJgTyRwyVXE-59" value="dmem_addr" style="text;html=1;strokeColor=none;fillColor=none;align=center;verticalAlign=middle;whiteSpace=wrap;rounded=0;fontStyle=1" vertex="1" parent="1">
          <mxGeometry x="1640" y="1305" width="80" height="30" as="geometry" />
        </mxCell>
        <mxCell id="4nSbJdH9JaJgTyRwyVXE-60" value="" style="endArrow=classic;html=1;rounded=0;entryX=0;entryY=0.25;entryDx=0;entryDy=0;" edge="1" parent="1" target="4nSbJdH9JaJgTyRwyVXE-45">
          <mxGeometry width="50" height="50" relative="1" as="geometry">
            <mxPoint x="1380" y="1240" as="sourcePoint" />
            <mxPoint x="1180" y="1330" as="targetPoint" />
            <Array as="points">
              <mxPoint x="1380" y="1340" />
            </Array>
          </mxGeometry>
        </mxCell>
        <mxCell id="4nSbJdH9JaJgTyRwyVXE-61" value="" style="shape=waypoint;sketch=0;size=6;pointerEvents=1;points=[];fillColor=none;resizable=0;rotatable=0;perimeter=centerPerimeter;snapToPoint=1;" vertex="1" parent="1">
          <mxGeometry x="1370" y="1230" width="20" height="20" as="geometry" />
        </mxCell>
        <mxCell id="4nSbJdH9JaJgTyRwyVXE-62" value="" style="endArrow=classic;html=1;rounded=0;entryX=0;entryY=0.75;entryDx=0;entryDy=0;exitX=0.683;exitY=0.675;exitDx=0;exitDy=0;exitPerimeter=0;" edge="1" parent="1" source="4nSbJdH9JaJgTyRwyVXE-46" target="4nSbJdH9JaJgTyRwyVXE-45">
          <mxGeometry width="50" height="50" relative="1" as="geometry">
            <mxPoint x="1240" y="1380" as="sourcePoint" />
            <mxPoint x="1290" y="1330" as="targetPoint" />
            <Array as="points">
              <mxPoint x="1360" y="1380" />
            </Array>
          </mxGeometry>
        </mxCell>
        <mxCell id="4nSbJdH9JaJgTyRwyVXE-63" value="" style="shape=waypoint;sketch=0;size=6;pointerEvents=1;points=[];fillColor=none;resizable=0;rotatable=0;perimeter=centerPerimeter;snapToPoint=1;" vertex="1" parent="1">
          <mxGeometry x="790" y="1010" width="20" height="20" as="geometry" />
        </mxCell>
        <mxCell id="4nSbJdH9JaJgTyRwyVXE-64" value="" style="endArrow=classic;html=1;rounded=0;" edge="1" parent="1">
          <mxGeometry width="50" height="50" relative="1" as="geometry">
            <mxPoint x="570" y="960" as="sourcePoint" />
            <mxPoint x="2000" y="1060" as="targetPoint" />
            <Array as="points">
              <mxPoint x="570" y="900" />
              <mxPoint x="1880" y="900" />
              <mxPoint x="1880" y="1060" />
            </Array>
          </mxGeometry>
        </mxCell>
        <mxCell id="4nSbJdH9JaJgTyRwyVXE-65" value="pc_add4" style="text;html=1;strokeColor=none;fillColor=none;align=center;verticalAlign=middle;whiteSpace=wrap;rounded=0;fontStyle=1" vertex="1" parent="1">
          <mxGeometry x="587" y="940" width="53" height="20" as="geometry" />
        </mxCell>
        <mxCell id="4nSbJdH9JaJgTyRwyVXE-66" value="pc_offset" style="text;html=1;strokeColor=none;fillColor=none;align=center;verticalAlign=middle;whiteSpace=wrap;rounded=0;fontStyle=1" vertex="1" parent="1">
          <mxGeometry x="533.13" y="1063" width="53" height="20" as="geometry" />
        </mxCell>
        <mxCell id="4nSbJdH9JaJgTyRwyVXE-67" value="" style="shape=waypoint;sketch=0;size=6;pointerEvents=1;points=[];fillColor=none;resizable=0;rotatable=0;perimeter=centerPerimeter;snapToPoint=1;" vertex="1" parent="1">
          <mxGeometry x="560" y="950" width="20" height="20" as="geometry" />
        </mxCell>
        <mxCell id="4nSbJdH9JaJgTyRwyVXE-68" value="" style="endArrow=classic;html=1;rounded=0;exitX=1;exitY=0.5;exitDx=0;exitDy=0;entryX=0;entryY=0.952;entryDx=0;entryDy=0;entryPerimeter=0;" edge="1" parent="1" source="4nSbJdH9JaJgTyRwyVXE-52" target="4nSbJdH9JaJgTyRwyVXE-9">
          <mxGeometry width="50" height="50" relative="1" as="geometry">
            <mxPoint x="2020" y="1350" as="sourcePoint" />
            <mxPoint x="1150" y="1350" as="targetPoint" />
            <Array as="points">
              <mxPoint x="2120" y="1120" />
              <mxPoint x="2120" y="1440" />
              <mxPoint x="1160" y="1440" />
              <mxPoint x="1160" y="1240" />
            </Array>
          </mxGeometry>
        </mxCell>
        <mxCell id="4nSbJdH9JaJgTyRwyVXE-69" value="SL UNIT" style="rounded=0;whiteSpace=wrap;html=1;fontStyle=1;fillColor=#dae8fc;strokeColor=#6c8ebf;" vertex="1" parent="1">
          <mxGeometry x="1800" y="1280" width="80" height="80" as="geometry" />
        </mxCell>
        <mxCell id="4nSbJdH9JaJgTyRwyVXE-70" value="" style="endArrow=classic;html=1;rounded=0;entryX=0.5;entryY=0;entryDx=0;entryDy=0;exitX=0.25;exitY=1;exitDx=0;exitDy=0;" edge="1" parent="1" source="4nSbJdH9JaJgTyRwyVXE-69" target="4nSbJdH9JaJgTyRwyVXE-50">
          <mxGeometry width="50" height="50" relative="1" as="geometry">
            <mxPoint x="1700" y="1460" as="sourcePoint" />
            <mxPoint x="1890" y="1400" as="targetPoint" />
          </mxGeometry>
        </mxCell>
        <mxCell id="4nSbJdH9JaJgTyRwyVXE-71" value="dmem_rd_out" style="text;html=1;strokeColor=none;fillColor=none;align=center;verticalAlign=middle;whiteSpace=wrap;rounded=0;fontStyle=1" vertex="1" parent="1">
          <mxGeometry x="1860" y="1210" width="90" height="30" as="geometry" />
        </mxCell>
        <mxCell id="4nSbJdH9JaJgTyRwyVXE-72" value="" style="endArrow=classic;html=1;rounded=0;entryX=0;entryY=0.5;entryDx=0;entryDy=0;" edge="1" parent="1" target="4nSbJdH9JaJgTyRwyVXE-69">
          <mxGeometry width="50" height="50" relative="1" as="geometry">
            <mxPoint x="1720" y="1320" as="sourcePoint" />
            <mxPoint x="1680" y="1260" as="targetPoint" />
          </mxGeometry>
        </mxCell>
        <mxCell id="4nSbJdH9JaJgTyRwyVXE-73" value="" style="shape=waypoint;sketch=0;size=6;pointerEvents=1;points=[];fillColor=none;resizable=0;rotatable=0;perimeter=centerPerimeter;snapToPoint=1;" vertex="1" parent="1">
          <mxGeometry x="1710" y="1310" width="20" height="20" as="geometry" />
        </mxCell>
        <mxCell id="4nSbJdH9JaJgTyRwyVXE-74" value="dmem_wd_out" style="text;html=1;strokeColor=none;fillColor=none;align=center;verticalAlign=middle;whiteSpace=wrap;rounded=0;fontStyle=1" vertex="1" parent="1">
          <mxGeometry x="1731" y="1360" width="90" height="30" as="geometry" />
        </mxCell>
        <mxCell id="4nSbJdH9JaJgTyRwyVXE-75" value="" style="endArrow=classic;html=1;rounded=0;entryX=0.75;entryY=1;entryDx=0;entryDy=0;exitX=0.833;exitY=0;exitDx=0;exitDy=0;exitPerimeter=0;" edge="1" parent="1" source="4nSbJdH9JaJgTyRwyVXE-50" target="4nSbJdH9JaJgTyRwyVXE-69">
          <mxGeometry width="50" height="50" relative="1" as="geometry">
            <mxPoint x="1970" y="1420" as="sourcePoint" />
            <mxPoint x="2020" y="1370" as="targetPoint" />
          </mxGeometry>
        </mxCell>
        <mxCell id="4nSbJdH9JaJgTyRwyVXE-76" value="dmem_rd_in" style="text;html=1;strokeColor=none;fillColor=none;align=center;verticalAlign=middle;whiteSpace=wrap;rounded=0;fontStyle=1" vertex="1" parent="1">
          <mxGeometry x="1858" y="1360" width="90" height="30" as="geometry" />
        </mxCell>
        <mxCell id="4nSbJdH9JaJgTyRwyVXE-77" value="dmem_wdata" style="text;html=1;strokeColor=none;fillColor=none;align=center;verticalAlign=middle;whiteSpace=wrap;rounded=0;fontStyle=1" vertex="1" parent="1">
          <mxGeometry x="1730.5" y="1500" width="90" height="30" as="geometry" />
        </mxCell>
        <mxCell id="4nSbJdH9JaJgTyRwyVXE-78" value="dmem_rdata" style="text;html=1;strokeColor=none;fillColor=none;align=center;verticalAlign=middle;whiteSpace=wrap;rounded=0;fontStyle=1" vertex="1" parent="1">
          <mxGeometry x="1860.5" y="1500" width="90" height="30" as="geometry" />
        </mxCell>
        <mxCell id="4nSbJdH9JaJgTyRwyVXE-79" value="&amp;amp; ~1" style="rounded=0;whiteSpace=wrap;html=1;fontStyle=1;fillColor=#dae8fc;strokeColor=#6c8ebf;" vertex="1" parent="1">
          <mxGeometry x="539.25" y="1090" width="40.75" height="20" as="geometry" />
        </mxCell>
        <mxCell id="4nSbJdH9JaJgTyRwyVXE-80" value="" style="endArrow=classic;html=1;rounded=0;entryX=0;entryY=0.75;entryDx=0;entryDy=0;exitX=1;exitY=0.5;exitDx=0;exitDy=0;" edge="1" parent="1" source="4nSbJdH9JaJgTyRwyVXE-79" target="4nSbJdH9JaJgTyRwyVXE-41">
          <mxGeometry width="50" height="50" relative="1" as="geometry">
            <mxPoint x="540" y="1180" as="sourcePoint" />
            <mxPoint x="590" y="1130" as="targetPoint" />
          </mxGeometry>
        </mxCell>
        <mxCell id="4nSbJdH9JaJgTyRwyVXE-81" value="" style="endArrow=classic;html=1;rounded=0;entryX=0;entryY=0.5;entryDx=0;entryDy=0;" edge="1" parent="1" target="4nSbJdH9JaJgTyRwyVXE-79">
          <mxGeometry width="50" height="50" relative="1" as="geometry">
            <mxPoint x="520" y="1080" as="sourcePoint" />
            <mxPoint x="550" y="1080" as="targetPoint" />
            <Array as="points">
              <mxPoint x="520" y="1100" />
            </Array>
          </mxGeometry>
        </mxCell>
        <mxCell id="4nSbJdH9JaJgTyRwyVXE-82" value="" style="shape=waypoint;sketch=0;size=6;pointerEvents=1;points=[];fillColor=none;resizable=0;rotatable=0;perimeter=centerPerimeter;snapToPoint=1;" vertex="1" parent="1">
          <mxGeometry x="510" y="1070" width="20" height="20" as="geometry" />
        </mxCell>
        <mxCell id="4nSbJdH9JaJgTyRwyVXE-83" value="" style="endArrow=classic;html=1;rounded=0;entryX=0;entryY=0.875;entryDx=0;entryDy=0;entryPerimeter=0;" edge="1" parent="1" target="4nSbJdH9JaJgTyRwyVXE-52">
          <mxGeometry width="50" height="50" relative="1" as="geometry">
            <mxPoint x="1960" y="1180" as="sourcePoint" />
            <mxPoint x="1950" y="1170" as="targetPoint" />
          </mxGeometry>
        </mxCell>
        <mxCell id="4nSbJdH9JaJgTyRwyVXE-84" value="0" style="text;html=1;strokeColor=none;fillColor=none;align=center;verticalAlign=middle;whiteSpace=wrap;rounded=0;fontStyle=1" vertex="1" parent="1">
          <mxGeometry x="1940" y="1169" width="19" height="17" as="geometry" />
        </mxCell>
      </root>
    </mxGraphModel>
  </diagram>
</mxfile>
